<?xml version="1.0" standalone="no"?>
<!DOCTYPE svg PUBLIC "-//W3C//DTD SVG 20010904//EN"
 "http://www.w3.org/TR/2001/REC-SVG-20010904/DTD/svg10.dtd">
<svg version="1.0" xmlns="http://www.w3.org/2000/svg"
 width="6466.000000pt" height="3725.000000pt" viewBox="0 0 6466.000000 3725.000000"
 preserveAspectRatio="xMidYMid meet">

<g transform="translate(0.000000,3725.000000) scale(0.100000,-0.100000)"
fill="#000000" stroke="none">
<path d="M23345 37031 c-54 -22 -284 -291 -546 -641 -537 -714 -1007 -1453
-1491 -2345 -718 -1321 -1276 -2605 -1811 -4165 -212 -620 -288 -929 -291
-1185 -1 -83 3 -110 23 -158 38 -96 99 -119 191 -72 177 90 622 680 1505 1995
523 779 774 1142 1028 1490 83 113 218 297 300 410 177 242 219 296 352 455
56 66 146 176 202 245 180 224 349 366 435 364 66 -2 89 -36 113 -170 25 -144
34 -424 45 -1374 11 -1031 22 -1236 96 -1720 61 -398 137 -674 253 -915 84
-175 175 -274 311 -339 61 -29 72 -31 180 -30 131 0 182 15 289 84 361 234
777 975 1153 2055 142 410 416 1329 511 1715 123 500 226 1119 258 1558 7 99
9 262 6 415 -7 338 -32 496 -113 715 -62 168 -130 228 -250 220 -51 -3 -72
-10 -106 -35 -59 -42 -178 -189 -178 -220 0 -24 40 -73 60 -73 13 0 41 29 115
118 71 85 104 98 154 63 63 -45 106 -181 138 -432 24 -191 24 -707 0 -954 -85
-865 -249 -1593 -604 -2670 -275 -837 -578 -1523 -856 -1940 -102 -154 -227
-313 -275 -352 -61 -49 -142 -90 -219 -112 -63 -17 -79 -18 -130 -7 -114 23
-175 75 -287 248 -95 146 -181 393 -231 665 -34 186 -88 716 -126 1258 -8 108
-13 449 -14 940 -1 869 -9 1006 -67 1240 -36 147 -88 203 -196 212 -72 6 -105
-8 -211 -87 -174 -132 -457 -469 -899 -1072 -265 -360 -421 -583 -922 -1318
-564 -826 -818 -1195 -979 -1420 -426 -596 -720 -945 -870 -1033 l-31 -18 0
65 c0 88 25 268 54 396 100 430 564 1714 960 2652 645 1530 1502 3104 2277
4184 94 132 338 455 384 509 25 30 24 29 -6 -44 -59 -142 -108 -431 -79 -466
14 -16 47 -20 68 -6 8 4 20 45 28 89 8 45 25 110 38 145 35 93 193 402 277
542 40 66 80 137 91 157 29 59 21 146 -16 170 -14 10 -66 9 -91 -1z"/>
<path d="M31512 36214 c-342 -92 -718 -404 -1095 -908 -194 -261 -359 -532
-531 -876 -303 -606 -532 -1269 -677 -1955 -13 -63 -30 -115 -39 -122 -49 -40
-304 -212 -415 -280 -434 -269 -749 -413 -1039 -477 -150 -33 -236 -40 -335
-26 -116 16 -181 43 -244 100 -126 115 -146 266 -76 582 l22 97 79 51 c94 61
191 150 300 275 128 147 165 246 118 323 -26 43 -61 56 -111 41 -97 -30 -274
-217 -372 -396 l-65 -117 -78 3 c-74 2 -81 1 -104 -24 -19 -21 -25 -37 -24
-70 1 -54 10 -65 74 -95 43 -20 50 -27 45 -45 -29 -89 -37 -134 -42 -226 -9
-175 26 -344 92 -439 34 -50 161 -135 233 -157 46 -14 92 -18 232 -17 168 0
181 2 310 36 188 49 306 95 515 198 209 103 335 177 638 376 121 79 222 142
224 141 1 -2 -13 -95 -32 -208 -67 -400 -110 -766 -137 -1149 -17 -248 -17
-917 0 -1080 42 -399 168 -687 335 -761 43 -20 69 -24 150 -24 92 0 100 2 118
24 24 29 24 63 1 85 -14 12 -37 16 -94 15 -108 -2 -174 38 -237 142 -105 177
-166 724 -141 1264 22 480 74 915 191 1599 l42 246 156 132 c736 626 1247
1154 1700 1758 326 435 517 764 649 1120 74 198 105 333 105 455 1 203 -57
316 -193 379 -64 30 -160 34 -248 10z m227 -108 c38 -20 67 -55 93 -111 20
-43 23 -65 21 -155 -3 -234 -51 -402 -190 -670 -216 -415 -333 -603 -596 -955
-317 -422 -814 -952 -1265 -1348 -143 -126 -411 -341 -417 -335 -5 5 69 295
126 491 150 518 314 943 541 1397 193 388 340 631 538 895 315 419 698 747
934 801 69 15 175 10 215 -10z m-4359 -3296 c-23 -27 -47 -53 -53 -57 -11 -6
9 20 62 80 42 46 35 30 -9 -23z"/>
<path d="M43063 35705 c-72 -20 -134 -52 -282 -149 -232 -151 -463 -365 -656
-606 -95 -119 -413 -539 -445 -589 -15 -22 -26 -24 -175 -37 -239 -20 -452
-42 -730 -74 -354 -41 -862 -86 -871 -77 -2 2 2 17 8 34 6 16 9 37 5 46 -9 24
-82 41 -187 41 -185 2 -266 -51 -246 -158 15 -79 117 -130 256 -128 208 4 560
42 950 102 371 57 886 118 898 106 2 -3 -18 -42 -46 -88 -148 -247 -370 -680
-484 -943 -73 -167 -154 -383 -219 -581 l-43 -132 -39 -12 c-30 -9 -42 -19
-54 -48 -15 -35 -14 -39 10 -82 l25 -45 -39 -150 c-90 -344 -122 -568 -122
-845 0 -347 55 -543 186 -668 62 -58 85 -69 172 -83 157 -26 296 38 539 248
49 43 121 101 159 130 199 150 736 657 1039 983 l126 135 -13 -51 c-7 -28 -16
-81 -20 -117 -6 -56 -4 -73 14 -110 30 -61 85 -92 151 -83 104 14 170 62 273
201 70 94 103 158 147 285 18 52 36 98 39 102 3 3 35 0 71 -8 112 -24 272 -28
406 -10 155 20 328 64 441 111 48 20 117 48 153 61 69 25 90 44 90 81 0 42
-32 46 -102 14 -140 -64 -464 -152 -628 -172 -109 -12 -241 -2 -355 27 -67 18
-74 25 -75 74 -1 19 -7 51 -13 70 -12 32 -10 41 21 108 48 101 52 149 17 190
-34 40 -66 41 -126 4 -86 -55 -168 -159 -294 -372 -79 -135 -143 -208 -485
-553 -357 -362 -618 -602 -939 -866 -237 -195 -333 -265 -420 -308 -64 -31
-87 -37 -165 -41 l-91 -4 -42 45 c-47 51 -82 115 -108 197 -14 44 -19 104 -22
306 -7 333 6 421 128 899 43 170 55 203 76 220 263 206 354 292 697 655 369
391 544 594 811 940 87 112 190 243 229 291 l71 87 251 7 c317 9 1125 0 1264
-14 149 -15 294 -40 366 -62 56 -17 70 -27 135 -99 61 -68 77 -80 103 -80 73
0 99 66 55 140 -72 119 -146 167 -311 200 -292 60 -1027 79 -1647 44 -72 -4
-122 -3 -120 2 2 5 75 115 161 244 316 474 412 696 384 885 -9 59 -59 117
-114 133 -52 16 -134 14 -199 -3z m203 -141 c29 -115 -58 -338 -248 -638 -78
-123 -335 -493 -348 -501 -5 -3 -102 -12 -217 -20 -526 -38 -588 -42 -592 -39
-8 7 191 285 304 427 231 287 458 503 697 664 164 110 219 132 320 133 75 0
78 -1 84 -26z m-722 -1301 c-224 -301 -698 -857 -1018 -1193 -176 -185 -540
-534 -544 -522 -3 10 88 262 157 434 144 360 333 741 552 1114 l89 151 93 6
c413 27 564 38 577 41 8 2 39 4 69 5 l53 1 -28 -37z m635 -1973 c20 0 36 9 50
28 l20 27 1 -41 c1 -146 -150 -390 -275 -445 -26 -11 -49 -18 -52 -16 -6 7 14
107 34 172 18 58 46 114 116 239 l50 89 14 -27 c10 -19 21 -26 42 -26z"/>
<path d="M34889 33289 c-63 -46 -244 -230 -323 -329 -37 -47 -131 -177 -208
-290 -170 -245 -247 -350 -259 -350 -8 0 -5 47 7 110 3 14 21 57 40 96 35 71
60 180 50 219 -3 12 -21 30 -40 40 -70 38 -125 -17 -186 -186 -39 -107 -33
-103 -235 -164 -358 -109 -550 -126 -770 -69 -67 18 -74 25 -75 74 -1 19 -7
51 -13 70 -12 32 -10 41 21 108 48 101 52 149 17 190 -18 22 -36 32 -54 32
-66 0 -181 -109 -287 -272 -65 -98 -116 -149 -236 -235 -88 -62 -316 -240
-493 -382 -298 -240 -676 -466 -822 -491 -84 -14 -192 -1 -251 29 -155 80
-203 310 -120 571 81 256 383 645 668 862 57 43 92 62 142 75 37 10 70 14 74
10 21 -20 -75 -268 -124 -320 -29 -31 -62 -120 -62 -166 0 -45 22 -69 72 -78
55 -8 73 8 102 94 15 44 48 110 76 151 59 87 90 179 97 287 4 66 1 86 -14 115
-28 50 -93 82 -158 77 -56 -4 -189 -62 -282 -123 -73 -48 -262 -231 -361 -349
-74 -87 -248 -343 -310 -455 -98 -175 -125 -442 -63 -622 68 -198 202 -297
401 -298 230 0 489 149 1095 629 247 196 338 268 373 295 7 5 1 -17 -13 -50
-54 -119 -85 -215 -96 -302 -12 -84 -11 -92 9 -134 31 -62 86 -93 152 -84 104
14 170 62 273 201 70 94 103 158 147 285 18 52 36 98 39 102 3 3 35 0 71 -8
247 -52 603 -5 902 121 11 4 -22 -82 -102 -267 -137 -317 -204 -498 -230 -617
-17 -75 -17 -88 -4 -112 49 -97 134 -74 224 61 50 74 199 314 562 900 122 197
225 344 343 490 110 137 268 306 272 293 2 -5 -33 -155 -77 -334 -140 -558
-185 -790 -197 -1000 -11 -202 11 -259 101 -259 33 0 52 6 76 26 35 30 129
162 359 504 113 168 183 261 245 325 l87 90 -6 -100 c-3 -55 -11 -138 -16
-184 -15 -130 -12 -368 5 -445 18 -75 54 -152 84 -179 58 -53 154 -38 327 48
141 71 241 144 457 331 177 154 346 294 354 294 2 0 -4 -17 -14 -37 -109 -217
-123 -540 -29 -681 25 -36 48 -55 100 -81 126 -63 266 -52 483 39 136 56 281
143 559 335 138 94 320 218 405 275 85 57 213 144 284 194 71 50 163 109 205
131 74 39 132 98 113 117 -21 21 -68 19 -102 -6 -47 -34 -380 -252 -1017 -666
-319 -208 -486 -284 -676 -311 -107 -15 -148 -7 -197 37 -57 52 -74 112 -67
238 7 122 30 201 104 358 l55 116 96 47 c218 105 327 218 377 389 20 68 11
102 -34 129 -37 22 -49 21 -119 -3 -121 -42 -223 -131 -331 -290 -42 -61 -168
-177 -244 -225 -18 -11 -59 -47 -93 -80 -80 -80 -295 -255 -430 -352 -133 -95
-336 -217 -394 -238 -74 -26 -95 -21 -120 29 -39 82 -44 151 -24 376 34 397
32 434 -21 487 -38 38 -61 41 -114 13 -60 -30 -125 -102 -222 -244 -49 -72
-118 -171 -155 -221 -36 -49 -110 -156 -164 -236 -85 -126 -155 -207 -168
-194 -5 5 36 294 59 409 11 56 71 304 134 553 124 488 131 533 95 608 -35 72
-100 85 -171 34z m2376 -624 c-14 -30 -46 -71 -69 -92 -76 -67 -166 -135 -166
-125 0 14 79 133 118 177 19 22 58 59 86 83 62 51 71 38 31 -43z m-4586 -375
c20 0 36 9 50 28 l20 27 1 -41 c1 -146 -150 -390 -275 -445 -26 -11 -49 -18
-52 -16 -6 7 14 107 34 172 18 58 46 114 116 239 l50 89 14 -27 c10 -19 21
-26 42 -26z m1364 -36 c12 -4 -1 -31 -56 -119 -39 -63 -73 -112 -75 -111 -2 2
15 44 37 92 22 49 43 101 46 117 7 27 19 32 48 21z"/>
<path d="M4820 26430 c-1202 -60 -2188 -343 -2925 -841 -196 -132 -334 -246
-505 -419 -527 -529 -818 -1163 -917 -1995 -25 -213 -25 -750 0 -955 83 -680
315 -1227 749 -1762 121 -149 439 -465 607 -603 484 -395 995 -711 1801 -1114
374 -186 539 -264 1240 -586 1360 -624 1925 -917 2507 -1301 203 -134 481
-341 643 -480 142 -121 420 -398 521 -519 404 -483 653 -986 769 -1554 154
-760 76 -1624 -211 -2323 -65 -158 -201 -424 -285 -558 -639 -1019 -1764
-1691 -3114 -1859 -249 -31 -419 -41 -700 -41 -140 0 -318 5 -395 10 -1046 76
-1981 426 -2795 1046 -784 597 -1421 1448 -1751 2339 -27 72 -49 126 -49 120
0 -5 68 -533 152 -1173 l152 -1163 71 -53 c1099 -824 2740 -1325 4460 -1363
1391 -30 2849 351 3953 1034 1120 692 1835 1657 2061 2779 63 315 75 453 75
844 1 381 -8 487 -60 795 -230 1336 -1088 2423 -2654 3362 -629 377 -1127 626
-2485 1243 -984 447 -1503 698 -1905 921 -1015 564 -1616 1105 -1925 1734
-117 236 -185 462 -222 730 -20 149 -19 514 2 709 144 1336 1025 2304 2399
2636 370 90 728 130 1150 130 1308 0 2389 -422 3226 -1260 500 -499 887 -1110
1201 -1890 43 -107 79 -188 79 -180 0 21 -219 1999 -226 2035 -4 23 -25 46
-86 94 -651 515 -1293 870 -1998 1105 -508 169 -1034 270 -1635 316 -193 15
-763 20 -975 10z"/>
<path d="M11276 25287 c-190 -508 -346 -927 -346 -930 0 -4 26 -7 58 -7 l58 0
39 88 c60 136 198 410 256 508 361 616 816 938 1425 1009 110 13 376 15 1812
15 l1682 0 -3 -7937 c-2 -7225 -4 -7942 -18 -7988 -49 -152 -142 -266 -271
-329 -92 -45 -164 -64 -300 -78 l-108 -11 0 -59 0 -58 1393 2 1392 3 3 56 3
55 -115 12 c-325 34 -517 181 -571 438 -13 60 -15 1072 -15 7982 l0 7913 1743
-4 1742 -3 115 -22 c350 -67 645 -215 886 -444 251 -239 431 -509 638 -956
l89 -192 59 0 c32 0 58 2 58 3 0 8 -682 1822 -691 1839 -9 17 -235 18 -5338
18 l-5328 0 -347 -923z"/>
<path d="M26862 26193 c-5 -10 -1210 -3620 -2677 -8023 -1467 -4403 -2679
-8027 -2693 -8055 -137 -277 -426 -450 -800 -480 l-93 -7 3 -57 3 -56 813 -3
812 -2 0 59 0 59 -77 7 c-175 15 -291 61 -362 141 -56 64 -75 132 -68 238 5
73 87 325 855 2626 l849 2545 3280 3 3280 2 213 -547 c548 -1411 717 -1806
1075 -2518 1252 -2485 2845 -4216 4740 -5150 1112 -548 2265 -815 3520 -815
991 0 1949 163 2925 496 776 264 1509 637 1987 1009 l112 87 -25 49 c-17 34
-29 47 -37 42 -7 -4 -55 -40 -107 -79 -530 -397 -1511 -806 -2432 -1013 -971
-219 -1941 -265 -2858 -135 -1398 197 -2650 783 -3775 1764 -165 145 -596 574
-751 750 -864 977 -1586 2174 -2194 3635 -48 115 -1256 3188 -2685 6828
l-2598 6617 -113 0 c-98 0 -115 -2 -122 -17z m1312 -6341 c944 -2426 1716
-4414 1716 -4417 0 -3 -1436 -5 -3191 -5 -2549 0 -3190 3 -3187 13 3 6 666
1995 1474 4419 808 2424 1469 4406 1470 4405 1 -1 774 -1988 1718 -4415z"/>
<path d="M31647 26203 c-4 -3 -7 -30 -7 -59 l0 -53 53 -5 c28 -3 83 -8 121
-12 214 -19 469 -120 653 -258 82 -62 213 -202 258 -276 20 -33 1114 -1904
2431 -4158 l2394 -4097 -2 -3615 -3 -3615 -23 -57 c-90 -223 -273 -337 -579
-363 l-83 -7 0 -59 0 -59 1393 2 1392 3 3 56 3 56 -83 7 c-279 24 -460 121
-553 297 -70 133 -65 -170 -65 3777 l0 3572 2251 4128 c1238 2270 2267 4150
2285 4178 53 79 147 178 236 244 167 127 428 228 628 245 41 3 94 8 118 11
l42 5 0 60 0 59 -810 0 -810 0 0 -59 0 -60 43 -5 c23 -3 69 -8 102 -12 140
-15 241 -84 265 -182 15 -63 7 -132 -27 -227 -14 -39 -1002 -1862 -2216 -4088
l-2191 -4017 -42 72 c-428 742 -4514 7971 -4535 8024 -35 87 -47 188 -30 252
14 50 67 107 126 133 39 17 107 31 228 45 l47 5 0 60 0 59 -1503 0 c-827 0
-1507 -3 -1510 -7z"/>
<path d="M52870 23434 c-1097 -64 -1892 -380 -2832 -1128 -101 -80 -128 -107
-133 -131 -7 -39 -185 -1655 -185 -1675 1 -8 23 41 49 110 146 376 324 729
519 1025 190 290 400 541 622 742 633 576 1400 864 2300 865 291 1 454 -27
685 -119 676 -266 1193 -1026 1389 -2038 47 -242 59 -410 53 -720 -5 -292 -20
-453 -62 -690 -69 -388 -182 -732 -358 -1090 -232 -470 -525 -882 -1009 -1422
-78 -87 -503 -520 -943 -963 -440 -443 -866 -875 -945 -960 -574 -616 -1005
-1155 -1402 -1753 -719 -1086 -1245 -2305 -1599 -3707 -32 -129 -59 -242 -59
-252 0 -17 161 -18 3765 -18 l3765 0 0 860 0 860 -50 0 -50 0 0 -57 c-1 -138
-63 -306 -143 -387 -53 -52 -140 -99 -215 -115 -70 -15 -6532 -16 -6532 -1 0
5 34 99 76 207 407 1053 962 1996 1674 2843 186 221 357 407 605 659 525 532
890 850 1939 1689 781 625 1011 818 1323 1110 903 846 1336 1620 1449 2587 25
209 25 644 0 845 -90 737 -368 1344 -840 1829 -521 534 -1195 862 -2001 972
-120 17 -215 21 -470 24 -176 1 -349 1 -385 -1z"/>
<path d="M46713 23177 c-202 -291 -515 -602 -839 -834 -284 -203 -634 -387
-946 -498 l-78 -28 0 -48 0 -49 184 0 c222 0 331 -16 431 -65 121 -58 207
-166 234 -293 16 -75 16 -11318 0 -11394 -16 -77 -64 -160 -125 -218 -84 -79
-198 -123 -356 -136 l-78 -7 0 -48 0 -49 1145 0 1145 0 0 49 0 48 -81 7 c-267
24 -440 155 -479 365 -7 36 -10 2276 -10 6662 l0 6609 -48 0 -48 0 -51 -73z"/>
<path d="M57780 22390 l0 -860 49 0 49 0 7 68 c24 271 138 434 340 487 53 13
373 15 2827 15 1522 0 2768 -2 2768 -4 0 -3 -33 -58 -74 -124 -385 -621 -958
-1678 -1370 -2529 -1581 -3266 -2480 -6323 -2656 -9028 -14 -213 -30 -630 -30
-782 l0 -123 575 0 575 0 0 168 c0 373 25 991 61 1492 232 3305 1181 6826
2724 10114 290 618 666 1342 942 1813 45 79 83 145 83 148 0 3 -1546 5 -3435
5 l-3435 0 0 -860z"/>
<path d="M15475 2716 c-133 -22 -205 -45 -312 -96 -215 -105 -323 -273 -323
-505 0 -154 36 -252 125 -341 123 -123 365 -196 745 -224 505 -38 670 -116
670 -318 0 -57 -5 -80 -31 -130 -64 -129 -204 -198 -454 -223 -333 -34 -694
51 -948 223 -42 29 -62 37 -70 29 -6 -6 -36 -54 -68 -108 l-57 -98 51 -37
c356 -256 991 -342 1429 -194 122 41 195 84 273 161 105 104 155 230 155 395
0 302 -179 464 -590 534 -52 9 -178 23 -280 31 -508 42 -670 116 -670 308 0
79 15 125 59 182 81 107 237 165 463 173 280 9 542 -55 724 -177 25 -17 48
-31 52 -31 6 0 122 202 122 213 0 8 -106 75 -166 105 -85 43 -220 89 -332 113
-126 27 -446 35 -567 15z"/>
<path d="M9190 1680 l0 -1020 135 0 135 0 0 1020 0 1020 -135 0 -135 0 0
-1020z"/>
<path d="M11230 1680 l0 -1020 130 0 130 0 2 874 3 874 688 -874 689 -874 129
0 129 0 0 1020 0 1020 -130 0 -130 0 0 -800 c0 -440 -3 -800 -7 -799 -5 0
-291 360 -637 800 l-628 799 -184 0 -184 0 0 -1020z"/>
<path d="M18300 1680 l0 -1020 135 0 135 0 0 395 0 395 508 0 c459 0 516 2
599 19 239 50 400 194 459 411 24 90 25 291 1 379 -44 163 -142 287 -278 354
-164 80 -240 87 -966 87 l-593 0 0 -1020z m1261 766 c147 -26 234 -87 285
-199 25 -56 28 -73 28 -167 0 -58 -5 -124 -12 -147 -29 -99 -115 -183 -225
-220 -46 -15 -110 -18 -559 -21 l-508 -3 0 386 0 385 458 0 c340 -1 477 -4
533 -14z"/>
<path d="M21800 1680 l0 -1020 135 0 135 0 -2 1018 -3 1017 -132 3 -133 3 0
-1021z"/>
<path d="M23837 2693 c-4 -3 -7 -462 -7 -1020 l0 -1013 140 0 140 0 0 415 0
415 393 0 392 -1 298 -414 298 -415 166 0 165 0 -34 47 c-19 27 -157 216 -307
422 -150 205 -271 374 -269 375 2 1 37 10 77 19 221 52 369 198 417 413 24
111 16 294 -18 385 -83 223 -246 338 -523 369 -99 11 -1318 14 -1328 3z m1285
-243 c145 -21 236 -77 285 -177 23 -48 28 -73 31 -154 8 -202 -67 -314 -243
-366 -53 -15 -123 -17 -572 -21 l-513 -3 0 365 0 366 473 0 c259 0 502 -5 539
-10z"/>
<path d="M27437 2693 c-4 -3 -7 -462 -7 -1020 l0 -1013 890 0 890 0 0 120 0
120 -750 0 -750 0 0 335 0 335 655 0 656 0 -3 118 -3 117 -652 3 -653 2 0 325
0 325 750 0 750 0 0 120 0 120 -883 0 c-486 0 -887 -3 -890 -7z"/>
<path d="M30840 1681 l0 -1021 513 0 c521 0 589 4 732 41 460 118 736 517 711
1029 -19 397 -197 693 -511 848 -95 47 -153 66 -277 94 -86 19 -133 21 -630
25 l-538 5 0 -1021z m1040 764 c299 -45 512 -216 595 -476 69 -220 54 -490
-38 -678 -89 -180 -234 -298 -447 -362 -72 -22 -94 -23 -477 -27 l-403 -3 0
780 0 781 338 0 c243 0 363 -4 432 -15z"/>
<path d="M36390 2580 l0 -120 405 0 405 0 0 -900 0 -900 140 0 140 0 0 900 0
900 405 0 405 0 0 120 0 120 -950 0 -950 0 0 -120z"/>
<path d="M39897 2693 c-4 -3 -7 -462 -7 -1020 l0 -1013 140 0 140 0 0 415 0
415 393 -1 392 0 295 -411 c162 -226 299 -412 305 -414 6 -3 81 -3 167 -2
l155 3 -304 418 c-167 231 -303 420 -301 421 2 1 36 10 75 19 111 26 198 72
274 147 110 109 158 239 159 431 0 340 -195 548 -553 588 -105 12 -1319 16
-1330 4z m1285 -243 c145 -21 236 -77 285 -178 26 -53 28 -66 28 -177 0 -102
-3 -127 -21 -166 -40 -86 -123 -149 -236 -180 -29 -8 -206 -13 -555 -16 l-513
-4 0 365 0 366 473 0 c259 0 502 -5 539 -10z"/>
<path d="M43855 1793 c-236 -500 -452 -959 -481 -1021 l-53 -112 143 0 142 0
125 265 124 265 559 -2 559 -3 122 -260 122 -260 151 -3 150 -3 -468 993
c-258 546 -475 1005 -484 1021 l-15 27 -134 0 -134 0 -428 -907z m784 116
l219 -474 -441 -3 c-242 -1 -442 -1 -444 2 -2 2 89 203 203 447 113 244 213
459 221 478 8 18 16 31 19 29 2 -3 102 -218 223 -479z"/>
<path d="M46642 2683 c3 -10 209 -469 459 -1021 l454 -1002 140 2 139 3 458
1010 c252 556 458 1013 458 1018 0 4 -64 6 -142 5 l-143 -3 -380 -852 c-272
-610 -383 -849 -389 -839 -6 8 -179 391 -386 853 l-376 838 -148 3 c-138 2
-148 1 -144 -15z"/>
<path d="M50350 1680 l0 -1020 890 0 891 0 -3 117 -3 118 -752 3 -753 2 0 335
0 335 655 0 655 0 0 120 0 120 -655 0 -655 0 0 325 0 325 755 0 756 0 -3 118
-3 117 -887 3 -888 2 0 -1020z"/>
<path d="M53757 2694 c-4 -4 -7 -463 -7 -1021 l0 -1013 860 0 860 0 0 120 0
120 -720 0 -720 0 -2 898 -3 897 -131 3 c-71 1 -133 -1 -137 -4z"/>
</g>
</svg>
