<?xml version="1.0" standalone="no"?>
<!DOCTYPE svg PUBLIC "-//W3C//DTD SVG 1.1//EN" "http://www.w3.org/Graphics/SVG/1.1/DTD/svg11.dtd" >
<svg xmlns="http://www.w3.org/2000/svg" xmlns:xlink="http://www.w3.org/1999/xlink" version="1.1">
<metadata>
Created by FontForge 20200306 at Mon Oct 18 11:16:00 2021
 By convertio
Copyright (c) 2019 by Set Sail Studios LTD. All rights reserved.
</metadata>
<defs>
<font id="LaLuxesSerif" horiz-adv-x="697" >
  <font-face 
    font-family="La Luxes Serif"
    font-weight="400"
    font-stretch="normal"
    units-per-em="1000"
    panose-1="0 0 0 0 0 0 0 0 0 0"
    ascent="800"
    descent="-200"
    x-height="623"
    cap-height="800"
    bbox="-54 -309 1708 1140"
    underline-thickness="50"
    underline-position="-100"
    unicode-range="U+000D-F6C3"
  />
<missing-glyph horiz-adv-x="362" 
 />
    <glyph glyph-name="l_d" unicode="LD" horiz-adv-x="1042" 
d="M52 1v19q29 0 44.5 17t15.5 55v618q0 33 -14 52.5t-37 19.5h-9v19h180v-19q-29 0 -44.5 -17t-15.5 -55v-691q81 13 151.5 6t135.5 -21t127.5 -28.5t128.5 -17.5t137.5 12.5t155.5 62.5l6 -10q-80 -54 -151 -77t-137 -25.5t-130.5 9.5t-131 27.5t-138.5 29t-154 14.5h-120
zM820 761q81 -41 127 -117.5t46 -181.5q0 -76 -21.5 -138t-60.5 -106t-93.5 -68t-121.5 -24h-317v1h-1v16q24 0 37 14t13 46v519q0 44 -25 57q-8 3 -16 3h-8v1h-1v16h269q49 0 92 -10t81 -28zM480 140h214q55 0 100.5 23t78 65.5t50 102t17.5 132.5q0 95 -35 166.5
t-98 112.5q-33 20 -73 31.5t-86 10.5h-168v-644z" />
    <glyph glyph-name="l_o" unicode="LO" horiz-adv-x="1099" 
d="M652 133q-69 9 -121 38.5t-87.5 74.5t-53 101.5t-17.5 119.5q0 67 21 128t63 107t104 73t144 27q15 0 29.5 -1t28.5 -3q69 -9 121 -38.5t87.5 -74t53 -101t17.5 -118.5q0 -68 -21 -129.5t-63 -107.5t-104 -73t-144 -27q-15 0 -29.5 1t-28.5 3zM710 789q-68 0 -120 -26
t-87 -70.5t-52.5 -103t-17.5 -123.5q0 -60 15 -115t44.5 -98t73 -71.5t101.5 -36.5q9 -1 18.5 -1.5t19.5 -0.5q68 0 120 26t86.5 70.5t52 103t17.5 124.5q0 60 -15 114t-44 97t-72.5 72t-101.5 37q-9 1 -18.5 1.5t-19.5 0.5zM1049 23q-84 -56 -157.5 -80t-142.5 -27
t-135 9.5t-135.5 29t-144 31t-159.5 15.5h-120v19q29 0 44.5 17t15.5 55v618q0 33 -13.5 53t-36.5 20h-10v18h180v-18q-29 0 -44 -17.5t-15 -55.5v-691q84 12 157 4t140 -22.5t131.5 -30t133 -17.5t143 14.5t161.5 66.5z" />
    <glyph glyph-name="l_u" unicode="LU" horiz-adv-x="1090" 
d="M434 722q0 24 -13 42t-29 18h-8v16h3v1h150v-16h-3v-1h-8q-5 0 -7 -1q-12 -5 -21 -19.5t-10 -34.5v-360q0 -44 16 -83t46.5 -69t74 -47.5t98.5 -17.5q60 0 105 18t75.5 46.5t45.5 64.5t15 72l1 367q-2 26 -16.5 45t-33.5 19h-9v16h3v1h130v-16h-3v-1h-8q-6 0 -8 -1
q-15 -6 -26 -25t-11 -42v-367q0 -46 -20 -85.5t-55.5 -68.5t-85 -45.5t-109.5 -16.5q-65 0 -117 19.5t-88 53.5t-55 78t-19 94v346zM1048 22q-84 -56 -157.5 -80t-142.5 -27t-135.5 9.5t-135.5 29t-144 31t-160 16.5h-119v18q29 0 44.5 17.5t15.5 55.5v618q0 33 -14 52.5
t-37 19.5h-9v19h180v-19q-29 0 -44.5 -17t-15.5 -55v-692q85 12 158 4.5t140 -22.5t131.5 -30t133 -17.5t143 14.5t161.5 66z" />
    <glyph glyph-name="l_l" unicode="LL" horiz-adv-x="1008" 
d="M969 21q-95 -51 -166.5 -73.5t-131 -25t-111.5 8.5t-109 25.5t-124 28t-155 15.5h-116v19q29 0 44 17t15 55v618q0 33 -13.5 52.5t-36.5 19.5h-9v19h179v-19q-29 0 -44 -17t-15 -55v-691q83 13 145.5 6.5t116 -19.5t104.5 -27t111 -16.5t134.5 12.5t175.5 59zM376 168v19
q29 0 44 17t15 55v450q0 33 -13.5 52.5t-36.5 19.5h-9v19h180v-19q-29 0 -44.5 -17t-15.5 -55v-522q45 11 77.5 8.5t60.5 -10.5t56 -17.5t64.5 -11.5t86.5 7t122 38l6 -12q-66 -35 -114 -51t-85.5 -18.5t-68.5 4.5t-61.5 17t-64.5 18t-79 9h-120z" />
    <glyph glyph-name="l_i" unicode="LI" horiz-adv-x="804" 
d="M762 127q-7 -30 -12 -56q-5 -22 -9 -43t-6 -29h-681v19q29 0 44 17t15 55v618q0 33 -13.5 52.5t-36.5 19.5h-9v19h180v-19q-29 0 -44.5 -17t-15.5 -55v-694h399q11 0 32 3.5t45 16t47 36t39 63.5l10 -2l8 -2zM570 784q-24 0 -36.5 -13.5t-12.5 -45.5v-499q0 -27 11 -43
t30 -16h8v-16h-153v16q24 0 36.5 13.5t12.5 45.5v499q0 27 -11 43t-30 16h-8v16h153v-16z" />
    <glyph glyph-name="k_u" unicode="KO" horiz-adv-x="1469" 
d="M762 780v16h149v-1h5v-15h-8q-16 0 -28 -16.5t-14 -39.5l1 -361q0 -43 16 -82t45.5 -68.5t72 -47.5t96.5 -18q57 0 102.5 16.5t77 44.5t48.5 64.5t17 76.5l1 367q-2 26 -16.5 44.5t-33.5 19.5h-5h-4v16h130v-1h4v-15h-9q-18 0 -33 -21t-15 -48v-367q0 -43 -18 -82
t-52.5 -68.5t-84 -47t-112.5 -17.5h-3h-1q-65 0 -117 19.5t-88 53.5t-55 78t-19 94v346q0 23 -12 41t-29 19h-4h-4zM1422 15q-138 -78 -264 -101.5t-244.5 2.5t-233.5 98t-232 185q-32 30 -64.5 64t-67 63t-70 48t-72.5 21v-305q0 -33 14 -52.5t37 -19.5h9v-19h-180v19
q29 0 44.5 17t15.5 55v618q0 33 -13.5 52.5t-36.5 19.5h-10v19h180v-19q-29 0 -44.5 -17t-15.5 -55v-279l347 297q27 26 35.5 40t-4.5 14h-6v19h120v-19q-60 0 -142 -72h-1l-348 -300q15 0 29.5 -2.5t31.5 -7.5q-3 1 12.5 -3.5t48 -21t80 -48t109.5 -83.5q46 -39 92.5 -81.5
t96.5 -81.5t104 -71.5t115 -53t131 -26t152 11.5q51 9 113.5 32t132.5 63l9 -14z" />
    <glyph glyph-name="k_i" unicode="KI" horiz-adv-x="1137" 
d="M576 35q-60 59 -109 122t-95 115.5t-92.5 87.5t-103.5 37v-305q0 -33 13.5 -53t36.5 -20h9v-18h-180v18q29 0 44.5 17.5t15.5 55.5v618q0 33 -13.5 52.5t-36.5 19.5h-10v19h180v-19q-29 0 -44 -17t-15 -55v-279l346 297q27 26 35.5 40t-4.5 14h-6v19h120v-19
q-58 0 -142 -72h-1l-348 -300h2h4q35 -2 66 -9t64 -24q51 -25 93.5 -64t80.5 -83.5t73.5 -90.5t72.5 -85.5t78 -68.5t89.5 -40t107 0t130.5 53l30 18t29 20l9 -13q-62 -46 -125.5 -77.5t-138.5 -34.5q-41 -2 -76.5 7t-67.5 25.5t-62 40t-59 51.5zM998 784q-24 0 -36.5 -13.5
t-12.5 -45.5v-499q0 -27 11 -43t30 -16h8v-16h-153v16q24 0 36.5 13.5t12.5 45.5v499q0 27 -11 43t-30 16h-8v16h153v-16z" />
    <glyph glyph-name="r_i" unicode="RI" horiz-adv-x="1190" 
d="M1153 9q-32 -22 -65 -41t-67.5 -32.5t-71 -19.5t-75.5 -2q-61 8 -108.5 34t-85 60.5t-68 73.5t-57 73t-52.5 59.5t-54 32.5q-12 3 -32 4.5t-46 1.5h-196v-162q0 -33 14.5 -53t37.5 -20h9v-18h-184v18h9q24 0 38 20t14 53v618q0 32 -14 52t-38 20h-9v19h367q58 0 106 -20
t82 -56t53 -87t19 -112q0 -48 -14.5 -90t-41 -75t-64.5 -57t-85 -37q45 -12 85.5 -46.5t78 -77t74.5 -85.5t76 -71q42 -30 87 -39t90 -1.5t90 28t89 49.5zM371 268q54 0 98.5 18.5t76.5 52.5t49.5 81.5t17.5 104.5q0 58 -14 105.5t-39.5 82t-61.5 53.5t-79 19h-244v-517h196
zM1030 784q-24 0 -36.5 -13.5t-12.5 -45.5v-499q0 -27 11 -43t30 -16h8v-16h-153v16q24 0 36.5 13.5t12.5 45.5v499q0 27 -11 43t-30 16h-8v16h153v-16z" />
    <glyph glyph-name="r_e" unicode="RE" horiz-adv-x="1397" 
d="M807 166q23 0 36 14t13 46v483q0 27 -11.5 43t-30.5 16h-7v15h483q0 -23 1.5 -50t2.5 -50h-9t-4 1l-6 12q-17 34 -52 54.5t-77 20.5h-233v-249h206q36 0 62 11.5t33 30.5l4 7h13v-117h-13l-4 9q-8 21 -34 34t-61 13h-206v-346h240q42 0 80 20t61 54l9 13q0 1 4 1h9
q-5 -22 -9.5 -47.5t-9.5 -47.5l-2 -6h-488v15zM1017 -94q-68 0 -127 19t-110.5 49.5t-95 67t-80.5 72t-68 65.5t-56 46q-33 21 -56.5 24t-40.5 3h-57h-150v-162q0 -32 14 -52.5t38 -20.5h9v-18h-185v18h10q23 0 37 20.5t14 52.5v618q0 32 -14 52t-37 20h-10v19h368
q58 0 106 -20t82 -56t52.5 -87t18.5 -112q0 -51 -15.5 -94t-44.5 -77t-70 -57.5t-91 -34.5q26 -6 52.5 -18t49.5 -26q40 -25 76 -55.5t70 -61.5t69 -61t74 -53t84.5 -37t100.5 -14q81 0 161 30.5t158 80.5l9 -14q-35 -23 -75 -45.5t-84 -40.5t-91 -29t-95 -11zM372 267
q54 0 98.5 18.5t76 52.5t49 81.5t17.5 104.5q0 58 -14 105.5t-39.5 81.5t-61 53t-78.5 19h-244v-516h196z" />
    <glyph glyph-name="r_o" unicode="RO" horiz-adv-x="1507" 
d="M1065 132q-69 9 -121 38.5t-87 74.5t-52.5 101.5t-17.5 118.5q0 68 21 129t63 107t104 73t144 27q15 0 29 -1t28 -3q69 -9 121 -38.5t87.5 -74t53 -101t17.5 -118.5q0 -68 -21 -129.5t-63 -107.5t-104 -73t-144 -27q-15 0 -29.5 1t-28.5 3zM1123 788q-68 0 -120 -26
t-86.5 -70.5t-52 -103t-17.5 -123.5q0 -60 15 -115t44 -98t73 -71.5t102 -36.5q18 -3 38 -3q68 0 119.5 26t86 70.5t52 103t17.5 124.5q0 60 -15 114.5t-44 97.5t-72.5 72t-101.5 37q-9 1 -18.5 1.5t-19.5 0.5zM887 0q70 -41 141.5 -55t142 -6t140.5 36.5t139 72.5l9 -14
q-77 -51 -146 -79.5t-132.5 -39t-122.5 -5t-116 23.5q-66 20 -122 50t-103.5 63.5t-88 67.5t-76.5 64q-34 28 -59 43.5t-45 22.5t-37.5 8t-37.5 1h-195v-163q0 -32 14 -52t37 -20h10v-19h-185v19h10q23 0 37 20t14 52v618q0 33 -14 53t-37 20h-10v18h367q58 0 106 -20
t82 -56t53 -86.5t19 -111.5q0 -51 -15.5 -94t-44.5 -77t-70 -57.5t-92 -34.5q58 -12 112.5 -43.5t107.5 -70.5t105 -79.5t103 -69.5zM373 269q54 0 98.5 18.5t76.5 52.5t49.5 81.5t17.5 104.5q0 58 -14 105.5t-39.5 81.5t-61.5 53t-79 19h-243v-516h195z" />
    <glyph glyph-name="r_u" unicode="RU" horiz-adv-x="1466" 
d="M1421 781h-11q-6 0 -8 -1q-15 -6 -26 -25t-11 -42v-367q0 -46 -20 -85.5t-55.5 -68.5t-85 -45.5t-109.5 -16.5q-65 0 -117 19.5t-88 53.5t-55 78.5t-19 94.5v345q0 24 -12.5 42t-29.5 18h-8v16v1h153v-16v-1h-11q-13 0 -24.5 -15.5t-13.5 -38.5v-361q0 -44 16 -83
t46.5 -69t74 -47.5t98.5 -17.5q60 0 105.5 18t75.5 46.5t45 64.5t15 72l1 367q-2 26 -16.5 45t-33.5 19h-9v16v1h133v-16v-1zM866 -2q68 -41 136.5 -54t137.5 -4.5t137 37t134 70.5l9 -14q-54 -36 -110 -63.5t-114 -43.5t-118 -18t-123 13q-90 23 -160 64.5t-125.5 87
t-99.5 87t-82 64.5q-21 13 -37.5 19.5t-45.5 8.5t-81.5 1.5t-145.5 -0.5v-162q0 -32 14 -52.5t38 -20.5h9v-18h-185v18h10q23 0 37.5 20.5t14.5 52.5v618q0 32 -14.5 52t-37.5 20h-10v19h368q58 0 106 -20t82 -56t52.5 -87t18.5 -112q0 -51 -15.5 -94t-44.5 -77t-70 -57.5
t-91 -34.5q57 -12 109.5 -44t102 -71t97.5 -79.5t97 -69.5zM374 268q54 0 98.5 18.5t76 52.5t49 81.5t17.5 104.5q0 58 -14 105.5t-39.5 82t-61 53.5t-78.5 19h-244v-517h196z" />
    <glyph glyph-name="t_t" unicode="TT" horiz-adv-x="1202" 
d="M1144 793q1 0 3.5 -18.5t5.5 -41.5t5 -43t3 -24h-19l-15 29q-23 41 -62 65.5t-80 24.5h-164v-693q0 -34 13.5 -53.5t36.5 -19.5h9v-18h-181v18q29 0 44.5 17.5t15.5 55.5v693h-319v-693q0 -38 15.5 -55.5t44.5 -17.5v-18h-181v18h9q23 0 37 19.5t14 53.5v693h-165
q-41 0 -80 -24.5t-62 -65.5l-15 -29h-18q0 4 2.5 24t5 43t5 41.5t3.5 18.5l1 7h1087l1 -7v0z" />
    <glyph glyph-name="t_i" unicode="TI" horiz-adv-x="930" 
d="M624 552h172v-19q-29 0 -44.5 -17t-15.5 -55v-370q0 -34 13.5 -53.5t36.5 -19.5h10v-18h-172v18q29 0 44 17.5t15 55.5v370q0 33 -13.5 52.5t-36.5 19.5h-9v19zM870 793q1 0 3.5 -18.5t5 -41.5t5 -43.5t3.5 -24.5h-19l-15 30q-23 40 -62 65t-80 25h-268v-694
q0 -34 13.5 -53.5t36.5 -19.5h9v-18h-181v18q29 0 44.5 17.5t15.5 55.5v694h-165q-41 0 -79.5 -25t-61.5 -65l-15 -30h-19q0 4 2.5 24.5t5 43.5t5 41.5t3.5 18.5l1 7h811z" />
    <glyph glyph-name="o_g" unicode="OG" horiz-adv-x="1333" 
d="M1117 379h173v-19q-29 0 -44 -17.5t-15 -55.5v-218q-28 -16 -65 -29.5t-78.5 -23t-86.5 -14.5t-88 -5q-135 0 -233 64q-46 -31 -103.5 -47.5t-127.5 -16.5q-99 0 -173.5 32.5t-124.5 88t-75.5 129t-25.5 156.5q0 82 25.5 155.5t75.5 129t124.5 88t173.5 32.5
q70 0 127.5 -16.5t103.5 -47.5q98 64 233 64q42 0 85 -5t84 -14.5t77.5 -23t65.5 -29.5l5 -113h-20q-4 7 -8 16t-7 16q-23 49 -69 83.5t-99 45.5q-57 9 -114 9q-60 0 -111.5 -18t-93.5 -51q69 -57 104 -140.5t35 -180.5t-35 -181t-104 -141q42 -33 93.5 -51t111.5 -18
q69 0 138.5 13t124.5 36v226q0 34 -13.5 53.5t-36.5 19.5h-9v19zM1222 729q-1 2 0.5 3t2.5 3zM449 12q62 0 112.5 18.5t89.5 51.5q-67 54 -104 135.5t-37 185.5t37 185.5t104 135.5q-39 32 -89.5 50.5t-112.5 18.5q-82 0 -144 -31.5t-104 -85t-63 -124t-21 -149.5t21 -150
t63 -124.5t104 -85t144 -31.5zM679 109q50 54 75 130t25 164q0 87 -25 163t-75 130q-49 -51 -75.5 -125.5t-26.5 -167.5q0 -94 26.5 -168.5t75.5 -125.5z" />
    <glyph glyph-name="c_o" unicode="CO" horiz-adv-x="818" 
d="M759 623q-3 8 -7 17t-8 16q-12 24 -30 45.5t-41 38.5t-49 28.5t-54 15.5q0 1 -17 3t-38.5 3.5t-40.5 2.5t-22 1q-78 0 -142.5 -28t-110.5 -79.5t-71 -123.5t-25 -159q0 -88 25 -160.5t71 -124t110.5 -79.5t142.5 -28q20 0 39.5 1.5t39.5 3.5q36 4 69 15.5t61 29t49.5 40
t33.5 48.5q4 7 8 16.5t7 16.5h20l-5 -113q-28 -17 -65.5 -30t-79.5 -23t-87.5 -15t-89.5 -5q-94 0 -170.5 29t-131 82.5t-84 128.5t-29.5 167q0 91 29.5 165.5t84 128t131 82.5t170.5 29q44 0 89.5 -5t87.5 -14.5t79.5 -23t65.5 -29.5l5 -114h-20zM476 639q68 1 112.5 -23
t71 -59.5t37 -77t10.5 -75.5q0 -35 -10.5 -76.5t-37 -77.5t-71 -59.5t-112.5 -22.5q-68 -1 -113 22.5t-71 59.5t-36.5 77.5t-10.5 76.5q0 34 10.5 75.5t37 77t71 59.5t112.5 23zM476 180q44 0 77 17t54.5 47t32.5 71t11 89q0 103 -45.5 162.5t-129.5 59.5t-129.5 -59.5
t-45.5 -162.5t43.5 -163.5t131.5 -60.5z" />
    <glyph glyph-name="d_o" unicode="DO" horiz-adv-x="1313" 
d="M870 805q99 0 173.5 -32.5t124.5 -88t75 -129t25 -155.5q0 -83 -25 -156.5t-75 -129.5t-124.5 -88.5t-173.5 -32.5q-73 0 -132 18t-106 51q-84 -61 -202 -61h-377v18q29 0 44.5 17.5t15.5 55.5v617q0 34 -13.5 53.5t-36.5 19.5h-10v19h321q74 0 136 -18.5t113 -52.5
q48 35 109.5 55t137.5 20zM430 16q102 0 176 66q-67 57 -100.5 139.5t-33.5 178.5q0 91 31 171.5t94 137.5q-45 37 -101 56.5t-122 19.5h-200v-769h256zM538 400q0 -85 24 -160t72 -129q43 51 66 124.5t23 165.5q0 87 -25 157t-71 121q-45 -54 -67 -126t-22 -153zM870 8
q82 0 143.5 31.5t103 85t62.5 124.5t21 151q0 79 -21 149.5t-62.5 124t-103 85t-143.5 31.5q-69 0 -122.5 -22t-94.5 -61q63 -53 97 -130.5t34 -175.5q0 -103 -32.5 -183.5t-91.5 -133.5q40 -35 92 -55.5t118 -20.5z" />
    <glyph glyph-name="o_o" unicode="OO" horiz-adv-x="1383" 
d="M931 809q99 0 173.5 -32.5t124.5 -88t75.5 -129.5t25.5 -156t-25.5 -156t-75.5 -129.5t-124.5 -88t-173.5 -32.5q-72 0 -131.5 18t-106.5 50q-47 -32 -106 -50t-132 -18q-99 0 -173.5 32.5t-124.5 88t-75 129.5t-25 156t25 156t75 129.5t124.5 88t173.5 32.5
q73 0 132 -18t106 -50q47 32 106.5 50t131.5 18zM455 12q66 0 118 20t92 56q-66 57 -99 139t-33 176t33 176t99 139q-40 35 -92 55t-118 20q-82 0 -144 -31.5t-103.5 -84.5t-62.5 -124t-21 -150t21 -150t62.5 -124.5t103.5 -85t144 -31.5zM693 117q47 54 70 128t23 158
t-23 158t-70 128q-47 -54 -70 -128t-23 -158t23 -158t70 -128zM931 12q82 0 144 31.5t103.5 85t62.5 124.5t21 150t-21 150t-62.5 124t-103.5 84.5t-144 31.5q-65 0 -117 -20t-92 -55q66 -57 98.5 -139t32.5 -176t-32.5 -176t-98.5 -139q40 -36 92 -56t117 -20z" />
    <glyph glyph-name="o_c" unicode="OC" horiz-adv-x="1319" 
d="M1234 656q-21 43 -52.5 70t-70.5 42t-82.5 20.5t-86.5 5.5q-68 0 -124.5 -21t-101.5 -60q63 -57 95 -137.5t32 -173.5q0 -92 -31 -172.5t-94 -137.5q44 -38 100.5 -58.5t123.5 -20.5q40 0 83 6t82.5 21.5t73 42t53.5 68.5q3 7 7 16t8 16h20l-5 -113q-29 -16 -66 -29.5
t-79 -23t-87.5 -14.5t-89.5 -5q-75 0 -138.5 18t-114.5 53q-47 -35 -108 -54t-136 -19q-99 0 -173.5 32.5t-124.5 88t-75 129.5t-25 156t25 156t75 129.5t124.5 88t173.5 32.5q75 0 135 -19t107 -52q51 35 115.5 53.5t139.5 18.5q44 0 89.5 -5t87.5 -14.5t79 -23t66 -29.5
l5 -113h-20q-4 7 -8 16t-7 16zM445 11q67 0 120.5 21.5t93.5 59.5q-63 54 -98 133t-35 179q0 99 34.5 177.5t97.5 132.5q-41 37 -94 58t-119 21q-82 0 -144 -31.5t-104 -85t-63 -124.5t-21 -150t21 -150t63 -124.5t104 -85t144 -31.5zM775 402q0 82 -22 155t-67 127
q-45 -52 -69 -122.5t-24 -157.5q0 -88 24.5 -159.5t69.5 -122.5q45 54 66.5 126.5t21.5 153.5z" />
    <glyph glyph-name="l_a" unicode="LA" horiz-adv-x="1162" 
d="M550 15q11 0 32 3.5t45 15.5t47 35.5t39 64.5l10 -2l8 -2l8 -2q-7 -30 -12 -56q-5 -22 -9 -43t-6 -29h-657v18q29 0 44 17.5t15 55.5v617q0 34 -13.5 53.5t-36.5 19.5h-9v18h179v-18q-29 0 -44 -17.5t-15 -55.5v-693h375zM1041 89q15 -33 35 -52t47 -19v-19h-189v19h12
q28 0 38 20t-4 52q-3 6 -12.5 28.5t-20 48t-20 47.5t-12.5 28q-50 2 -94 16.5t-86 31.5q-24 10 -48.5 19t-49 14.5t-49 5.5t-49.5 -8q-1 -3 -5.5 -14.5t-10 -24.5t-10.5 -25.5l-7 -17.5l-10 -26q-16 -39 -4 -64t43 -25h12v-18h-160v18q28 0 47 16t34 50l249 610h19zM741 305
q40 -16 81 -29.5t86 -16.5l-202 469l-159 -388q49 12 96.5 -1.5t97.5 -33.5z" />
    <glyph glyph-name="i_d" unicode="id" horiz-adv-x="960" 
d="M864 129q0 -25 3 -41.5t9.5 -28.5t18 -21.5t29.5 -20.5v-14h-114v67q-38 -33 -100.5 -53t-131.5 -20q-57 0 -108.5 22.5t-90 62.5t-61 94.5t-22.5 118.5q0 77 24 137.5t65 102t96.5 63t117.5 21.5q69 0 125 -24t86 -60v118q0 80 -16.5 140t-43.5 102.5t-62.5 70t-74.5 44
t-78 22.5t-73 6q-50 0 -99.5 -11.5t-93.5 -33.5t-80 -54t-59 -72q-16 -27 -12 -57.5t27 -51.5q8 -7 10.5 -18t-0.5 -21t-12 -17t-23 -7q-23 0 -30.5 17.5t-6.5 39.5q1 25 9 57q16 60 54.5 106.5t91.5 79t115.5 49.5t125.5 17q73 0 142.5 -20t123.5 -67.5t86.5 -126
t32.5 -196.5v-522zM810 509q-12 20 -33 37.5t-49 30t-61 20t-70 7.5q-50 0 -94 -19t-77.5 -55.5t-53 -90.5t-19.5 -123q0 -61 20.5 -113t55 -90.5t81 -60t97.5 -21.5q69 0 123.5 12.5t79.5 33.5v432zM150 92q0 -33 13.5 -52.5t36.5 -19.5h10v-19h-174v19q29 0 44.5 17
t15.5 55v394q0 25 -3 41.5t-10 28.5t-18.5 21.5t-28.5 20.5v14h114v-520z" />
    <glyph glyph-name="c_a" unicode="ca" horiz-adv-x="1342" 
d="M1312 45q-21 -21 -46 -33.5t-59 -12.5q-27 0 -41 13t-19 33.5t-5 46v50.5q-10 -25 -32.5 -48.5t-53.5 -42t-69.5 -30t-79.5 -11.5q-29 0 -58.5 9.5t-53.5 28.5t-39 48t-15 67q0 48 28.5 79.5t72 53.5t94.5 38.5t95.5 34t75.5 39.5t35 56q0 16 -3.5 41.5t-17 49.5t-41 41
t-76.5 18q-75 1 -127.5 -25t-91 -69t-66.5 -98.5t-54 -113t-54 -113t-66 -99t-90.5 -70t-126.5 -26.5q-59 0 -109.5 21t-88.5 59.5t-59.5 92.5t-21.5 120q0 75 22.5 135.5t63.5 104t99 67t129 23.5q44 0 82.5 -11t67.5 -30.5t46.5 -45t20.5 -53.5q0 -24 -24 -24q-11 0 -19 7
t-9 21q-2 24 -17.5 46t-39 38.5t-53.5 26.5t-62 10q-56 0 -102 -21t-78.5 -59t-50.5 -92t-18 -120q0 -64 12.5 -117.5t42 -92.5t78 -60.5t119.5 -21.5q63 0 107.5 26t78 68.5t59.5 97t52 111t55.5 110.5t69 96.5t93.5 68t129 25.5q52 0 89 -14.5t61 -38t35.5 -54t11.5 -62.5
v-365q0 -31 9 -49t36 -18q20 0 33.5 7t27.5 20zM1142 427q-16 -25 -46.5 -42.5t-66.5 -32.5t-74.5 -29.5t-71 -33.5t-55.5 -45.5t-29 -65.5q-5 -33 4.5 -59t28.5 -44t46 -27.5t57 -9.5q33 0 67.5 10t63.5 28.5t50 45.5t26 60v245z" />
    <glyph glyph-name="c_h" unicode="ch" horiz-adv-x="1327" 
d="M1291 25v-18h-173v18q29 0 44 17t15 55v310q0 102 -47 151.5t-128 49.5q-61 0 -117.5 -30t-99.5 -74v-407q0 -33 13.5 -52.5t36.5 -19.5h9v-18h-173v18q29 0 44 17t15 55v207q-82 -156 -177 -229.5t-215 -73.5q-69 0 -121.5 26t-87.5 68t-53 96.5t-18 111.5
q0 60 19.5 117.5t58.5 102.5t98 72.5t138 27.5q44 0 82.5 -11t68 -30t47 -44t20.5 -53q0 -24 -25 -24t-28 28q-2 24 -17 45.5t-39 38t-54 26t-61 9.5q-48 0 -93 -16.5t-80 -52.5t-56 -94t-21 -142q0 -44 9.5 -93.5t37 -90.5t77 -68t129.5 -27q106 0 195 79.5t166 232.5v399
q0 25 -3 41.5t-9.5 28.5t-18 21.5t-28.5 20.5v13h114v-267v37v-107q14 13 36 30.5t50.5 33t63.5 26t75 10.5q45 0 85.5 -11.5t71 -36.5t48 -65t17.5 -97v-316q0 -33 13.5 -52.5t36.5 -19.5h9z" />
    <glyph glyph-name="b_l" unicode="bl" horiz-adv-x="951" 
d="M921 20v-19h-173v19q29 0 44 17t15 55v631q0 96 -21.5 162t-54.5 109t-72.5 66.5t-76 35t-64.5 13.5t-37 2q-89 0 -148 -28t-96 -69.5t-55.5 -91t-26 -92t-7.5 -72v-31.5v-163q49 26 110 41.5t115 15.5q62 0 112.5 -22t86 -63t55 -99t19.5 -129q0 -70 -21.5 -127.5
t-60.5 -98t-94.5 -62.5t-123.5 -22q-29 0 -56 5.5t-53 12t-50.5 12t-48.5 5.5q-29 0 -39 -29h-6v723q0 75 16.5 132t43.5 99.5t61 71t70.5 47t71.5 28.5t62.5 15t45 5.5t19.5 0.5q35 0 77 -7t84 -24.5t81.5 -47t70 -74t48.5 -106.5t18 -144v-631q0 -33 13.5 -52.5
t36.5 -19.5h9zM329 596q-23 0 -47.5 -3t-48.5 -8t-45.5 -12.5t-39.5 -16.5v-391q0 -69 54 -110t144 -41q55 0 99.5 19.5t76 54.5t49 85t17.5 111q0 71 -18.5 128.5t-52.5 98.5t-82 63t-106 22z" />
    <glyph glyph-name="c_r" unicode="cr" horiz-adv-x="1108" 
d="M771 528q29 34 62.5 56t67 34t64.5 16t56 4t41.5 -2.5t19.5 -4.5v-68q-23 18 -62.5 26t-84 3t-88.5 -24t-76 -55v-417q0 -33 13.5 -52.5t36.5 -19.5h10v-19h-174v19q29 0 44.5 17t15.5 55v202q-82 -153 -177 -225.5t-213 -72.5q-69 0 -121 26t-87.5 69t-53.5 98.5
t-18 113.5q0 59 19 115.5t58 101t98 71.5t139 27q44 0 82.5 -11t67.5 -30t46.5 -44t20.5 -53q0 -24 -24 -24q-11 0 -19 7t-9 20q-2 24 -17.5 46t-39 38.5t-53.5 26t-62 9.5q-8 0 -29.5 -2t-49 -10.5t-57.5 -26.5t-55 -51t-41 -83.5t-16 -122.5q0 -63 12.5 -116t42 -91
t77.5 -59.5t120 -21.5q105 0 193 78t166 228v166q0 25 -3 41.5t-10 28.5t-18.5 21.5t-28.5 20.5v14h114v-93v0z" />
    <glyph glyph-name="k_l" unicode="kl" horiz-adv-x="948" 
d="M917 18v-18h-173v18q29 0 44 17t15 55v621q0 114 -29.5 190.5t-76.5 122.5t-105 65.5t-115 19.5q-89 0 -148.5 -28t-96.5 -69.5t-55.5 -91t-26 -92t-7.5 -72v-32.5v-471l293 290q19 20 27 33t9.5 21t-2.5 11t-10 3h-6v18h119v-18q-30 0 -62 -22.5t-74 -64.5l-112 -111
l191 -323q5 -8 13.5 -20t21 -23.5t30 -20t39.5 -8.5v-18h-166v18q20 0 22 16.5t-10 37.5l-176 307l-147 -145v-144q0 -33 14 -52.5t37 -19.5h9v-18h-174v18q29 0 44.5 17t15.5 55v633q0 89 22.5 154t58.5 109.5t80 71.5t87.5 41.5t81 19.5t59.5 5q9 0 41 -2t74.5 -13.5
t89 -36.5t85.5 -71t64.5 -116.5t25.5 -173.5v-621q0 -33 13.5 -52.5t36.5 -19.5h9z" />
    <glyph glyph-name="t_h" unicode="th" horiz-adv-x="1114" 
d="M1081 16v-18h-173v18q29 0 44 17t15 55v310q0 102 -47 151.5t-128 49.5q-43 0 -77.5 -10t-61.5 -27t-47.5 -39.5t-35.5 -47.5v-385q0 -33 13.5 -52.5t36.5 -19.5h9v-18h-173v18q29 0 44 17t15 55v179q-8 -29 -18.5 -57t-23.5 -54q-34 -72 -80 -112q-8 -7 -20 -15.5
t-27 -15.5t-33.5 -12t-39.5 -5q-35 0 -67 11t-56.5 32t-39 53t-14.5 74v408h-80v14q28 0 50.5 10.5t38 27.5t23.5 38t8 41h15v-116h198v-15h-198v-432q0 -27 10 -50.5t27.5 -41.5t40.5 -28t50 -10q57 1 105 42q42 36 77 108q17 36 30 76t24 82v404q0 25 -3 41.5t-9.5 28.5
t-18 21.5t-28.5 20.5v14h114v-357q12 18 31.5 39t47.5 39t65 29.5t85 11.5q46 0 86.5 -11.5t71 -36.5t48 -65t17.5 -97v-316q0 -33 13.5 -52.5t36.5 -19.5h9z" />
    <glyph glyph-name="l_d2" unicode="ld" horiz-adv-x="948" 
d="M858 125q0 -25 3 -41.5t9.5 -28.5t18 -21.5t29.5 -20.5v-14h-114v67q-38 -33 -100.5 -52.5t-131.5 -19.5q-57 0 -108.5 22.5t-90 62.5t-61 94.5t-22.5 118.5q0 77 24 137.5t65 102t96.5 63t117.5 21.5q69 0 125 -24t86 -61v198q0 114 -29.5 190t-76.5 121.5t-105 64.5
t-115 19q-89 0 -148.5 -28t-96.5 -70t-55 -91t-25.5 -92t-7.5 -72.5v-31.5v-649q0 -33 13.5 -52.5t36.5 -19.5h9v-19h-173v19q29 0 44 17t15 55v650q0 100 28.5 169t71 113.5t92.5 68.5t93 35t73 12.5t32 1.5q9 0 40.5 -2t73.5 -13.5t88.5 -36.5t85.5 -71t64.5 -116.5
t25.5 -172.5v-603zM804 505q-24 41 -81.5 68.5t-131.5 27.5q-50 0 -94 -19t-77.5 -55.5t-53 -90.5t-19.5 -123q0 -61 20.5 -113.5t55 -90.5t81 -60t97.5 -22q69 0 123.5 13t79.5 33v432z" />
    <glyph glyph-name="e_a" unicode="ea" horiz-adv-x="1324" 
d="M1311 48q-21 -21 -45.5 -34t-58.5 -13q-23 0 -36 9t-20 23.5t-8.5 33.5t-1.5 39v36q-10 -25 -32 -50t-53.5 -45.5t-69.5 -33t-80 -12.5q-29 0 -58 9.5t-53 28.5t-39 47.5t-15 66.5q0 48 28.5 80t72 55.5t94 41t95 36t75.5 41.5t35 57q0 15 -3 40.5t-17 49.5t-43.5 41.5
t-83.5 17.5q-74 0 -126 -26t-91 -69t-67.5 -98t-55 -112t-55 -112t-66.5 -98t-90 -69t-125 -26q-58 0 -109 21t-88.5 59t-59.5 92.5t-22 120.5q0 81 23 143t63 103t93 62t115 21q48 0 89.5 -14t72 -40.5t48 -63t17.5 -81.5h-451q-3 -13 -8 -47.5t-4 -78.5t11 -92.5t38 -88.5
t77 -66t127 -26q62 0 106.5 26t78 68t60.5 96t53 110t56 110t69.5 96t93 68t127.5 26q50 0 84.5 -10.5t57 -27t35.5 -36.5t19.5 -39t8 -34t1.5 -22v-362q0 -31 9 -49.5t36 -18.5q19 0 33 7.5t27 20.5zM329 610q-77 0 -136 -46t-81 -127l377 9q7 0 11.5 3.5t6 8t2 9t0.5 5.5
q0 31 -14 56.5t-38.5 43.5t-57.5 28t-70 10zM1142 427q-17 -26 -49 -45t-70.5 -35.5t-78.5 -33t-72.5 -39t-53.5 -53t-21 -74.5q0 -28 11 -50t30 -37t44 -23t52 -8q33 0 67.5 11.5t64 31.5t50 48.5t25.5 61.5v128.5v66.5t0.5 25l0.5 4v21z" />
    <glyph glyph-name="i_g" unicode="ig" horiz-adv-x="900" 
d="M329 222q0 -31 23 -48t60.5 -26t85.5 -12.5t98.5 -8t98.5 -13t85.5 -26.5t60.5 -49t23 -80q0 -56 -29.5 -99.5t-80.5 -73t-119.5 -45t-146.5 -15.5q-90 0 -154.5 18t-108 48.5t-69.5 71.5t-40 86.5t-18 93t-4 92.5v366q0 25 -3 41.5t-9.5 28.5t-18 21.5t-28.5 20.5v13
h114v-246v-158.5v-90t-0.5 -40t-0.5 -8.5v4.5t0 -1.5v-26q0 -34 4 -70.5t17 -71.5t36.5 -66.5t62 -55.5t94 -38t132.5 -14q68 0 130 14t109.5 39.5t76 60t28.5 75.5q0 44 -23.5 71t-62 42.5t-88 22.5t-101 11t-101 9t-88 16t-62 31t-23.5 56q0 37 19.5 61.5t64.5 34.5
q-26 21 -40 45.5t-21 47t-8.5 39.5t-1.5 24q0 47 18 85t50.5 65t78.5 42t103 15q24 0 49 -3t49 -10q23 33 53 51t65 18q29 0 41.5 -7t12.5 -20q0 -5 -5 -16.5t-22 -11.5q-8 0 -19 4t-31 4q-43 0 -74 -29q27 -11 51.5 -27t42.5 -39t28.5 -53t10.5 -68q0 -48 -18 -86.5
t-51 -65.5t-79.5 -42t-103.5 -15q-59 0 -99.5 12.5t-68.5 32.5q-26 -5 -40.5 -19t-14.5 -40zM349 445q0 -47 15.5 -83.5t42.5 -61.5t64 -38t81 -13t81.5 13t64.5 38t42.5 61.5t15.5 83.5q0 46 -15.5 82t-42.5 61t-64.5 38t-81.5 13t-81 -13t-64 -38t-42.5 -61t-15.5 -82z
M119 691q-14 0 -25.5 9t-11.5 27t11.5 27t25.5 9t25 -9t11 -27t-11 -27t-25 -9z" />
    <glyph glyph-name="e_t" unicode="et" horiz-adv-x="1021" 
d="M1005 78q-26 -35 -58.5 -56.5t-81.5 -21.5q-71 0 -109.5 36t-38.5 120v162q-83 -163 -180 -240.5t-218 -77.5q-70 0 -122.5 26t-87.5 68.5t-52.5 97.5t-17.5 113q0 59 18.5 116t55 101.5t91.5 72t129 27.5q48 0 89.5 -14t72 -40.5t48 -63t17.5 -81.5h-52h-398
q-3 -13 -8 -47.5t-4.5 -78.5t11 -92.5t38 -88.5t76.5 -66t127 -26q108 0 198.5 83t168.5 243v261h-80v15q28 0 50.5 10.5t38 27.5t23.5 38t8 41h15v-116h198v-16h-198v-479q0 -56 25.5 -86t80.5 -30q23 0 41.5 7.5t33 18t25 22.5t18.5 21zM329 607q-77 0 -136 -46t-81 -127
l377 8q8 0 13.5 6.5t6.5 19.5q0 31 -14 57t-38.5 44t-57.5 28t-70 10z" />
    <glyph glyph-name="e_r" unicode="er" horiz-adv-x="1098" 
d="M768 534q43 51 95 74.5t98 30.5t79 3.5t38 -6.5v-67q-23 18 -62 26t-83.5 3t-88.5 -24.5t-76 -55.5v-428q0 -33 13.5 -52.5t36.5 -19.5h9v-18h-173v18q29 0 44 17t15 55v218q-83 -158 -178 -233.5t-216 -75.5q-59 0 -110 22t-88.5 61t-59 94t-21.5 121q0 81 23 142.5
t62.5 102.5t93 62t114.5 21q48 0 89.5 -14t72 -40t48 -62.5t17.5 -81.5h-52h-398q-12 -50 -12 -108q0 -64 12.5 -118t42 -93.5t78 -62t120.5 -22.5q106 0 195 81t167 236v161q0 25 -3 41.5t-9.5 28.5t-18 21.5t-28.5 20.5v13h114v-92zM330 610q-78 0 -136.5 -46t-80.5 -127
l376 9q7 0 11.5 3.5t6 8t2 9t0.5 5.5q0 31 -14 56.5t-38.5 43.5t-57 28t-69.5 10z" />
    <glyph glyph-name="e_n" unicode="en" horiz-adv-x="1314" 
d="M1281 18v-18h-173v18q29 0 44 17t15 55v325q0 102 -47.5 151.5t-127.5 49.5q-62 0 -119.5 -31.5t-100.5 -76.5v-418q0 -33 13.5 -52.5t36.5 -19.5h9v-18h-173v18q29 0 44 17t15 55v228q-83 -161 -179.5 -238t-217.5 -77q-59 0 -109.5 21t-88.5 59t-59.5 92t-21.5 120v1
q0 81 22.5 143t62.5 103t93 62t115 21q48 0 89.5 -14t72 -40.5t48 -63t17.5 -81.5h-52h-398q-12 -50 -12 -108q0 -64 12.5 -117.5t42 -92t78 -60t119.5 -21.5q108 0 198 82.5t168 240.5v150q0 25 -3 41.5t-9.5 28.5t-18 21t-28.5 20v14h114v-97q13 13 34.5 30.5t51 33.5
t65.5 27.5t77 11.5q46 0 86.5 -11.5t70.5 -36.5t47.5 -65t17.5 -97v-331q0 -33 13.5 -52.5t36.5 -19.5h9zM331 610q-78 0 -136.5 -46t-80.5 -127l376 8q7 0 11 4t6 8.5t2.5 8.5t0.5 5q0 31 -14 57t-38.5 44t-57 28t-69.5 10z" />
    <glyph glyph-name="e_m" unicode="em" horiz-adv-x="1738" 
d="M1708 18v-18h-174v18q29 0 44.5 17.5t15.5 55.5v323q0 102 -47.5 151.5t-127.5 49.5q-63 0 -121.5 -32t-101.5 -78q13 -35 13 -85v-329q0 -34 13.5 -53.5t36.5 -19.5h9v-18h-173v18q29 0 44 17.5t15 55.5v323q0 102 -47.5 151.5t-127.5 49.5q-57 0 -110.5 -26.5
t-95.5 -67.5v-430q0 -34 13.5 -53.5t36.5 -19.5h9v-18h-173v18q29 0 44 17.5t15 55.5v227q-83 -162 -179.5 -238.5t-217.5 -76.5q-58 0 -109 21t-88.5 59t-59.5 92.5t-22 120.5q0 81 23 143t62.5 103t93 62t115.5 21q48 0 89.5 -14t72 -40.5t48 -63t17.5 -81.5h-53h-398
q-11 -52 -11 -108q0 -64 12.5 -117.5t42 -92t77.5 -60t120 -21.5q107 0 197 82.5t168 240.5v149q0 25 -3 41.5t-9.5 28.5t-18 21.5t-28.5 20.5v14h114v-85q15 13 36.5 29t49 29.5t60 22.5t69.5 9q67 0 122 -26t81 -85q10 11 31.5 30t52 37t69 31t83.5 13t85.5 -11.5
t70.5 -36.5t47.5 -65t17.5 -97v-329q0 -34 13.5 -53.5t36.5 -19.5h10zM332 610q-77 0 -136 -46t-81 -127l377 8q13 0 16 11t3 15q0 31 -14 57t-38.5 44t-57 28t-69.5 10z" />
    <glyph glyph-name="ff_f" unicode="ff" horiz-adv-x="725" 
d="M582 853q41 0 70.5 -11.5t48.5 -28.5t28 -36.5t11 -35.5q0 -12 -7 -18t-16 -5.5t-16.5 6.5t-8.5 17q-2 13 -7.5 30.5t-18 33t-33 26t-52.5 10.5q-40 0 -63.5 -14t-36 -39.5t-16 -61t-3.5 -78.5v-66h170v-14h-170v-479q0 -32 13.5 -52t36.5 -20h9v-18h-173v18h9
q23 0 36.5 20t13.5 52v479h-225v-479q0 -32 13.5 -52t36.5 -20h9v-18h-173v18h9q23 0 36.5 20t13.5 52v479h-109v14h109q1 29 1.5 61t5.5 62t16 57t31.5 47t53 32t81.5 12q36 0 62 -11.5t43 -27.5l-9 -11q-17 16 -41 27t-56 11q-39 0 -65 -14t-41 -39.5t-21 -61t-6 -78.5
v-66h225q1 29 1 61t3.5 62t13 57t28.5 47t50 32t79 12z" />
    <glyph glyph-name="ff_i" unicode="fi" horiz-adv-x="562" 
d="M532 19v-19h-173v19q29 0 44 17t15 55v394q0 25 -3 41.5t-9.5 28.5t-18 21.5t-28.5 20.5h-173v-506q0 -32 14 -52t37 -20h9v-19h-174v19h10q23 0 36.5 20t13.5 52v506h-110v14h110q0 29 2 70.5t19 80t55.5 65.5t110.5 27q40 0 70 -12t49.5 -30.5t29.5 -40.5t10 -43
q0 -18 -11.5 -27t-25 -9t-25 9t-11.5 27q0 10 4 17q8 17 5.5 35t-16.5 32q-13 14 -32 22t-48 8q-43 0 -69 -17t-40 -45.5t-18.5 -66t-4.5 -78.5v-24h287v-520q0 -33 13.5 -52.5t36.5 -19.5h9z" />
    <glyph glyph-name="ff_l" unicode="fl" horiz-adv-x="557" 
d="M526 19v-19h-173v19q29 0 44 17t15 55v594q0 11 -0.5 37t-10 52.5t-32.5 47t-68 20.5q-48 0 -72.5 -20.5t-35 -56t-11 -82.5t-0.5 -100h170v-14h-170v-478q0 -32 13.5 -52t36.5 -20h10v-19h-174v19h10q23 0 36.5 20t13.5 52v478h-110v14h110v61t4 62t13 57t28.5 47
t50.5 32t79 12q56 0 88.5 -19.5t49.5 -46t21.5 -54.5t4.5 -46v-597q0 -34 13.5 -53t36.5 -19h9z" />
    <glyph glyph-name="ff_t" unicode="ft" horiz-adv-x="703" 
d="M689 77q-26 -34 -58.5 -56t-81.5 -22q-71 0 -109.5 36t-38.5 120v429h-223v-493q0 -32 13.5 -52t36.5 -20h9v-19h-173v19h9q23 0 36.5 20t13.5 52v493h-109v14h109q1 45 2 90.5t15.5 82t50.5 60t107 23.5q41 0 70.5 -11.5t48.5 -28.5t28 -36.5t11 -35.5q0 -12 -7 -18
t-16 -5.5t-17 6.5t-9 17q-1 13 -6.5 30.5t-18 33t-33 26t-52.5 10.5q-40 0 -63.5 -14t-36 -39.5t-16 -61t-3.5 -78.5v-51h143v1q57 0 88.5 24t31.5 65h15v-88h198v-16h-198v-453q0 -56 26 -86t80 -30q24 0 42.5 7.5t32.5 18t24.5 22.5t18.5 21z" />
    <glyph glyph-name=".notdef" horiz-adv-x="362" 
 />
    <glyph glyph-name="NULL" horiz-adv-x="0" 
 />
    <glyph glyph-name="NULL" horiz-adv-x="0" 
 />
    <glyph glyph-name="nonmarkingreturn" unicode="&#xd;" horiz-adv-x="362" 
 />
    <glyph glyph-name="space" unicode=" " horiz-adv-x="362" 
 />
    <glyph glyph-name="E" unicode="E" horiz-adv-x="708" 
d="M664 122q-10 -50 -17 -84t-8 -38h-586v19q29 0 44.5 17t15.5 55v618q0 33 -14 52.5t-37 19.5h-9v19h579q0 -29 2 -61.5t3 -61.5h-16l-7 17q-20 42 -63 66.5t-94 24.5h-284v-303h250q45 0 77 13.5t40 36.5l4 9h16v-142h-16l-4 10q-10 26 -41.5 42t-75.5 16h-250v-452h293
q51 0 97.5 24.5t73.5 66.5l12 16h15v0z" />
    <glyph glyph-name="F" unicode="F" horiz-adv-x="706" 
d="M246 0h-191v19q29 0 44 17t15 55v618q0 33 -13.5 52.5t-36.5 19.5h-9v19h615q0 -29 1.5 -61.5t2.5 -61.5h-16l-7 17q-20 42 -63 66.5t-94 24.5h-319v-302h239q44 0 76 13.5t40 36.5l4 10h16v-143h-16l-4 11q-9 25 -41 41t-75 16h-239v-377q0 -38 19 -55t52 -17v-19z" />
    <glyph glyph-name="G" unicode="G" horiz-adv-x="852" 
d="M443 -5q-91 0 -165 29t-127 82.5t-82 128t-29 166.5q0 91 29 165.5t82 128t127 82.5t165 29q42 0 85 -5t84 -14.5t77.5 -23t65.5 -29.5l5 -113h-20q-11 30 -29 56.5t-42 48t-53 36t-60 20.5q-56 9 -113 9q-76 0 -138 -28t-106 -79t-68 -123t-24 -160t24 -160t68 -123.5
t106 -79.5t138 -28q68 0 138 13t125 36v296q0 34 -13.5 53.5t-36.5 19.5h-10v19h174v-19q-29 0 -44 -17.5t-15 -55.5v-288q-28 -16 -65 -29.5t-78.5 -23t-86.5 -14.5t-88 -5z" />
    <glyph glyph-name="H" unicode="H" horiz-adv-x="841" 
d="M212 0h-180v19q29 0 44 17.5t15 55.5v617q0 34 -13.5 53.5t-36.5 19.5h-9v19h180v-19q-29 0 -44.5 -17.5t-15.5 -55.5v-444q24 37 70 59.5t101.5 38t115 27t111.5 27t90 37.5t52 59v196q0 34 -13.5 53.5t-36.5 19.5h-10v19h180v-19q-29 0 -44 -17.5t-15 -55.5v-617
q0 -34 13.5 -53.5t36.5 -19.5h9v-19h-180v19q29 0 44.5 17.5t15.5 55.5v388q-24 -33 -70 -53.5t-101.5 -34.5t-115 -26t-111 -29t-90 -42t-52.5 -66v-137q0 -34 13.5 -53.5t36.5 -19.5h10v-19z" />
    <glyph glyph-name="I" unicode="I" horiz-adv-x="288" 
d="M234 0h-180v19q29 0 44.5 17t15.5 55v618q0 33 -13.5 52.5t-36.5 19.5h-10v19h180v-19q-29 0 -44 -17t-15 -55v-618q0 -33 13.5 -52.5t36.5 -19.5h9v-19z" />
    <glyph glyph-name="J" unicode="J" horiz-adv-x="491" 
d="M391 303q0 -83 -11 -141t-35 -95t-62.5 -53.5t-93.5 -16.5q-50 0 -84.5 19t-42.5 51q-1 2 -1 6q0 18 25 18q22 0 27 -24q6 -26 31.5 -41.5t59.5 -15.5t57.5 13t38.5 42t22 75t7 111v458q0 25 -6.5 40t-15.5 22t-18.5 9t-14.5 2h-4v18h180v-18q-29 0 -44 -17.5t-15 -55.5
v-406v0z" />
    <glyph glyph-name="K" unicode="K" horiz-adv-x="794" 
d="M176 91q0 -34 13.5 -53.5t36.5 -19.5h10v-18h-180v18q29 0 44 17.5t15 55.5v618q0 33 -13.5 52.5t-36.5 19.5h-9v19h180v-19q-29 0 -44.5 -17t-15.5 -55v-280v-338zM176 429l347 298q38 36 38 49q0 2 -2.5 3.5t-10.5 1.5v19h120v-19q-59 0 -143 -72h-1l-291 -252
l218 -214q67 -66 116 -111.5t84 -74t58 -41t39 -12.5v-12h-25q-27 0 -58 11.5t-69 37t-85 66t-106 97.5z" />
    <glyph glyph-name="L" unicode="L" 
d="M233 781q-29 0 -44 -17t-15 -55v-694h302q11 0 32 3.5t45 16t47.5 36t39.5 63.5l10 -2l8 -2l8 -2q-7 -30 -12 -56q-5 -22 -9 -43t-6 -29h-586v18q29 0 44.5 17.5t15.5 55.5v618q0 33 -13.5 52.5t-36.5 19.5h-10v19h180v-19v0z" />
    <glyph glyph-name="M" unicode="M" horiz-adv-x="966" 
d="M203 19v-5v-14h-165v19q27 0 43 15t19 49l23 626h-1q1 1 1 4q0 32 -12.5 50t-34.5 18h-10v19h108l309 -728l295 728h113v-19q-26 0 -39.5 -13.5t-15.5 -45.5l28 -631q2 -38 17.5 -55t44.5 -17v-19h-179v19h10q22 0 34 18t12 50v4q-5 166 -11.5 330.5t-12.5 331.5
l-309 -759h-15q-78 183 -156.5 363.5t-156.5 363.5l-23 -626q2 -35 20.5 -55.5t49.5 -20.5h14z" />
    <glyph glyph-name="N" unicode="N" horiz-adv-x="855" 
d="M133 91q0 -33 13.5 -52.5t36.5 -19.5h10v-19h-138v19q29 0 44.5 17t15.5 55v618q0 34 -14 53.5t-37 19.5h-9v18h115l553 -711v620q0 34 -13.5 53.5t-36.5 19.5h-9v18h137v-18q-29 0 -44 -17.5t-15 -55.5v-720h-20l-27 36l-562 721v-655v0z" />
    <glyph glyph-name="O" unicode="O" horiz-adv-x="871" 
d="M836 403q0 -82 -25.5 -156t-75.5 -129.5t-124.5 -88t-172.5 -32.5q-99 0 -173.5 32.5t-124.5 88t-75.5 129.5t-25.5 156t25.5 155.5t75.5 129t124.5 88t173.5 32.5q98 0 172.5 -32.5t124.5 -88t75.5 -129t25.5 -155.5zM438 12q82 0 143.5 31.5t103 85t62.5 124.5t21 150
t-21 149.5t-62.5 124t-103 85t-143.5 31.5t-144 -31.5t-104 -85t-63 -124t-21 -149.5t21 -150t63 -124.5t104 -85t144 -31.5z" />
    <glyph glyph-name="P" unicode="P" horiz-adv-x="715" 
d="M680 525q0 -61 -22.5 -111t-63 -86t-97 -55.5t-124.5 -19.5h-196v-162q0 -32 14 -52.5t37 -20.5h10v-18h-185v18h10q23 0 37 20.5t14 52.5v618q0 32 -14 52t-37 20h-10v19h368q58 0 105.5 -20t81.5 -56t53 -87t19 -112zM373 268q54 0 98.5 18.5t76 52.5t49 81.5
t17.5 104.5q0 58 -14 106t-39.5 82t-61 53t-78.5 19h-244v-517h196z" />
    <glyph glyph-name="Q" unicode="Q" horiz-adv-x="869" 
d="M958 -58q-34 -41 -91.5 -65.5t-118.5 -24.5q-98 0 -180 39.5t-149 105.5q-95 3 -166.5 36.5t-119.5 88.5t-72.5 127.5t-24.5 153.5q0 82 25 155.5t75 129t124.5 88t173.5 32.5t173.5 -32.5t124.5 -88t75 -129t25 -155.5t-25 -155t-74 -128.5t-122.5 -88.5t-170.5 -34
q51 -48 127.5 -76t187.5 -28q34 0 66 4t58 10.5t45 16.5t29 22zM102 403q0 -79 21 -150t63 -124.5t104 -85t144 -31.5t143.5 31.5t103 85t62.5 124.5t21 150t-21 149.5t-62.5 124t-103 85t-143.5 31.5t-144 -31.5t-104 -85t-63 -124t-21 -149.5z" />
    <glyph glyph-name="R" unicode="R" horiz-adv-x="768" 
d="M724 11v-12h-35q-18 0 -32.5 3t-29.5 12t-33 26t-43.5 45.5t-61 70t-85.5 99.5q-7 -1 -14.5 -1h-15.5h-195v-163q0 -32 14 -52t37 -20h10v-19h-185v19h9q24 0 38 20t14 52v618q0 33 -14 53t-38 20h-9v18h367q58 0 106 -20t82 -56t53 -86.5t19 -111.5q0 -50 -15 -92.5
t-43 -76t-67 -57t-88 -35.5q76 -91 121.5 -142t71 -76t37.5 -30.5t22 -5.5h3zM374 269q54 0 98.5 18.5t76.5 52.5t49.5 81.5t17.5 104.5q0 58 -14 105.5t-39.5 81.5t-61.5 53t-79 19h-243v-516h195z" />
    <glyph glyph-name="S" unicode="S" horiz-adv-x="694" 
d="M114 658q0 -30 23 -51.5t61 -39.5t86.5 -33.5t99.5 -33.5t99.5 -40.5t86.5 -53.5t61 -72.5t23 -98.5q0 -45 -22 -88t-60 -77t-89 -54.5t-109 -20.5q-51 0 -99.5 4t-91.5 11.5t-78 18.5t-60 25l-4 117h20l15 -30q23 -47 65.5 -78.5t93.5 -42.5q35 -5 69 -7.5t70 -2.5
q48 0 91.5 17t76.5 45.5t52 64.5t19 75q0 49 -23 85t-61.5 63.5t-87 48.5t-99 39t-99 36t-87 39t-61.5 48t-23 63q0 48 21.5 81t57 53t80 29t90.5 9q36 0 72.5 -4.5t70.5 -12.5t63.5 -19t51.5 -23q-5 -8 -5 -10l5 9l4 -118h-20q-8 14 -14.5 31.5t-14.5 32.5
q-9 19 -24.5 36.5t-40.5 31.5t-62 22.5t-88 8.5q-38 0 -75 -6t-66 -21t-46.5 -41t-17.5 -65z" />
    <glyph glyph-name="T" unicode="T" horiz-adv-x="813" 
d="M761 793q1 0 3.5 -18.5t5.5 -41.5t5.5 -43.5t2.5 -23.5h-19l-15 29q-23 41 -62 65.5t-79 24.5h-165v-694q0 -33 13.5 -52.5t36.5 -19.5h9v-19h-181v19q29 0 44.5 17t15.5 55v694h-165q-40 0 -79 -24.5t-62 -65.5l-15 -29h-19q0 4 2.5 24t5.5 43t5.5 41.5t3.5 18.5l1 7
h706l1 -7v0z" />
    <glyph glyph-name="U" unicode="U" horiz-adv-x="884" 
d="M681 800h157v-19h-11q-11 0 -21 -7t-18 -18.5t-13 -26.5t-5 -31v-441q0 -51 -22 -98t-63 -83t-101 -57t-135 -21q-78 0 -140.5 23.5t-105.5 64t-66 94t-23 113.5v415q0 29 -15.5 51t-35.5 22h-9v19h180v-19h-9q-19 0 -33.5 -20t-16.5 -47l1 -434q0 -52 19.5 -99t55.5 -83
t88 -57t118 -21q69 0 123.5 20t92.5 53.5t58 77.5t20 92l1 441q-2 31 -19.5 54t-40.5 23h-11v19z" />
    <glyph glyph-name="V" unicode="V" horiz-adv-x="842" 
d="M654 800h160v-19q-28 0 -47 -16t-34 -50l-294 -715h-18l-306 710q-15 34 -34.5 52.5t-47.5 18.5v19h189v-19h-12q-20 0 -31 -10t-11 -28q0 -15 8 -34l274 -638l255 622q9 21 9 40q0 23 -12.5 35.5t-35.5 12.5h-12v19z" />
    <glyph glyph-name="W" unicode="W" horiz-adv-x="1206" 
d="M1016 800h160v-18q-27 0 -46 -16.5t-34 -50.5l-294 -715h-19l-177 413l-170 -413h-19l-305 711q-15 33 -35 52t-47 19v18h189v-18h-12q-20 0 -31 -10.5t-11 -28.5q0 -17 8 -34l274 -637l149 363l-118 276q-15 33 -35 52t-47 19v18h189v-18h-12q-20 0 -31 -10.5t-11 -28.5
q0 -13 8 -34l87 -202l76 186q9 22 9 40q0 23 -13 36t-35 13h-13v18h160v-18q-27 0 -46 -16.5t-34 -50.5l-95 -230l178 -413l255 621q9 22 9 40q0 23 -13 36t-35 13h-13v18z" />
    <glyph glyph-name="X" unicode="X" horiz-adv-x="801" 
d="M672 90q27 -35 52 -53.5t46 -18.5v-19h-179v19h11q25 0 25 20q0 14 -15 38l-229 300l-199 -278q-24 -35 -24 -56q0 -24 28 -24h8q2 0 3 -1.5t1 -7.5v-10h-160v19q60 0 112 72l221 300l-243 318h-1q-28 35 -52.5 54t-45.5 19v18h178v-18h-10q-26 0 -26 -20q0 -16 15 -38
l224 -294l213 292q12 21 12 35q0 25 -32 25q-2 0 -3.5 -0.5t-3.5 -0.5q-4 0 -4 10v9h162v-18q-19 0 -35 -5.5t-33.5 -20.5t-39 -41t-52.5 -66.5t-73 -98t-100 -134.5l248 -325h1v0z" />
    <glyph glyph-name="Y" unicode="Y" horiz-adv-x="801" 
d="M617 800h146v-19q-51 0 -97 -72q-8 -12 -13 -20.5t-13 -22t-21.5 -36.5t-37.5 -64.5t-62 -105.5t-94 -159v-210q0 -32 14 -52t37 -20h9v-19h-180v19h9q23 0 37 20t14 52v187l-243 431q-23 35 -44 53.5t-44 18.5v19h178v-19h-10q-24 0 -24 -22q0 -19 16 -45l225 -390
l219 371q21 36 21 58q0 28 -30 28h-8q-4 0 -4 10v9z" />
    <glyph glyph-name="Z" unicode="Z" horiz-adv-x="722" 
d="M667 135l10 -2l8 -2t8 -1l-27 -130h-644l578 785h-346q-20 0 -42 -6t-43 -16.5t-40.5 -25.5t-34.5 -33l-11 -14h-19l32 103l2 7h583l-578 -784h401q45 0 88 28t67 73z" />
    <glyph glyph-name="D" unicode="D" horiz-adv-x="822" 
d="M373 800q93 0 168.5 -28.5t129 -81t83 -126t29.5 -163.5t-25.5 -164t-71.5 -126.5t-111.5 -81.5t-144.5 -29h-377v19q29 0 44.5 17t15.5 55v618q0 34 -14 53.5t-37 19.5h-9v18h320zM430 16q66 0 120 27.5t92.5 78t59.5 121.5t21 158q0 86 -25 157t-71 121.5t-110.5 78
t-143.5 27.5h-200v-769h257z" />
    <glyph glyph-name="zero" unicode="0" horiz-adv-x="704" 
d="M354 801q79 1 137 -32t96.5 -88.5t57.5 -128t19 -151.5t-19 -151.5t-57.5 -128t-97 -88.5t-136.5 -32q-78 -1 -136 32t-97 88.5t-58 128t-19 151.5t19 151.5t57.5 128t97 88.5t136.5 32zM100 401q0 -78 16 -148.5t48 -123.5t79.5 -84.5t110.5 -32.5q63 1 110.5 32.5
t79.5 84.5t48 123.5t16 148.5t-16 148t-48 123t-79.5 84.5t-110.5 32.5q-63 -1 -110.5 -32.5t-79.5 -84.5t-48 -123t-16 -148z" />
    <glyph glyph-name="one" unicode="1" horiz-adv-x="308" 
d="M39 713q18 4 58 21t99 61v-85v-620q0 -32 13 -51t35 -19h11v-20h-175v20h1q30 0 43 16q15 18 15 54v651q-14 -8 -31 -16q-14 -7 -32 -13.5t-37 -10.5v12v0z" />
    <glyph glyph-name="two" unicode="2" horiz-adv-x="610" 
d="M564 152q2 0 9.5 -0.5t7.5 0.5l-37 -152h-490q17 15 28.5 26t30 29t50.5 50l89 89q75 71 123 123.5t75 95t37 78.5t10 75q0 48 -15.5 87t-41 66.5t-59 43t-68.5 15.5q-37 0 -71 -14t-63.5 -36.5t-55 -52t-46.5 -59.5l-8 4q58 98 125.5 142t136.5 44q52 0 94.5 -17
t73.5 -47.5t48 -73t17 -92.5q0 -60 -38 -120t-101.5 -125.5t-147.5 -140t-176 -164.5l22 28l307 -1q9 0 26 3t36.5 13t39 30t32.5 53z" />
    <glyph glyph-name="three" unicode="3" horiz-adv-x="609" 
d="M311 454q49 0 93 -13t77 -38.5t52 -62.5t19 -86q0 -55 -23.5 -99t-62.5 -77.5t-89.5 -57.5t-103.5 -39q-37 -10 -70.5 -15.5t-59.5 -8.5t-43.5 -4t-21.5 -1v14h1q78 3 157 22.5t143 63.5q52 36 82.5 86t30.5 113q0 42 -15 75.5t-42 57t-63.5 35.5t-79.5 12q-15 0 -30 -2
t-27 -5t-19.5 -5.5l-7.5 -2.5v13l9 3q5 2 10 3.5t12 3.5q46 17 83.5 39t64 47.5t41 53t14.5 55.5q0 44 -24 73.5t-62.5 42t-87 7.5t-97.5 -29q-30 -15 -56 -35.5t-46 -45.5l-1 -1l-8 7l1 1q26 33 58 59.5t66 46t69 30t67 10.5q37 0 69.5 -9.5t57 -28.5t38.5 -47t14 -65
q0 -53 -55 -106q-51 -51 -137 -90h3v0z" />
    <glyph glyph-name="four" unicode="4" horiz-adv-x="698" 
d="M499 182v-91q0 -32 13 -51.5t36 -19.5h11v-19h-177v19h1q29 0 43 17q13 15 15 48v97h-395v12l1 1q3 4 23 32.5t51 71.5t69 97t78 109.5t78 108.5t68.5 94.5t50 67.5t22.5 28h1h11v-595h151v-27h-151zM441 209v499q-25 -34 -56.5 -78t-66.5 -92t-70 -97.5t-66.5 -93.5
t-57 -80t-40.5 -58h357z" />
    <glyph glyph-name="five" unicode="5" horiz-adv-x="547" 
d="M126 739q-3 -53 -9.5 -113t-11.5 -107h97q134 0 217 -66q36 -29 55.5 -66.5t24.5 -78t-3 -80t-28 -73.5q-19 -32 -45.5 -57t-58 -44.5t-66.5 -33.5t-70 -24q-87 -23 -189 -26h-2v14h2q90 2 164.5 23t128 57t82.5 85.5t29 108.5q0 90 -74 147q-73 56 -194 56h-94v2l2 18.5
t5 47.5t7 65.5t7 74t5 71.5t2 59v1h293q28 0 47 9t30.5 20.5t16.5 21l5 9.5h17l-1 -2q-4 -12 -10.5 -29l-13 -34t-12.5 -32t-9 -24h-346z" />
    <glyph glyph-name="six" unicode="6" horiz-adv-x="649" 
d="M604 260q3 -61 -16.5 -109.5t-56.5 -82t-89 -51t-114 -17.5q-60 0 -110 26t-85.5 73t-55 113t-19.5 147q0 99 38 184q38 83 108 146q59 52 124 79.5t121 39.5t95 14t45 3v-12h-1q-106 -4 -192 -37.5t-146.5 -91.5t-93.5 -136.5t-33 -171.5v-7q6 39 29 66.5t55.5 44t72 24
t79.5 7.5q55 0 100.5 -18.5t77.5 -51.5t49.5 -79t17.5 -102zM127 295q0 1 -2.5 13t-3.5 29q-5 -61 8.5 -125.5t49.5 -113.5q29 -42 69 -61.5t85 -19.5q51 0 91 17t68 48.5t42 76t11 99.5q0 48 -12.5 91t-37.5 75t-61 51t-84 19q-25 0 -51 -3.5t-50.5 -11.5t-46 -21
t-37.5 -33q-17 -21 -22.5 -43.5t-5.5 -41t3 -31t3 -14.5h-16z" />
    <glyph glyph-name="seven" unicode="7" horiz-adv-x="617" 
d="M265 2v-1h-64l345 737h-390q-29 0 -44.5 -7.5t-23 -17t-10 -19.5t-4.5 -15h-16l12 118h513z" />
    <glyph glyph-name="eight" unicode="8" horiz-adv-x="634" 
d="M531 343q61 -58 61 -127q0 -99 -74 -158q-75 -60 -196 -60q-61 0 -110.5 14.5t-85 41.5t-55 65t-19.5 84q0 77 62 127q59 48 157 59q-87 25 -138 83.5t-51 133.5q0 49 18.5 88t50.5 65t75.5 40t93.5 14q52 0 95.5 -12.5t75.5 -37.5q65 -50 65 -131q0 -40 -13.5 -74
t-37.5 -60.5t-57 -44.5t-72 -26q97 -29 155 -84zM325 13q45 0 84 12.5t67.5 36t45 57.5t16.5 78q0 32 -16.5 61t-47 53.5t-73.5 42.5t-95 27q-4 1 -8 1.5t-9 2.5q-39 -5 -72 -18t-58 -35t-39 -52t-14 -68q0 -45 16 -81.5t44.5 -62.5t69 -40.5t89.5 -14.5zM360 431
q34 7 61.5 24.5t46.5 42.5t29 57t10 68q0 40 -14 72.5t-39.5 55.5t-60.5 35t-77 12q-41 0 -75 -12t-58 -34.5t-37.5 -54t-13.5 -69.5t15 -69t40.5 -55t59 -40.5t71.5 -23.5q11 -2 21 -4.5t21 -4.5z" />
    <glyph glyph-name="nine" unicode="9" horiz-adv-x="664" 
d="M341 800q60 0 110 -26t85 -73t54.5 -113t19.5 -147q0 -102 -38.5 -186t-108.5 -144.5t-167.5 -96t-214.5 -39.5h-2v12h2q103 4 188.5 36.5t146.5 89.5t95 135.5t34 174.5v7q-6 -37 -28 -65q-29 -38 -82.5 -57.5t-125.5 -19.5q-55 0 -100 18t-77.5 51t-50 79.5
t-17.5 103.5q-4 88 37.5 149.5t115.5 89.5q55 21 124 21zM541 504q2 -6 3 -13q1 -11 3 -29q5 62 -8 126t-49 114q-30 41 -70 61t-85 20q-50 0 -90.5 -17.5t-68.5 -49t-41.5 -76t-10.5 -98.5q0 -48 12.5 -91t37 -75t60.5 -51t84 -19q25 0 51.5 3.5t51 11.5t46 21t36.5 33
q17 21 22.5 43t5.5 41t-2.5 31t-2.5 14h15z" />
    <glyph glyph-name="ampersand" unicode="&#x26;" horiz-adv-x="769" 
d="M564 70q-12 -9 -33 -21.5t-53.5 -24.5t-77 -20t-102.5 -8q-57 0 -103.5 14.5t-79.5 40.5t-51.5 62.5t-18.5 80.5q0 36 15 70.5t42 65.5t65.5 57.5t85.5 45.5q-32 51 -51 96.5t-19 84.5q0 44 12.5 79.5t35.5 61t55.5 39.5t72.5 14q80 0 128.5 -39t48.5 -105
q0 -39 -16.5 -74.5t-47 -64t-73 -49t-94.5 -29.5q28 -41 67.5 -91.5t82.5 -101.5q27 -28 61 -63.5t76 -77.5q35 33 59 75.5t24 99.5q0 58 -32 103.5t-97 66.5l4 14q42 -13 71.5 -34t48.5 -46.5t28 -53t9 -51.5q0 -33 -12 -63t-29 -54t-34.5 -41.5t-27.5 -26.5
q15 -16 27.5 -28t21.5 -21q11 -11 19 -18q31 -29 58 -48.5t51 -31t45.5 -16t42.5 -4.5q17 0 35 3v-9q-16 -2 -31 -3.5t-30 -1.5q-48 0 -97.5 17.5t-107.5 64.5zM225 639q0 -40 20.5 -86t55.5 -99q43 8 78.5 27t60.5 46t38.5 61t13.5 73q0 62 -37 99t-99 37
q-60 0 -95.5 -43.5t-35.5 -114.5zM553 80q-49 45 -86.5 84t-63.5 71q-42 50 -80.5 99.5t-64.5 90.5q-74 -33 -117 -89t-43 -121q0 -44 16.5 -79.5t47 -61t73 -39.5t94.5 -14q69 0 125.5 15t97.5 43z" />
    <glyph glyph-name="exclam" unicode="!" horiz-adv-x="237" 
d="M113 167q-3 41 -6 100.5t-6.5 124.5t-6.5 129.5t-5.5 117.5t-4 87.5t-1.5 38.5q0 18 11 26.5t25 8.5t25 -8.5t11 -26.5q0 -4 -1.5 -38.5t-4 -87.5t-6 -117.5t-7 -129.5t-6.5 -124.5t-6 -100.5h-3h-5h-3zM119 78q15 0 27 -9t12 -29t-12.5 -29.5t-26.5 -9.5
q-15 0 -27.5 9.5t-12.5 29.5t12.5 29t27.5 9z" />
    <glyph glyph-name="question" unicode="?" horiz-adv-x="574" 
d="M256 78q15 0 27 -9.5t12 -29.5t-12 -29.5t-27 -9.5t-27.5 9.5t-12.5 29.5t12.5 29.5t27.5 9.5zM276 805q59 0 104.5 -16.5t76.5 -45t47 -66.5t16 -82t-14.5 -76t-37 -57.5t-50.5 -47t-55.5 -45.5t-51 -52.5t-37.5 -67.5q-3 -9 -8.5 -29.5t-5.5 -51.5h-12v4q0 56 15.5 97
t39 74t51 60.5t51 56t39 61.5t15.5 77t-18.5 77.5t-48.5 56t-68.5 33.5t-78.5 11q-42 0 -73.5 -12t-53.5 -28t-35 -32t-18 -23l-13 9q29 43 63 66.5t66 34t57.5 12.5t37.5 2z" />
    <glyph glyph-name="at" unicode="@" horiz-adv-x="1344" 
d="M843 231q-9 -36 -9 -66q0 -81 51 -128t143 -47q52 0 95 30t73.5 84.5t47.5 131t17 170.5q0 111 -42 201.5t-119.5 155.5t-186 100.5t-240.5 35.5t-240.5 -43t-185.5 -121t-119 -188t-42 -244t43 -244t121 -188.5t187.5 -121.5t243.5 -43q101 0 193 20t167.5 57t132 88
t85.5 114h18q-31 -66 -89.5 -120t-136.5 -93t-172.5 -60t-197.5 -21q-144 0 -261.5 44t-201 124.5t-129.5 193t-46 250.5t45.5 250.5t128 192.5t198.5 124t258 44t258 -36.5t199 -103t128.5 -160.5t45.5 -208q0 -98 -20.5 -178t-58 -137t-90.5 -88t-117 -31
q-109 0 -171 49.5t-65 134.5q-33 -72 -92 -113.5t-131 -41.5q-49 0 -89.5 16.5t-69 46t-44 71t-15.5 92.5q0 81 24.5 147.5t69 113.5t107 73t138.5 26q66 0 109.5 -34.5t54.5 -94.5l28 116h52zM835 422q0 68 -43 108.5t-113 40.5q-62 0 -113 -24t-87.5 -67.5t-56.5 -105
t-20 -136.5q0 -47 13.5 -85t37.5 -65t58 -41.5t76 -14.5q35 0 67 14.5t59 40.5t46.5 62.5t30.5 81.5z" />
    <glyph glyph-name="sterling" unicode="&#xa3;" horiz-adv-x="621" 
d="M581 114q0 -1 -3.5 -16.5t-8 -35t-8.5 -38t-6 -24.5h-456q0 -1 -2.5 1.5l-4.5 4.5q-4 3 -7 7q19 16 40.5 38t40 49t31 58t12.5 65q0 47 -11.5 86t-27.5 77h-121v18h113q-20 48 -37 95t-17 102q0 62 28 100.5t67.5 59.5t82.5 28t74 7q4 0 18.5 -0.5t34 -4.5t41.5 -11.5
t41 -22t32.5 -36t16.5 -53.5q0 -26 -27 -26q-13 0 -21.5 8t-10.5 21q-1 10 -5 28.5t-17.5 36.5t-38 31t-65.5 13q-14 0 -44 -3.5t-61 -20t-54 -51t-23 -96.5q0 -29 5.5 -55t14 -50.5t18.5 -49t19 -50.5h215v-18h-209q8 -25 13 -51t5 -55q0 -72 -33 -134t-107 -130h286
q7 0 26.5 2.5t43 12.5t47.5 31t41 58z" />
    <glyph glyph-name="dollar" unicode="$" horiz-adv-x="630" 
d="M80 145q22 -45 65 -78t94 -44v376q-41 16 -74 37.5t-56.5 46t-36 52t-12.5 55.5q0 85 48 142.5t131 73.5v87h18v-84q11 1 20.5 1.5t20.5 0.5h17.5t16.5 -1v83h19v-85q51 -6 100 -20.5t85 -36.5l5 -118h-20l-30 64q-16 32 -44 56t-59 31l-5.5 1.5t-12 2.5t-12.5 2t-7 1
v-364q51 -15 92.5 -38t71 -51.5t45.5 -62t16 -68.5q0 -46 -16 -83.5t-45.5 -64.5t-71 -42.5t-92.5 -17.5v-81h-19v81q-19 1 -37.5 2t-37.5 3v-86h-18v88q-58 7 -107.5 20.5t-82.5 32.5l-4 118h20q3 -8 7 -16zM532 742q0 2 4 8zM351 15q41 1 74.5 14t57.5 35t37 52t13 67
q0 52 -49 100t-133 80v-348zM257 458q37 -16 75 -26v362q-9 1 -18.5 1.5t-18.5 0.5q-19 0 -38 -3v-335zM257 20q19 -2 38 -3.5t37 -1.5v354q-18 7 -37.5 12t-37.5 11v-372zM102 615q0 -41 36.5 -79.5t100.5 -69.5v323q-63 -14 -100 -60t-37 -114z" />
    <glyph glyph-name="Euro" unicode="&#x20ac;" horiz-adv-x="982" 
d="M887 654q-24 49 -71 84.5t-103 43.5q0 1 -17 3t-38.5 3.5t-40.5 2.5t-22 1q-69 0 -127.5 -22t-103 -63t-74 -99t-39.5 -129h381l-6 -19h-377q-3 -29 -3 -58v-15.5t1 -15.5h356l-5 -19h-350q7 -78 34.5 -141t73 -107.5t106 -69t133.5 -24.5q20 0 39.5 1.5t39.5 3.5
q36 4 69 15.5t61 29t49.5 40t33.5 48.5q4 8 7.5 17t7.5 16h20l-5 -113q-29 -16 -66 -29.5t-79 -23t-87.5 -15t-89.5 -5.5q-87 0 -159.5 25.5t-126.5 72t-87 112.5t-41 147h-136l5 19h130q0 8 -0.5 15.5t-0.5 15.5q0 29 3 58h-108l5 19h106q12 75 46.5 135.5t87.5 103t123 66
t153 23.5q44 0 89.5 -5t87.5 -14.5t79 -23t66 -29.5l5 -114h-20q-4 8 -7.5 17t-7.5 16zM917 734l-3 -6q0 1 1 2.5t2 3.5z" />
    <glyph glyph-name="percent" unicode="%" horiz-adv-x="921" 
d="M372 599q0 -47 -12 -86t-33.5 -66.5t-51.5 -42.5t-67 -15q-38 0 -68.5 14.5t-52.5 41.5t-34 64.5t-12 82.5q0 46 12 84.5t34 65.5t52.5 42t68.5 15q37 0 67 -14.5t51.5 -41t33.5 -63t12 -81.5zM91 602q0 -44 9 -80.5t24.5 -62t38 -39.5t49.5 -14q51 0 81.5 48t30.5 128
q0 92 -34 147t-90 55q-50 0 -79.5 -50t-29.5 -132zM734 804l-527 -801h-25l527 801h25zM541 212q0 47 12 85.5t34 66t52.5 42.5t67.5 15q39 0 70.5 -14.5t54 -41t34.5 -64t12 -82.5q0 -47 -12 -85.5t-34.5 -65.5t-54 -42t-70.5 -15q-37 0 -67.5 14.5t-52.5 40.5t-34 63.5
t-12 82.5zM831 202q0 46 -9.5 83.5t-26.5 64.5t-41 41.5t-53 14.5q-51 0 -81 -50.5t-30 -133.5q0 -88 33.5 -141.5t88.5 -53.5q54 0 86.5 48t32.5 127z" />
    <glyph glyph-name="asterisk" unicode="*" horiz-adv-x="511" 
d="M454 646q-54 -5 -90.5 -16t-59 -33.5t-33.5 -59t-15 -90.5q-5 54 -16 90.5t-33.5 59t-58.5 33.5t-91 16q55 4 91 15t58.5 33.5t33.5 59t16 90.5q4 -54 15 -90.5t33.5 -59t59 -33.5t90.5 -15z" />
    <glyph glyph-name="parenleft" unicode="(" horiz-adv-x="334" 
d="M274 897q-29 -34 -52 -78.5t-38.5 -104.5t-24 -137.5t-8.5 -177.5t8.5 -177.5t24 -137.5t38.5 -104.5t52 -78.5l2 -2l-11 -9l-2 2q-49 58 -80 119.5t-48.5 125.5t-24 130t-6.5 132t6.5 132t24 130t48.5 125.5t80 119.5l2 2l11 -9z" />
    <glyph glyph-name="parenright" unicode=")" horiz-adv-x="321" 
d="M82 907q49 -58 80 -119.5t49 -125.5t24.5 -130t6.5 -132t-6.5 -132t-24.5 -130t-49 -125.5t-80 -119.5l-1 -2l-11 9l2 2q29 34 51.5 78.5t38.5 104.5t24 137.5t8 177.5t-8 177.5t-24 137.5t-38.5 104.5t-51.5 78.5l-2 2l11 9z" />
    <glyph glyph-name="slash" unicode="/" horiz-adv-x="441" 
d="M34 -115l349 1016h21l-349 -1016h-21v0z" />
    <glyph glyph-name="bracketleft" unicode="[" horiz-adv-x="254" 
d="M46 -71v943h169v-15h-123v-914h123v-14h-169v0z" />
    <glyph glyph-name="bracketright" unicode="]" horiz-adv-x="254" 
d="M46 -71v14h123v914h-123v15h169v-943h-169z" />
    <glyph glyph-name="backslash" unicode="\" horiz-adv-x="449" 
d="M386 -115l-349 1016h21l349 -1016h-21z" />
    <glyph glyph-name="period" unicode="." horiz-adv-x="217" 
d="M111 78q15 0 27.5 -9.5t12.5 -29.5t-12.5 -29.5t-27.5 -9.5t-27.5 9.5t-12.5 29.5t12.5 29.5t27.5 9.5z" />
    <glyph glyph-name="comma" unicode="," horiz-adv-x="182" 
d="M88 80q25 0 35.5 -19.5t10.5 -45.5q0 -38 -19.5 -70t-51.5 -48l-5 8q19 10 31.5 32t12.5 49q0 4 -0.5 8t-1.5 9q-3 -2 -6.5 -2h-6.5q-17 0 -28 11.5t-11 28.5t11 28t29 11z" />
    <glyph glyph-name="plus" unicode="+" horiz-adv-x="570" 
d="M299 645v-234h231v-24h-231v-233h-28v233h-231v24h231v234h28v0z" />
    <glyph glyph-name="equal" unicode="=" horiz-adv-x="586" 
d="M70 317v25h444v-25h-444zM70 466v25h444v-25h-444z" />
    <glyph glyph-name="hyphen" unicode="-" horiz-adv-x="498" 
d="M61 388v26h382v-26h-382v0z" />
    <glyph glyph-name="numbersign" unicode="#" horiz-adv-x="841" 
d="M178 1l77 293h-205v19h210l49 185h-203v18h208l75 282h20l-74 -282h211l75 282h20l-75 -282h217v-18h-222l-49 -185h215v-19h-219l-78 -293h-21l78 293h-211l-78 -293h-20zM330 498l-49 -185h211l49 185h-211z" />
    <glyph glyph-name="underscore" unicode="_" horiz-adv-x="701" 
d="M45 24h612v-24h-612v24v0z" />
    <glyph glyph-name="quotedbl" unicode="&#x22;" horiz-adv-x="297" 
d="M160 811q0 17 11.5 28t28.5 11q25 0 36 -19.5t11 -45.5q0 -38 -19.5 -70t-52.5 -48l-4 8q19 9 31 31t12 50v8t-1 9q-5 -2 -14 -2q-17 0 -28 11.5t-11 28.5zM54 675q19 9 31 31t12 50v8t-1 9q-5 -2 -14 -2q-17 0 -27.5 11.5t-10.5 28.5t11 28t28 11q25 0 36 -19.5
t11 -45.5q0 -38 -19.5 -70t-51.5 -48z" />
    <glyph glyph-name="quotesingle" unicode="'" horiz-adv-x="194" 
d="M95 850q25 0 35.5 -19.5t10.5 -45.5q0 -38 -19.5 -70t-51.5 -48l-5 8q19 10 31.5 32t12.5 49q0 4 -0.5 8t-1.5 9q-3 -2 -6.5 -2h-6.5q-17 0 -28 11.5t-11 28.5t11 28t29 11z" />
    <glyph glyph-name="quotedblright" unicode="&#x201d;" horiz-adv-x="297" 
d="M160 811q0 17 11.5 28t28.5 11q25 0 36 -19.5t11 -45.5q0 -38 -19.5 -70t-52.5 -48l-4 8q19 9 31 31t12 50v8t-1 9q-5 -2 -14 -2q-17 0 -28 11.5t-11 28.5zM54 675q19 9 31 31t12 50v8t-1 9q-5 -2 -14 -2q-17 0 -27.5 11.5t-10.5 28.5t11 28t28 11q25 0 36 -19.5
t11 -45.5q0 -38 -19.5 -70t-51.5 -48z" />
    <glyph glyph-name="quotedblleft" unicode="&#x201c;" horiz-adv-x="297" 
d="M131 812q0 -17 -11 -28.5t-28 -11.5q-9 0 -14 2q-1 -5 -1 -9v-8q0 -28 12 -50t31 -31l-4 -8q-33 16 -52.5 48t-19.5 70q0 26 11 45.5t36 19.5q17 0 28.5 -11t11.5 -28zM232 668q-32 16 -51.5 48t-19.5 70q0 26 11 45.5t36 19.5q17 0 28 -11t11 -28t-10.5 -28.5
t-27.5 -11.5q-9 0 -14 2q-1 -5 -1 -9v-8q0 -28 12 -50t31 -31z" />
    <glyph glyph-name="quoteright" unicode="&#x2019;" horiz-adv-x="194" 
d="M95 850q25 0 35.5 -19.5t10.5 -45.5q0 -38 -19.5 -70t-51.5 -48l-5 8q19 10 31.5 32t12.5 49q0 4 -0.5 8t-1.5 9q-3 -2 -6.5 -2h-6.5q-17 0 -28 11.5t-11 28.5t11 28t29 11z" />
    <glyph glyph-name="quoteleft" unicode="&#x2018;" horiz-adv-x="194" 
d="M101 851q18 0 29 -11t11 -28t-11 -28.5t-28 -11.5h-6.5t-6.5 2q-1 -5 -1.5 -9t-0.5 -8q0 -27 12.5 -49t31.5 -32l-5 -8q-32 16 -51.5 48t-19.5 70q0 26 10.5 45.5t35.5 19.5z" />
    <glyph glyph-name="OE" unicode="&#x152;" horiz-adv-x="1115" 
d="M1053 120q-10 -49 -17 -82.5t-7 -37.5h-578h-1q-97 0 -170 32t-122 86.5t-74 127.5t-25 155q0 13 3 48t15.5 79t37.5 92t68.5 88t109.5 66t161 26h568q0 -29 1.5 -61t3.5 -60h-16l-8 17q-20 39 -61.5 64t-92.5 25h-280v-310h247q43 0 75 13.5t41 35.5l3 9h17v-140h-17
l-3 10q-10 26 -42 41.5t-74 15.5h-247v-445h288q51 0 96.5 24t73.5 64l11 17h15zM510 710q0 32 -15 53.5t-44 21.5q-81 0 -142 -31t-102 -83.5t-61.5 -122.5t-20.5 -147q0 -79 20.5 -149t61.5 -122.5t102 -83.5t141 -31q29 0 44.5 16.5t15.5 54.5v624z" />
    <glyph glyph-name="colon" unicode=":" horiz-adv-x="217" 
d="M111 78q15 0 27.5 -9.5t12.5 -29.5t-12.5 -29.5t-27.5 -9.5t-27.5 9.5t-12.5 29.5t12.5 29.5t27.5 9.5zM111 538q15 0 27.5 -9.5t12.5 -29.5t-12.5 -29.5t-27.5 -9.5t-27.5 9.5t-12.5 29.5t12.5 29.5t27.5 9.5z" />
    <glyph glyph-name="semicolon" unicode=";" horiz-adv-x="184" 
d="M88 80q25 0 35.5 -19.5t10.5 -45.5q0 -38 -19.5 -70t-51.5 -48l-5 8q19 10 31.5 32t12.5 49q0 4 -0.5 8t-1.5 9q-3 -2 -6.5 -2h-6.5q-17 0 -28 11.5t-11 28.5t11 28t29 11zM95 538q15 0 27.5 -9.5t12.5 -29.5t-12.5 -29.5t-27.5 -9.5t-27.5 9.5t-12.5 29.5t12.5 29.5
t27.5 9.5z" />
    <glyph glyph-name="germandbls" unicode="&#xdf;" horiz-adv-x="672" 
d="M317 452q0 -33 24.5 -57t61.5 -44.5t79.5 -39t79.5 -40.5t61.5 -49t24.5 -65q0 -47 -18.5 -77.5t-46 -48.5t-60.5 -25t-61 -7q-21 0 -49 2t-57.5 7t-57.5 13t-49 20l-3 79h16q19 -39 45.5 -61t54.5 -32.5t54.5 -13t46.5 -2.5q60 0 96.5 35t36.5 92q0 36 -40 72.5
t-107 59.5q-41 15 -74 34t-57 40.5t-37 44.5t-13 46q0 30 13.5 49t34 33t44 26t44 28t34 38t13.5 57q0 36 -14.5 59t-36.5 36.5t-47.5 18.5t-46.5 5q-30 -1 -58 -12t-50 -32.5t-35 -54.5t-13 -78v-524q0 -42 17 -54.5t38 -12.5v-17h-10h-152h-10v17q27 0 41.5 16t14.5 51
v365v76v42.5t0.5 26t0.5 26.5q0 43 17.5 76.5t47 57t68.5 35.5t81 11q2 0 17.5 -0.5t38.5 -4t49 -10.5t48.5 -21t37 -36t14.5 -54q0 -37 -14 -60t-35.5 -38.5t-46.5 -26.5t-46.5 -23.5t-35.5 -29.5t-14 -44z" />
    <glyph glyph-name="oe" unicode="&#x153;" horiz-adv-x="1101" 
d="M1053 120q-10 -49 -17 -82.5t-7 -37.5h-578h-1q-97 0 -170 32t-122 86.5t-74 127.5t-25 155q0 13 3 48t15.5 79t37.5 92t68.5 88t109.5 66t161 26h568q0 -29 1.5 -61t3.5 -60h-16l-8 17q-20 39 -61.5 64t-92.5 25h-280v-310h247q43 0 75 13.5t41 35.5l3 9h17v-140h-17
l-3 10q-10 26 -42 41.5t-74 15.5h-247v-445h288q51 0 96.5 24t73.5 64l11 17h15zM510 710q0 32 -15 53.5t-44 21.5q-81 0 -142 -31t-102 -83.5t-61.5 -122.5t-20.5 -147q0 -79 20.5 -149t61.5 -122.5t102 -83.5t141 -31q29 0 44.5 16.5t15.5 54.5v624z" />
    <glyph glyph-name="A" unicode="A" horiz-adv-x="838" 
d="M187 0h-160v19q28 0 47 16t34 50l294 716h19h-1l306 -711q15 -34 34.5 -52.5t47.5 -18.5v-19h-189v19h12q20 0 31 10.5t11 28.5q0 7 -1.5 14t-5 16.5t-10 23.5t-15.5 36q-58 1 -109.5 17.5t-99 35t-92 34t-88.5 15.5q-33 0 -62 -10q-22 -53 -34.5 -83.5t-19 -47t-8 -24.5
t-1.5 -17q0 -23 12.5 -36t35.5 -13h12v-19zM391 729l-193 -470q25 7 54 7q45 0 89.5 -15t91 -33.5t96.5 -34.5t105 -18z" />
    <glyph glyph-name="B" unicode="B" horiz-adv-x="708" 
d="M674 229q0 -52 -19 -94.5t-53.5 -72.5t-83 -46t-108.5 -16h-356v19q29 0 44 17t15 55v618q0 33 -13.5 52.5t-36.5 19.5h-9v19h325q53 0 96 -12t73.5 -34t47 -53.5t16.5 -69.5q0 -72 -53 -119.5t-145 -62.5q60 -8 108 -26.5t82 -47t52 -65.5t18 -81zM174 453h92.5
t47.5 0.5t24 0.5h22q88 5 139.5 52.5t51.5 124.5q0 70 -46.5 112t-125.5 42h-205v-332zM404 15q46 0 84 15t65 43t42 67.5t15 88.5q0 48 -21 87.5t-59.5 67.5t-93 43.5t-121.5 15.5h-141v-428h230z" />
    <glyph glyph-name="C" unicode="C" horiz-adv-x="834" 
d="M457 -8q-94 0 -170.5 29t-131 82.5t-84.5 128t-30 166.5q0 91 30 165.5t84.5 128t131 82.5t170.5 29q44 0 89.5 -5t87.5 -14.5t79 -23t66 -29.5l5 -113h-20q-4 7 -8 16t-7 16q-24 50 -71.5 85t-102.5 44q0 1 -17 3t-38.5 3t-40.5 2t-22 1q-78 0 -142.5 -28t-110.5 -79
t-71 -123t-25 -160t25 -160t71 -123.5t110.5 -79.5t142.5 -28q20 0 39.5 1t39.5 3q72 8 130 44.5t83 89.5q3 7 7 16t8 16h20l-5 -113q-29 -16 -66 -29.5t-79 -23t-87.5 -14.5t-89.5 -5zM779 730q-1 -2 -2 -3t-1 -3z" />
    <glyph glyph-name="yen" unicode="&#xa5;" horiz-adv-x="801" 
d="M152 705q-40 72 -82 72v19h177v-19h-9q-28 0 -28 -26q0 -13 10 -36l199 -366l199 348q14 27 14 49q0 31 -33 31h-7q-2 0 -3 1.5t-1 7.5v10h146v-19q-52 0 -93 -72q-52 -90 -103.5 -179t-103.5 -179h224v-19h-229v-97h229v-18h-229v-121q0 -33 13.5 -52.5t36.5 -19.5h9
v-18h-180v18q29 0 44 17t15 55h1v121h-226v18h226l1 79l-10 18h-217v19h207l-196 358h-1v0z" />
    <glyph glyph-name="trademark" unicode="&#x2122;" horiz-adv-x="1022" 
d="M447 799l1 -6q2 -17 4 -31q2 -12 3 -23t2 -15v-4h-16l-9 18q-12 21 -32.5 34t-41.5 13h-84v-370q0 -17 6.5 -26.5t17.5 -9.5h8v-17h-2h-103v16v1h5q10 0 14 2q13 7 13 33v371h-86q-15 0 -31 -8q-12 -6 -22.5 -15.5t-17.5 -23.5q-8 -14 -8.5 -15l-1.5 -3h-16v3q0 3 1.5 14
t3.5 23.5t3.5 24t1.5 14.5h387zM930 418q0 -4 1 -10.5t4 -13t9 -11t17 -4.5h3v-16v-1h-103v16v1h9q5 0 8 1q8 4 10.5 13.5t2.5 20.5l-6 170l-6 170l-161 -394v-1h-13q-38 87 -81.5 187t-82.5 191l-11 -320q2 -38 35 -38h10v-17h-96v16v1h5q9 0 13 2q14 8 15 29l12 334v3v2
q0 15 -5.5 24.5t-16.5 9.5h-8v15v1h64l1 -2l164 -386q41 101 68 169.5t44.5 111.5t26 65t12.5 31t4 10v1h67v-16h-4q-9 0 -13 -3q-12 -6 -12 -26z" />
    <glyph glyph-name="braceleft" unicode="{" horiz-adv-x="354" 
d="M105 709q0 74 45 119t120 45h48v-13h-37q-32 0 -56 -11.5t-40.5 -32t-25 -48t-8.5 -59.5v-193q0 -48 -21.5 -77.5t-54.5 -37.5q33 -8 54.5 -36t21.5 -74l-1 -199q0 -32 9 -59.5t25.5 -48t41 -32t55.5 -11.5h37v-13h-48q-75 0 -120 45t-45 119v229q0 25 -8.5 39.5
t-20.5 22t-25 9.5t-21 2h-1v13h1q36 0 55.5 20t19.5 58v224v0z" />
    <glyph glyph-name="braceright" unicode="}" horiz-adv-x="349" 
d="M242 485q0 -38 19.5 -58t55.5 -20h1v-13h-1q-8 0 -21 -2t-25 -9.5t-20.5 -22t-8.5 -39.5v-229q0 -74 -45 -119t-120 -45h-48v13h37q31 0 55.5 11.5t41 32t25.5 48t9 59.5l-1 199q0 46 21.5 74t54.5 36q-33 8 -54.5 37.5t-21.5 77.5v193q0 32 -8.5 59.5t-25 48t-41 32
t-55.5 11.5h-37v13h48q75 0 120 -45t45 -119v-224z" />
    <glyph glyph-name="less" unicode="&#x3c;" horiz-adv-x="594" 
d="M39 383l-6 2v27q2 0 3 1t3 1l525 262v-28l-508 -249l508 -250v-28z" />
    <glyph glyph-name="greater" unicode="&#x3e;" horiz-adv-x="593" 
d="M33 149l508 250l-508 249v28l525 -262q2 0 3 -1t3 -1v-27l-6 -2l-525 -262v28z" />
    <glyph glyph-name="copyright" unicode="&#xa9;" horiz-adv-x="715" 
d="M359 800q69 0 128.5 -26t103.5 -70.5t69 -104t25 -125.5q0 -67 -25.5 -126.5t-69.5 -103.5t-103.5 -70t-127.5 -26q-69 0 -128.5 26t-103.5 70t-69 103.5t-25 126.5q0 69 26 128.5t70 103.5t103.5 69t126.5 25zM359 168q64 0 120 24t97 66t65 97.5t24 118.5q0 64 -24 120
t-66 97t-97.5 65t-118.5 24q-65 0 -120.5 -24t-97 -66t-65 -97.5t-23.5 -118.5q0 -64 24 -120t66 -97t97.5 -65t118.5 -24zM361 650q-44 0 -75 -15.5t-51.5 -40.5t-30 -57.5t-9.5 -65.5t9.5 -64.5t29.5 -56.5t52 -40.5t77 -15.5h16q40 2 73 22.5t47 51.5q2 4 4 9t5 10h15
l-3 -65q-22 -12 -45 -20t-44 -12.5t-39.5 -6.5t-30.5 -2q-37 0 -73.5 11t-66 34t-47.5 59t-18 86t18 86t47 59.5t65.5 34.5t74.5 11q39 0 82.5 -11t75.5 -29l1 -1l3 -65h-15q-6 12 -14.5 28t-24.5 31t-42 25t-66 10z" />
    <glyph glyph-name="registered" unicode="&#xae;" horiz-adv-x="712" 
d="M522 302l3 1v-11h-18q-13 0 -22.5 3.5t-22 15.5t-32.5 35t-54 62h-12h-87v-72q0 -14 6 -22t15 -8h7v-13h-88v13h6q10 0 15.5 8t5.5 22v281q0 14 -5.5 22t-15.5 8h-6v13h169q35 0 58 -13t37 -32t19.5 -41t5.5 -40q0 -36 -13.5 -58.5t-30.5 -36t-32.5 -19t-18.5 -6.5
q34 -40 54 -62.5t31 -33.5t16 -13.5t9 -2.5h1zM364 419q48 0 77.5 31.5t29.5 83.5q0 30 -7.5 51.5t-19.5 36t-27.5 21t-30.5 6.5h-109v-230h87zM357 800q69 0 128.5 -26t103.5 -71t69 -104t25 -125q0 -67 -25.5 -126.5t-69.5 -103.5t-103.5 -70t-127.5 -26q-69 0 -128.5 26
t-103.5 70t-69 103.5t-25 126.5q0 68 26 127.5t70 103.5t103.5 69.5t126.5 25.5zM357 168q64 0 120 24t97 66t65 97.5t24 118.5q0 64 -24 120t-66 97t-97.5 65t-118.5 24q-65 0 -120.5 -24t-97 -66t-65 -97.5t-23.5 -118.5q0 -64 24 -120t66 -97t97.5 -65t118.5 -24z" />
    <glyph glyph-name="circumflex" unicode="&#x2c6;" horiz-adv-x="402" 
d="M351 847q-2 2 -20 17t-42 34.5t-49.5 40.5t-41.5 35q-17 -14 -42 -35t-49 -40.5t-42.5 -34.5t-20.5 -17l-1 -1l-9 9l2 1q54 66 84 102.5t45 53.5t20 20.5t10 3.5h2h1h3q4 0 9.5 -3.5t20.5 -21t45 -53.5t84 -102l1 -1l-8 -9l-2 1v0z" />
    <glyph glyph-name="dieresis" unicode="&#xa8;" horiz-adv-x="288" 
d="M104 911q0 -18 -11 -27t-25 -9t-25.5 9t-11.5 27t11.5 27t25.5 9t25 -9t11 -27zM259 911q0 -18 -11.5 -27t-25.5 -9t-25 9t-11 27t11 27t25 9t25.5 -9t11.5 -27z" />
    <glyph glyph-name="macron" unicode="&#xaf;" horiz-adv-x="305" 
d="M30 890v16h246v-16h-246v0z" />
    <glyph glyph-name="acute" unicode="&#xb4;" horiz-adv-x="253" 
d="M42 846l-9 9l2 1q55 67 84.5 103.5t44.5 53.5t20.5 20t10.5 3h1q14 0 21 -9.5t7 -17.5q0 -7 -3 -12.5t-20.5 -20.5t-54 -44.5t-102.5 -84.5z" />
    <glyph glyph-name="grave" unicode="`" horiz-adv-x="254" 
d="M213 847q-66 55 -102.5 84.5t-54 44.5t-20.5 20.5t-3 12.5q0 8 7 17.5t21 9.5h1q5 0 10 -3t20 -20t45 -53.5t85 -103.5l2 -1l-9 -9l-2 1v0z" />
    <glyph glyph-name="breve" unicode="&#x2d8;" horiz-adv-x="347" 
d="M307 954q-8 -47 -44 -76t-88 -29t-88 29t-44 76l9 1q5 -32 39 -50t84 -18q51 0 85 18t39 50l8 -1v0z" />
    <glyph glyph-name="ring" unicode="&#x2da;" horiz-adv-x="276" 
d="M137 845q-23 0 -43.5 8.5t-36 23.5t-24.5 34.5t-9 41.5t9 42t24.5 34.5t36 23t43.5 8.5q24 0 44.5 -8.5t35.5 -23t24 -34.5t9 -42t-9 -41.5t-24 -34.5t-35.5 -23.5t-44.5 -8.5zM137 1048q-14 0 -27 -7.5t-22.5 -20.5t-15 -30.5t-5.5 -36.5q0 -39 20.5 -66.5t49.5 -27.5
t49.5 27.5t20.5 66.5t-20.5 67t-49.5 28z" />
    <glyph glyph-name="ogonek" unicode="&#x2db;" horiz-adv-x="245" 
d="M122 -254q-38 0 -63 20t-25 55q0 39 31 74t91 81h26q-33 -26 -51.5 -49.5t-27.5 -43t-11 -33t-2 -19.5q0 -1 1 -11t6 -22t15 -21.5t29 -9.5q12 0 24.5 4t22 9.5t16 10l6.5 4.5l10 -12q-16 -14 -31.5 -21t-29 -11t-23 -4.5t-12.5 -0.5h-2v0z" />
    <glyph glyph-name="tilde" unicode="&#x2dc;" horiz-adv-x="360" 
d="M311 943h11v-3q-4 -44 -26 -62t-45 -18q-20 0 -40 8.5t-40.5 18t-40 18t-37.5 8.5h-1q-2 0 -8.5 -1t-14 -5.5t-14.5 -14.5t-8 -28v-2h-12v2q1 15 5.5 30t13 27.5t21 20t29.5 7.5q19 0 39.5 -8t41 -18t40.5 -18t39 -8q26 0 35.5 15t11.5 29v2z" />
    <glyph glyph-name="cedilla" unicode="&#xb8;" horiz-adv-x="247" 
d="M116 -87q12 0 30 -4t35.5 -16t29.5 -32.5t12 -53.5q0 -23 -9.5 -41.5t-24.5 -32t-35 -21t-41 -7.5q-29 0 -53 13t-39 36l15 10q10 -15 22 -23t23 -11.5t18.5 -4.5t9.5 -1q37 0 51.5 24.5t14.5 60.5q0 31 -7.5 48.5t-17 25.5t-18.5 10t-12 2q-10 0 -21 -1.5t-25 -6.5
l-1 -1l-10 14l60 81l15 -11l-44 -59q5 1 11 1.5t11 0.5z" />
    <glyph glyph-name="dotaccent" unicode="&#x2d9;" horiz-adv-x="152" 
d="M78 947q15 0 27.5 -9.5t12.5 -29.5t-12.5 -29.5t-27.5 -9.5t-27.5 9.5t-12.5 29.5t12.5 29.5t27.5 9.5z" />
    <glyph glyph-name="hungarumlaut" unicode="&#x2dd;" horiz-adv-x="438" 
d="M42 846l-9 9l2 1q55 67 84.5 103.5t44.5 53.5t20.5 20t10.5 3h1q14 0 21 -9.5t7 -17.5q0 -7 -3 -12.5t-20.5 -20.5t-54 -44.5t-102.5 -84.5zM220 846l-9 9l2 1q55 67 84.5 103.5t44.5 53.5t20.5 20t10.5 3h1q14 0 21 -9.5t7 -17.5q0 -7 -3 -12.5t-20.5 -20.5t-54 -44.5
t-102.5 -84.5z" />
    <glyph glyph-name="caron" unicode="&#x2c7;" horiz-adv-x="396" 
d="M353 1036l8 -9l-1 -1q-54 -66 -84 -102t-45 -53.5t-20.5 -21t-9.5 -3.5h-3h-1h-2q-5 0 -10 3.5t-20 20.5t-45 53.5t-84 102.5l-2 1l9 9l1 -1q2 -2 20.5 -17t42.5 -34.5t49 -40.5t42 -35q16 14 41.5 35t49.5 40.5t42 34.5t20 17z" />
    <glyph glyph-name="dotlessi" unicode="&#x131;" horiz-adv-x="242" 
d="M35 -1v19q29 0 44.5 17t15.5 55v412q0 25 -3 41.5t-10 28.5t-18.5 21.5t-28.5 20.5v14h114v-538q0 -34 15 -53t45 -19v-19h-174z" />
    <glyph glyph-name="AE" unicode="&#xc6;" horiz-adv-x="1129" 
d="M1076 122q-3 -14 -7 -33.5t-8 -37.5q-4 -21 -9 -44l-2 -7h-585v18q29 0 44 17.5t15 55.5v75q-29 7 -55 16.5t-52 20.5q-25 10 -48.5 18t-46.5 13q-50 11 -89 -4l-75 -125q-23 -40 -18 -63.5t35 -23.5h10v-18h-160v18q28 0 54 16t49 53l392 652q-5 20 -17 31t-29 11h-9v19
h579l5 -122h-16l-8 15q-20 42 -62.5 67t-93.5 25h-284v-303h250q45 0 76.5 13.5t40.5 36.5l3 9h17v-142h-17l-3 10q-10 26 -42 41.5t-75 15.5h-250v-451h292q51 0 98 24.5t74 66.5l10 16h17zM423 217q24 -9 49.5 -18.5t51.5 -15.5v526v4l-279 -463q45 10 88.5 -2.5
t89.5 -30.5z" />
    <glyph glyph-name="Aring" unicode="&#xc5;" horiz-adv-x="838" 
d="M187 0h-160v19q28 0 47 16t34 50l294 716h19h-1l306 -711q15 -34 34.5 -52.5t47.5 -18.5v-19h-189v19h12q20 0 31 10.5t11 28.5q0 7 -1.5 14t-5 16.5t-10 23.5t-15.5 36q-58 1 -109.5 17.5t-99 35t-92 34t-88.5 15.5q-33 0 -62 -10q-22 -53 -34.5 -83.5t-19 -47t-8 -24.5
t-1.5 -17q0 -23 12.5 -36t35.5 -13h12v-19zM391 729l-193 -470q25 7 54 7q45 0 89.5 -15t91 -33.5t96.5 -34.5t105 -18zM410 845q-23 0 -43.5 8.5t-36 23.5t-24.5 34.5t-9 41.5t9 42t24.5 34.5t36 23t43.5 8.5q24 0 44.5 -8.5t35.5 -23t24 -34.5t9 -42t-9 -41.5t-24 -34.5
t-35.5 -23.5t-44.5 -8.5zM410 1048q-14 0 -27 -7.5t-22.5 -20.5t-15 -30.5t-5.5 -36.5q0 -39 20.5 -66.5t49.5 -27.5t49.5 27.5t20.5 66.5t-20.5 67t-49.5 28z" />
    <glyph glyph-name="Ccedilla" unicode="&#xc7;" horiz-adv-x="834" 
d="M439 -63q12 0 30 -4t35.5 -16t29.5 -32.5t12 -53.5q0 -23 -9.5 -41.5t-24.5 -32t-35 -21t-41 -7.5q-29 0 -53 13t-39 36l15 10q10 -15 22 -23t23 -11.5t18.5 -4.5t9.5 -1q37 0 51.5 24.5t14.5 60.5q0 31 -7.5 48.5t-17 25.5t-18.5 10t-12 2q-10 0 -21 -1.5t-25 -6.5
l-1 -1l-10 14l51 69q-90 3 -163 33t-124.5 83t-80 126.5t-28.5 162.5q0 91 30 165.5t84.5 128t131 82.5t170.5 29q44 0 89.5 -5t87.5 -14.5t79 -23t66 -29.5l5 -113h-20q-4 7 -8 16t-7 16q-24 50 -71.5 85t-102.5 44q0 1 -17 3t-38.5 3t-40.5 2t-22 1q-78 0 -142.5 -28
t-110.5 -79t-71 -123t-25 -160t25 -160t71 -123.5t110.5 -79.5t142.5 -28q20 0 39.5 1t39.5 3q72 8 130 44.5t83 89.5q3 7 7 16t8 16h20l-5 -113q-29 -16 -65.5 -29t-78.5 -22.5t-87 -15t-89 -5.5l-42 -57q5 1 11 1.5t11 0.5zM779 730q-1 -2 -2 -3t-1 -3z" />
    <glyph glyph-name="Agrave" unicode="&#xc0;" horiz-adv-x="838" 
d="M187 0h-160v19q28 0 47 16t34 50l294 716h19h-1l306 -711q15 -34 34.5 -52.5t47.5 -18.5v-19h-189v19h12q20 0 31 10.5t11 28.5q0 7 -1.5 14t-5 16.5t-10 23.5t-15.5 36q-58 1 -109.5 17.5t-99 35t-92 34t-88.5 15.5q-33 0 -62 -10q-22 -53 -34.5 -83.5t-19 -47t-8 -24.5
t-1.5 -17q0 -23 12.5 -36t35.5 -13h12v-19zM391 729l-193 -470q25 7 54 7q45 0 89.5 -15t91 -33.5t96.5 -34.5t105 -18zM503 847q-66 55 -102.5 84.5t-54 44.5t-20.5 20.5t-3 12.5q0 8 7 17.5t21 9.5h1q5 0 10 -3t20 -20t45 -53.5t85 -103.5l2 -1l-9 -9l-2 1v0z" />
    <glyph glyph-name="Aacute" unicode="&#xc1;" horiz-adv-x="838" 
d="M187 0h-160v19q28 0 47 16t34 50l294 716h19h-1l306 -711q15 -34 34.5 -52.5t47.5 -18.5v-19h-189v19h12q20 0 31 10.5t11 28.5q0 7 -1.5 14t-5 16.5t-10 23.5t-15.5 36q-58 1 -109.5 17.5t-99 35t-92 34t-88.5 15.5q-33 0 -62 -10q-22 -53 -34.5 -83.5t-19 -47t-8 -24.5
t-1.5 -17q0 -23 12.5 -36t35.5 -13h12v-19zM391 729l-193 -470q25 7 54 7q45 0 89.5 -15t91 -33.5t96.5 -34.5t105 -18zM332 846l-9 9l2 1q55 67 84.5 103.5t44.5 53.5t20.5 20t10.5 3h1q14 0 21 -9.5t7 -17.5q0 -7 -3 -12.5t-20.5 -20.5t-54 -44.5t-102.5 -84.5z" />
    <glyph glyph-name="Acircumflex" unicode="&#xc2;" horiz-adv-x="838" 
d="M187 0h-160v19q28 0 47 16t34 50l294 716h19h-1l306 -711q15 -34 34.5 -52.5t47.5 -18.5v-19h-189v19h12q20 0 31 10.5t11 28.5q0 7 -1.5 14t-5 16.5t-10 23.5t-15.5 36q-58 1 -109.5 17.5t-99 35t-92 34t-88.5 15.5q-33 0 -62 -10q-22 -53 -34.5 -83.5t-19 -47t-8 -24.5
t-1.5 -17q0 -23 12.5 -36t35.5 -13h12v-19zM391 729l-193 -470q25 7 54 7q45 0 89.5 -15t91 -33.5t96.5 -34.5t105 -18zM572 847q-2 2 -20 17t-42 34.5t-49.5 40.5t-41.5 35q-17 -14 -42 -35t-49 -40.5t-42.5 -34.5t-20.5 -17l-1 -1l-9 9l2 1q54 66 84 102.5t45 53.5
t20 20.5t10 3.5h2h1h3q4 0 9.5 -3.5t20.5 -21t45 -53.5t84 -102l1 -1l-8 -9l-2 1v0z" />
    <glyph glyph-name="Atilde" unicode="&#xc3;" horiz-adv-x="838" 
d="M187 0h-160v19q28 0 47 16t34 50l294 716h19h-1l306 -711q15 -34 34.5 -52.5t47.5 -18.5v-19h-189v19h12q20 0 31 10.5t11 28.5q0 7 -1.5 14t-5 16.5t-10 23.5t-15.5 36q-58 1 -109.5 17.5t-99 35t-92 34t-88.5 15.5q-33 0 -62 -10q-22 -53 -34.5 -83.5t-19 -47t-8 -24.5
t-1.5 -17q0 -23 12.5 -36t35.5 -13h12v-19zM391 729l-193 -470q25 7 54 7q45 0 89.5 -15t91 -33.5t96.5 -34.5t105 -18zM551 943h11v-3q-4 -44 -26 -62t-45 -18q-20 0 -40 8.5t-40.5 18t-40 18t-37.5 8.5h-1q-2 0 -8.5 -1t-14 -5.5t-14.5 -14.5t-8 -28v-2h-12v2q1 15 5.5 30
t13 27.5t21 20t29.5 7.5q19 0 39.5 -8t41 -18t40.5 -18t39 -8q26 0 35.5 15t11.5 29v2z" />
    <glyph glyph-name="Adieresis" unicode="&#xc4;" horiz-adv-x="838" 
d="M187 0h-160v19q28 0 47 16t34 50l294 716h19h-1l306 -711q15 -34 34.5 -52.5t47.5 -18.5v-19h-189v19h12q20 0 31 10.5t11 28.5q0 7 -1.5 14t-5 16.5t-10 23.5t-15.5 36q-58 1 -109.5 17.5t-99 35t-92 34t-88.5 15.5q-33 0 -62 -10q-22 -53 -34.5 -83.5t-19 -47t-8 -24.5
t-1.5 -17q0 -23 12.5 -36t35.5 -13h12v-19zM391 729l-193 -470q25 7 54 7q45 0 89.5 -15t91 -33.5t96.5 -34.5t105 -18zM378 911q0 -18 -11 -27t-25 -9t-25.5 9t-11.5 27t11.5 27t25.5 9t25 -9t11 -27zM533 911q0 -18 -11.5 -27t-25.5 -9t-25 9t-11 27t11 27t25 9t25.5 -9
t11.5 -27z" />
    <glyph glyph-name="Egrave" unicode="&#xc8;" horiz-adv-x="708" 
d="M664 122q-10 -50 -17 -84t-8 -38h-586v19q29 0 44.5 17t15.5 55v618q0 33 -14 52.5t-37 19.5h-9v19h579q0 -29 2 -61.5t3 -61.5h-16l-7 17q-20 42 -63 66.5t-94 24.5h-284v-303h250q45 0 77 13.5t40 36.5l4 9h16v-142h-16l-4 10q-10 26 -41.5 42t-75.5 16h-250v-452h293
q51 0 97.5 24.5t73.5 66.5l12 16h15v0zM438 847q-66 55 -102.5 84.5t-54 44.5t-20.5 20.5t-3 12.5q0 8 7 17.5t21 9.5h1q5 0 10 -3t20 -20t45 -53.5t85 -103.5l2 -1l-9 -9l-2 1v0z" />
    <glyph glyph-name="Eacute" unicode="&#xc9;" horiz-adv-x="708" 
d="M664 122q-10 -50 -17 -84t-8 -38h-586v19q29 0 44.5 17t15.5 55v618q0 33 -14 52.5t-37 19.5h-9v19h579q0 -29 2 -61.5t3 -61.5h-16l-7 17q-20 42 -63 66.5t-94 24.5h-284v-303h250q45 0 77 13.5t40 36.5l4 9h16v-142h-16l-4 10q-10 26 -41.5 42t-75.5 16h-250v-452h293
q51 0 97.5 24.5t73.5 66.5l12 16h15v0zM267 846l-9 9l2 1q55 67 84.5 103.5t44.5 53.5t20.5 20t10.5 3h1q14 0 21 -9.5t7 -17.5q0 -7 -3 -12.5t-20.5 -20.5t-54 -44.5t-102.5 -84.5z" />
    <glyph glyph-name="Ecircumflex" unicode="&#xca;" horiz-adv-x="708" 
d="M664 122q-10 -50 -17 -84t-8 -38h-586v19q29 0 44.5 17t15.5 55v618q0 33 -14 52.5t-37 19.5h-9v19h579q0 -29 2 -61.5t3 -61.5h-16l-7 17q-20 42 -63 66.5t-94 24.5h-284v-303h250q45 0 77 13.5t40 36.5l4 9h16v-142h-16l-4 10q-10 26 -41.5 42t-75.5 16h-250v-452h293
q51 0 97.5 24.5t73.5 66.5l12 16h15v0zM507 847q-2 2 -20 17t-42 34.5t-49.5 40.5t-41.5 35q-17 -14 -42 -35t-49 -40.5t-42.5 -34.5t-20.5 -17l-1 -1l-9 9l2 1q54 66 84 102.5t45 53.5t20 20.5t10 3.5h2h1h3q4 0 9.5 -3.5t20.5 -21t45 -53.5t84 -102l1 -1l-8 -9l-2 1v0z
" />
    <glyph glyph-name="Edieresis" unicode="&#xcb;" horiz-adv-x="708" 
d="M664 122q-10 -50 -17 -84t-8 -38h-586v19q29 0 44.5 17t15.5 55v618q0 33 -14 52.5t-37 19.5h-9v19h579q0 -29 2 -61.5t3 -61.5h-16l-7 17q-20 42 -63 66.5t-94 24.5h-284v-303h250q45 0 77 13.5t40 36.5l4 9h16v-142h-16l-4 10q-10 26 -41.5 42t-75.5 16h-250v-452h293
q51 0 97.5 24.5t73.5 66.5l12 16h15v0zM313 911q0 -18 -11 -27t-25 -9t-25.5 9t-11.5 27t11.5 27t25.5 9t25 -9t11 -27zM468 911q0 -18 -11.5 -27t-25.5 -9t-25 9t-11 27t11 27t25 9t25.5 -9t11.5 -27z" />
    <glyph glyph-name="Igrave" unicode="&#xcc;" horiz-adv-x="288" 
d="M234 0h-180v19q29 0 44.5 17t15.5 55v618q0 33 -13.5 52.5t-36.5 19.5h-10v19h180v-19q-29 0 -44 -17t-15 -55v-618q0 -33 13.5 -52.5t36.5 -19.5h9v-19zM228 847q-66 55 -102.5 84.5t-54 44.5t-20.5 20.5t-3 12.5q0 8 7 17.5t21 9.5h1q5 0 10 -3t20 -20t45 -53.5
t85 -103.5l2 -1l-9 -9l-2 1v0z" />
    <glyph glyph-name="Iacute" unicode="&#xcd;" horiz-adv-x="288" 
d="M234 0h-180v19q29 0 44.5 17t15.5 55v618q0 33 -13.5 52.5t-36.5 19.5h-10v19h180v-19q-29 0 -44 -17t-15 -55v-618q0 -33 13.5 -52.5t36.5 -19.5h9v-19zM57 846l-9 9l2 1q55 67 84.5 103.5t44.5 53.5t20.5 20t10.5 3h1q14 0 21 -9.5t7 -17.5q0 -7 -3 -12.5t-20.5 -20.5
t-54 -44.5t-102.5 -84.5z" />
    <glyph glyph-name="Icircumflex" unicode="&#xce;" horiz-adv-x="288" 
d="M234 0h-180v19q29 0 44.5 17t15.5 55v618q0 33 -13.5 52.5t-36.5 19.5h-10v19h180v-19q-29 0 -44 -17t-15 -55v-618q0 -33 13.5 -52.5t36.5 -19.5h9v-19zM298 847q-2 2 -20 17t-42 34.5t-49.5 40.5t-41.5 35q-17 -14 -42 -35t-49 -40.5t-42.5 -34.5t-20.5 -17l-1 -1l-9 9
l2 1q54 66 84 102.5t45 53.5t20 20.5t10 3.5h2h1h3q4 0 9.5 -3.5t20.5 -21t45 -53.5t84 -102l1 -1l-8 -9l-2 1v0z" />
    <glyph glyph-name="Idieresis" unicode="&#xcf;" horiz-adv-x="288" 
d="M234 0h-180v19q29 0 44.5 17t15.5 55v618q0 33 -13.5 52.5t-36.5 19.5h-10v19h180v-19q-29 0 -44 -17t-15 -55v-618q0 -33 13.5 -52.5t36.5 -19.5h9v-19zM103 911q0 -18 -11 -27t-25 -9t-25.5 9t-11.5 27t11.5 27t25.5 9t25 -9t11 -27zM258 911q0 -18 -11.5 -27t-25.5 -9
t-25 9t-11 27t11 27t25 9t25.5 -9t11.5 -27z" />
    <glyph glyph-name="Eth" unicode="&#xd0;" horiz-adv-x="865" 
d="M38 414h118v295q0 34 -14 53.5t-37 19.5h-9v18h320q93 0 168.5 -28.5t129 -81t83 -126t29.5 -163.5t-25.5 -164t-71.5 -126.5t-111.5 -81.5t-144.5 -29h-377v19q29 0 44.5 17t15.5 55v297h-118v26zM473 16q66 0 120 27.5t92.5 78t59.5 121.5t21 158q0 86 -25 157
t-71 121.5t-110.5 78t-143.5 27.5h-200v-371h124v-26h-124v-372h257z" />
    <glyph glyph-name="Ntilde" unicode="&#xd1;" horiz-adv-x="855" 
d="M133 91q0 -33 13.5 -52.5t36.5 -19.5h10v-19h-138v19q29 0 44.5 17t15.5 55v618q0 34 -14 53.5t-37 19.5h-9v18h115l553 -711v620q0 34 -13.5 53.5t-36.5 19.5h-9v18h137v-18q-29 0 -44 -17.5t-15 -55.5v-720h-20l-27 36l-562 721v-655v0zM560 943h11v-3q-4 -44 -26 -62
t-45 -18q-20 0 -40 8.5t-40.5 18t-40 18t-37.5 8.5h-1q-2 0 -8.5 -1t-14 -5.5t-14.5 -14.5t-8 -28v-2h-12v2q1 15 5.5 30t13 27.5t21 20t29.5 7.5q19 0 39.5 -8t41 -18t40.5 -18t39 -8q26 0 35.5 15t11.5 29v2z" />
    <glyph glyph-name="Ograve" unicode="&#xd2;" horiz-adv-x="871" 
d="M836 403q0 -82 -25.5 -156t-75.5 -129.5t-124.5 -88t-172.5 -32.5q-99 0 -173.5 32.5t-124.5 88t-75.5 129.5t-25.5 156t25.5 155.5t75.5 129t124.5 88t173.5 32.5q98 0 172.5 -32.5t124.5 -88t75.5 -129t25.5 -155.5zM438 12q82 0 143.5 31.5t103 85t62.5 124.5t21 150
t-21 149.5t-62.5 124t-103 85t-143.5 31.5t-144 -31.5t-104 -85t-63 -124t-21 -149.5t21 -150t63 -124.5t104 -85t144 -31.5zM520 847q-66 55 -102.5 84.5t-54 44.5t-20.5 20.5t-3 12.5q0 8 7 17.5t21 9.5h1q5 0 10 -3t20 -20t45 -53.5t85 -103.5l2 -1l-9 -9l-2 1v0z" />
    <glyph glyph-name="Oacute" unicode="&#xd3;" horiz-adv-x="871" 
d="M836 403q0 -82 -25.5 -156t-75.5 -129.5t-124.5 -88t-172.5 -32.5q-99 0 -173.5 32.5t-124.5 88t-75.5 129.5t-25.5 156t25.5 155.5t75.5 129t124.5 88t173.5 32.5q98 0 172.5 -32.5t124.5 -88t75.5 -129t25.5 -155.5zM438 12q82 0 143.5 31.5t103 85t62.5 124.5t21 150
t-21 149.5t-62.5 124t-103 85t-143.5 31.5t-144 -31.5t-104 -85t-63 -124t-21 -149.5t21 -150t63 -124.5t104 -85t144 -31.5zM349 846l-9 9l2 1q55 67 84.5 103.5t44.5 53.5t20.5 20t10.5 3h1q14 0 21 -9.5t7 -17.5q0 -7 -3 -12.5t-20.5 -20.5t-54 -44.5t-102.5 -84.5z" />
    <glyph glyph-name="Ocircumflex" unicode="&#xd4;" horiz-adv-x="871" 
d="M836 403q0 -82 -25.5 -156t-75.5 -129.5t-124.5 -88t-172.5 -32.5q-99 0 -173.5 32.5t-124.5 88t-75.5 129.5t-25.5 156t25.5 155.5t75.5 129t124.5 88t173.5 32.5q98 0 172.5 -32.5t124.5 -88t75.5 -129t25.5 -155.5zM438 12q82 0 143.5 31.5t103 85t62.5 124.5t21 150
t-21 149.5t-62.5 124t-103 85t-143.5 31.5t-144 -31.5t-104 -85t-63 -124t-21 -149.5t21 -150t63 -124.5t104 -85t144 -31.5zM589 847q-2 2 -20 17t-42 34.5t-49.5 40.5t-41.5 35q-17 -14 -42 -35t-49 -40.5t-42.5 -34.5t-20.5 -17l-1 -1l-9 9l2 1q54 66 84 102.5t45 53.5
t20 20.5t10 3.5h2h1h3q4 0 9.5 -3.5t20.5 -21t45 -53.5t84 -102l1 -1l-8 -9l-2 1v0z" />
    <glyph glyph-name="Otilde" unicode="&#xd5;" horiz-adv-x="871" 
d="M836 403q0 -82 -25.5 -156t-75.5 -129.5t-124.5 -88t-172.5 -32.5q-99 0 -173.5 32.5t-124.5 88t-75.5 129.5t-25.5 156t25.5 155.5t75.5 129t124.5 88t173.5 32.5q98 0 172.5 -32.5t124.5 -88t75.5 -129t25.5 -155.5zM438 12q82 0 143.5 31.5t103 85t62.5 124.5t21 150
t-21 149.5t-62.5 124t-103 85t-143.5 31.5t-144 -31.5t-104 -85t-63 -124t-21 -149.5t21 -150t63 -124.5t104 -85t144 -31.5zM568 943h11v-3q-4 -44 -26 -62t-45 -18q-20 0 -40 8.5t-40.5 18t-40 18t-37.5 8.5h-1q-2 0 -8.5 -1t-14 -5.5t-14.5 -14.5t-8 -28v-2h-12v2
q1 15 5.5 30t13 27.5t21 20t29.5 7.5q19 0 39.5 -8t41 -18t40.5 -18t39 -8q26 0 35.5 15t11.5 29v2z" />
    <glyph glyph-name="Odieresis" unicode="&#xd6;" horiz-adv-x="871" 
d="M836 403q0 -82 -25.5 -156t-75.5 -129.5t-124.5 -88t-172.5 -32.5q-99 0 -173.5 32.5t-124.5 88t-75.5 129.5t-25.5 156t25.5 155.5t75.5 129t124.5 88t173.5 32.5q98 0 172.5 -32.5t124.5 -88t75.5 -129t25.5 -155.5zM438 12q82 0 143.5 31.5t103 85t62.5 124.5t21 150
t-21 149.5t-62.5 124t-103 85t-143.5 31.5t-144 -31.5t-104 -85t-63 -124t-21 -149.5t21 -150t63 -124.5t104 -85t144 -31.5zM394 911q0 -18 -11 -27t-25 -9t-25.5 9t-11.5 27t11.5 27t25.5 9t25 -9t11 -27zM549 911q0 -18 -11.5 -27t-25.5 -9t-25 9t-11 27t11 27t25 9
t25.5 -9t11.5 -27z" />
    <glyph glyph-name="Oslash" unicode="&#xd8;" horiz-adv-x="871" 
d="M295 18q-63 21 -111 59t-80.5 88.5t-48.5 111t-16 126.5q0 82 25.5 155.5t75.5 129t124.5 88t173.5 32.5q34 0 64.5 -4t58.5 -12l38 109h21l-39 -115q63 -21 110.5 -58.5t80 -88t48.5 -110.5t16 -126q0 -82 -25.5 -156t-75.5 -129.5t-124.5 -88t-172.5 -32.5
q-68 0 -123 15l-44 -127h-21zM106 403q0 -61 12.5 -117t37 -104t61.5 -84.5t86 -58.5l252 734q-54 20 -117 20q-82 0 -144 -31.5t-104 -85t-63 -124t-21 -149.5zM438 12q82 0 143.5 31.5t103 85t62.5 124.5t21 150q0 60 -12.5 116t-37 103.5t-61 84t-84.5 58.5l-252 -734
q55 -19 117 -19z" />
    <glyph glyph-name="Ugrave" unicode="&#xd9;" horiz-adv-x="884" 
d="M681 800h157v-19h-11q-11 0 -21 -7t-18 -18.5t-13 -26.5t-5 -31v-441q0 -51 -22 -98t-63 -83t-101 -57t-135 -21q-78 0 -140.5 23.5t-105.5 64t-66 94t-23 113.5v415q0 29 -15.5 51t-35.5 22h-9v19h180v-19h-9q-19 0 -33.5 -20t-16.5 -47l1 -434q0 -52 19.5 -99t55.5 -83
t88 -57t118 -21q69 0 123.5 20t92.5 53.5t58 77.5t20 92l1 441q-2 31 -19.5 54t-40.5 23h-11v19zM526 847q-66 55 -102.5 84.5t-54 44.5t-20.5 20.5t-3 12.5q0 8 7 17.5t21 9.5h1q5 0 10 -3t20 -20t45 -53.5t85 -103.5l2 -1l-9 -9l-2 1v0z" />
    <glyph glyph-name="Uacute" unicode="&#xda;" horiz-adv-x="884" 
d="M681 800h157v-19h-11q-11 0 -21 -7t-18 -18.5t-13 -26.5t-5 -31v-441q0 -51 -22 -98t-63 -83t-101 -57t-135 -21q-78 0 -140.5 23.5t-105.5 64t-66 94t-23 113.5v415q0 29 -15.5 51t-35.5 22h-9v19h180v-19h-9q-19 0 -33.5 -20t-16.5 -47l1 -434q0 -52 19.5 -99t55.5 -83
t88 -57t118 -21q69 0 123.5 20t92.5 53.5t58 77.5t20 92l1 441q-2 31 -19.5 54t-40.5 23h-11v19zM355 846l-9 9l2 1q55 67 84.5 103.5t44.5 53.5t20.5 20t10.5 3h1q14 0 21 -9.5t7 -17.5q0 -7 -3 -12.5t-20.5 -20.5t-54 -44.5t-102.5 -84.5z" />
    <glyph glyph-name="Ucircumflex" unicode="&#xdb;" horiz-adv-x="884" 
d="M681 800h157v-19h-11q-11 0 -21 -7t-18 -18.5t-13 -26.5t-5 -31v-441q0 -51 -22 -98t-63 -83t-101 -57t-135 -21q-78 0 -140.5 23.5t-105.5 64t-66 94t-23 113.5v415q0 29 -15.5 51t-35.5 22h-9v19h180v-19h-9q-19 0 -33.5 -20t-16.5 -47l1 -434q0 -52 19.5 -99t55.5 -83
t88 -57t118 -21q69 0 123.5 20t92.5 53.5t58 77.5t20 92l1 441q-2 31 -19.5 54t-40.5 23h-11v19zM595 847q-2 2 -20 17t-42 34.5t-49.5 40.5t-41.5 35q-17 -14 -42 -35t-49 -40.5t-42.5 -34.5t-20.5 -17l-1 -1l-9 9l2 1q54 66 84 102.5t45 53.5t20 20.5t10 3.5h2h1h3
q4 0 9.5 -3.5t20.5 -21t45 -53.5t84 -102l1 -1l-8 -9l-2 1v0z" />
    <glyph glyph-name="Udieresis" unicode="&#xdc;" horiz-adv-x="884" 
d="M681 800h157v-19h-11q-11 0 -21 -7t-18 -18.5t-13 -26.5t-5 -31v-441q0 -51 -22 -98t-63 -83t-101 -57t-135 -21q-78 0 -140.5 23.5t-105.5 64t-66 94t-23 113.5v415q0 29 -15.5 51t-35.5 22h-9v19h180v-19h-9q-19 0 -33.5 -20t-16.5 -47l1 -434q0 -52 19.5 -99t55.5 -83
t88 -57t118 -21q69 0 123.5 20t92.5 53.5t58 77.5t20 92l1 441q-2 31 -19.5 54t-40.5 23h-11v19zM401 911q0 -18 -11 -27t-25 -9t-25.5 9t-11.5 27t11.5 27t25.5 9t25 -9t11 -27zM556 911q0 -18 -11.5 -27t-25.5 -9t-25 9t-11 27t11 27t25 9t25.5 -9t11.5 -27z" />
    <glyph glyph-name="Yacute" unicode="&#xdd;" horiz-adv-x="801" 
d="M617 800h146v-19q-51 0 -97 -72q-8 -12 -13 -20.5t-13 -22t-21.5 -36.5t-37.5 -64.5t-62 -105.5t-94 -159v-210q0 -32 14 -52t37 -20h9v-19h-180v19h9q23 0 37 20t14 52v187l-243 431q-23 35 -44 53.5t-44 18.5v19h178v-19h-10q-24 0 -24 -22q0 -19 16 -45l225 -390
l219 371q21 36 21 58q0 28 -30 28h-8q-4 0 -4 10v9zM314 846l-9 9l2 1q55 67 84.5 103.5t44.5 53.5t20.5 20t10.5 3h1q14 0 21 -9.5t7 -17.5q0 -7 -3 -12.5t-20.5 -20.5t-54 -44.5t-102.5 -84.5z" />
    <glyph glyph-name="Ydieresis" unicode="&#x178;" horiz-adv-x="801" 
d="M617 800h146v-19q-51 0 -97 -72q-8 -12 -13 -20.5t-13 -22t-21.5 -36.5t-37.5 -64.5t-62 -105.5t-94 -159v-210q0 -32 14 -52t37 -20h9v-19h-180v19h9q23 0 37 20t14 52v187l-243 431q-23 35 -44 53.5t-44 18.5v19h178v-19h-10q-24 0 -24 -22q0 -19 16 -45l225 -390
l219 371q21 36 21 58q0 28 -30 28h-8q-4 0 -4 10v9zM359 911q0 -18 -11 -27t-25 -9t-25.5 9t-11.5 27t11.5 27t25.5 9t25 -9t11 -27zM514 911q0 -18 -11.5 -27t-25.5 -9t-25 9t-11 27t11 27t25 9t25.5 -9t11.5 -27z" />
    <glyph glyph-name="Zcaron" unicode="&#x17d;" horiz-adv-x="722" 
d="M667 135l10 -2l8 -2t8 -1l-27 -130h-644l578 785h-346q-20 0 -42 -6t-43 -16.5t-40.5 -25.5t-34.5 -33l-11 -14h-19l32 103l2 7h583l-578 -784h401q45 0 88 28t67 73zM516 1036l8 -9l-1 -1q-54 -66 -84 -102t-45 -53.5t-20.5 -21t-9.5 -3.5h-3h-1h-2q-5 0 -10 3.5
t-20 20.5t-45 53.5t-84 102.5l-2 1l9 9l1 -1q2 -2 20.5 -17t42.5 -34.5t49 -40.5t42 -35q16 14 41.5 35t49.5 40.5t42 34.5t20 17z" />
    <glyph glyph-name="Scaron" unicode="&#x160;" horiz-adv-x="694" 
d="M114 658q0 -30 23 -51.5t61 -39.5t86.5 -33.5t99.5 -33.5t99.5 -40.5t86.5 -53.5t61 -72.5t23 -98.5q0 -45 -22 -88t-60 -77t-89 -54.5t-109 -20.5q-51 0 -99.5 4t-91.5 11.5t-78 18.5t-60 25l-4 117h20l15 -30q23 -47 65.5 -78.5t93.5 -42.5q35 -5 69 -7.5t70 -2.5
q48 0 91.5 17t76.5 45.5t52 64.5t19 75q0 49 -23 85t-61.5 63.5t-87 48.5t-99 39t-99 36t-87 39t-61.5 48t-23 63q0 48 21.5 81t57 53t80 29t90.5 9q36 0 72.5 -4.5t70.5 -12.5t63.5 -19t51.5 -23q-5 -8 -5 -10l5 9l4 -118h-20q-8 14 -14.5 31.5t-14.5 32.5
q-9 19 -24.5 36.5t-40.5 31.5t-62 22.5t-88 8.5q-38 0 -75 -6t-66 -21t-46.5 -41t-17.5 -65zM502 1036l8 -9l-1 -1q-54 -66 -84 -102t-45 -53.5t-20.5 -21t-9.5 -3.5h-3h-1h-2q-5 0 -10 3.5t-20 20.5t-45 53.5t-84 102.5l-2 1l9 9l1 -1q2 -2 20.5 -17t42.5 -34.5t49 -40.5
t42 -35q16 14 41.5 35t49.5 40.5t42 34.5t20 17z" />
    <glyph glyph-name="exclamdown" unicode="&#xa1;" horiz-adv-x="237" 
d="M121 634h3q3 -41 6 -100.5t6.5 -124.5t7 -129.5t6 -117.5t4 -87.5t1.5 -38.5q0 -18 -11 -26.5t-25 -8.5t-25 8.5t-11 26.5q0 4 1.5 38.5t4 87.5t5.5 117.5t6.5 129.5t6.5 124.5t6 100.5h3h5zM119 723q-15 0 -27.5 9t-12.5 29t12.5 29.5t27.5 9.5q14 0 26.5 -9.5
t12.5 -29.5t-12 -29t-27 -9z" />
    <glyph glyph-name="questiondown" unicode="&#xbf;" horiz-adv-x="574" 
d="M256 727q-15 0 -27.5 9.5t-12.5 29.5t12.5 29.5t27.5 9.5t27 -9.5t12 -29.5t-12 -29.5t-27 -9.5zM276 0q-12 0 -37.5 2t-57.5 12.5t-66 34t-63 66.5l13 9q5 -7 18 -23t35 -32t53.5 -28t73.5 -12q40 0 78.5 11t68.5 33.5t48.5 56t18.5 77.5t-15.5 77t-39 61.5t-51 56
t-51 60.5t-39 74t-15.5 97v4h12q0 -31 5.5 -51.5t8.5 -29.5q14 -39 37.5 -67.5t51 -52.5t55.5 -45.5t50.5 -47t37 -57.5t14.5 -76t-16 -82t-47 -66.5t-76.5 -45t-104.5 -16.5z" />
    <glyph glyph-name="bar" unicode="|" horiz-adv-x="136" 
d="M80 873v-946h-24v946h24v0z" />
    <glyph glyph-name="a" unicode="a" horiz-adv-x="628" 
d="M608 45q-21 -21 -45.5 -33.5t-58.5 -12.5q-27 0 -41 13t-19.5 33.5t-5.5 46v50.5q-10 -25 -32 -50t-53.5 -45.5t-69.5 -33.5t-80 -13q-28 0 -57.5 9.5t-53.5 28.5t-39 47.5t-15 66.5q0 48 28.5 80.5t72 55.5t94 40.5t95 36.5t75.5 42t35 57q0 47 -13 76t-33 45
t-43.5 21.5t-43.5 5.5q-67 0 -109.5 -27t-51.5 -72h-55q11 51 65 82.5t151 31.5q36 0 70.5 -10t61.5 -31t43.5 -53t16.5 -75v-365q0 -31 9 -49.5t36 -18.5q20 0 33.5 7.5t26.5 20.5zM438 182v126v66.5t0.5 26t0.5 5v2.5v19q-16 -25 -46.5 -43.5t-66.5 -34t-74.5 -31.5
t-71 -36.5t-56 -47.5t-29.5 -66q-5 -33 4.5 -59t28.5 -44t46 -27.5t57 -9.5q33 0 67.5 11.5t64 32t50 49t25.5 61.5z" />
    <glyph glyph-name="b" unicode="b" horiz-adv-x="707" 
d="M139 25q-13 0 -23.5 -7.5t-14.5 -21.5h-6v728q0 25 -3 41.5t-9.5 28.5t-18 21.5t-29.5 20.5v14h115v-294q49 26 109.5 41.5t114.5 15.5q62 0 112.5 -22.5t86 -63.5t55 -98.5t19.5 -128.5t-21.5 -128t-60.5 -97.5t-94.5 -62.5t-123.5 -22q-29 0 -56 5.5t-53 12t-50.5 12
t-48.5 5.5zM589 275q0 71 -18.5 129t-52 99t-81.5 63t-106 22q-48 0 -97 -11t-84 -29v-391q0 -69 53.5 -110.5t143.5 -41.5q55 0 100 19.5t76.5 54.5t48.5 85t17 111z" />
    <glyph glyph-name="c" unicode="c" horiz-adv-x="641" 
d="M328 0q-59 0 -109.5 21t-88.5 59t-59.5 92.5t-21.5 120.5q0 75 22.5 135.5t63.5 104t99 67t129 23.5q44 0 82.5 -11t67.5 -30.5t46.5 -45t20.5 -53.5q0 -24 -24 -24q-11 0 -19 7t-9 20q-2 25 -17.5 47t-39 38.5t-53.5 26t-62 9.5q-56 0 -102 -20.5t-78.5 -59t-50.5 -92.5
t-18 -120q0 -63 12.5 -116.5t42 -92.5t78 -60.5t120.5 -21.5q46 0 83.5 17.5t67 43t49.5 54.5t32 52l14 -2q-24 -54 -63 -95q-17 -18 -38 -34.5t-48 -30t-59 -21.5t-70 -8z" />
    <glyph glyph-name="d" unicode="d" horiz-adv-x="727" 
d="M575 -2v67q-37 -33 -99.5 -52.5t-131.5 -19.5q-58 0 -109.5 22.5t-90 62.5t-61 94.5t-22.5 118.5q0 77 24 137.5t65.5 102t97 63t117.5 21.5q69 0 124.5 -24t85.5 -61v197q0 25 -3 41.5t-9.5 28.5t-18 21t-28.5 20v14h114v-728q0 -25 2.5 -41.5t9.5 -28.5t18.5 -21.5
t28.5 -20.5v-14h-114zM575 504q-12 20 -33 37.5t-48.5 30.5t-61 20.5t-69.5 7.5q-50 0 -94 -19t-78 -55.5t-53.5 -90.5t-19.5 -123q0 -61 20.5 -113.5t55.5 -90.5t81.5 -60t97.5 -22q69 0 123.5 13t78.5 33v432z" />
    <glyph glyph-name="e" unicode="e" horiz-adv-x="645" 
d="M607 193q-24 -54 -63 -95q-17 -18 -38 -34.5t-48 -30t-59 -21.5t-70 -8q-58 0 -109 21t-88.5 59t-59.5 92t-22 120q2 92 34 165q13 31 34.5 60.5t52.5 52.5t73.5 37.5t98.5 14.5q48 0 89.5 -14t72 -40t48 -62.5t17.5 -81.5h-450q-12 -50 -12 -109q0 -64 13 -117.5
t42.5 -92t77.5 -60t120 -21.5q46 0 83.5 17.5t67 43t49.5 54.5t32 52zM340 611q-78 0 -136.5 -46t-80.5 -127l376 9q7 0 11.5 3.5t6 8t2 9t0.5 5.5q0 31 -14 56.5t-38.5 43.5t-57 28t-69.5 10z" />
    <glyph glyph-name="f" unicode="f" horiz-adv-x="442" 
d="M67 0v19h9q23 0 36.5 20t13.5 52v478h-109v14h109q1 45 2 92.5t15.5 87.5t50.5 65.5t107 25.5q41 0 70.5 -11.5t48.5 -28.5t28.5 -36.5t10.5 -34.5q0 -12 -7 -18t-16 -6t-16.5 6t-8.5 18q-2 13 -7.5 30t-18 32.5t-33 26t-52.5 10.5q-39 0 -62.5 -14t-36 -39.5t-16.5 -61
t-4 -78.5v-66h170v-14h-170v-478q0 -32 13.5 -52t36.5 -20h9v-19h-173z" />
    <glyph glyph-name="g" unicode="g" horiz-adv-x="608" 
d="M581 -66q2 -43 -18 -82.5t-61.5 -69t-103.5 -44.5t-145 -10q-71 4 -115.5 26t-69 53t-32.5 66.5t-6.5 67.5t9 55.5t14.5 31.5l46 -26q-10 -13 -18 -36t-9.5 -50t6 -56t28.5 -53.5t58 -42t95 -21.5q71 -5 125.5 6t91 34t56 55t20.5 68q2 45 -19.5 72.5t-57.5 43
t-82.5 22.5t-95 11.5t-94.5 10t-81.5 17t-56 33.5t-17.5 60q2 40 24.5 60t59.5 28q-26 21 -40 45.5t-21 47t-8.5 39.5t-1.5 24q0 47 18 85t50.5 65t78.5 42t103 15q24 0 49 -3t49 -10q28 42 69.5 59.5t86.5 3.5q22 -8 14 -31q-5 -11 -14.5 -15.5t-22.5 -0.5q-33 10 -62 3.5
t-51 -26.5q27 -11 51.5 -27t43 -39t29 -53t10.5 -68q0 -48 -18 -86.5t-51 -65.5t-79.5 -42t-103.5 -15q-59 0 -100 12.5t-69 32.5q-25 -5 -39.5 -19t-14.5 -40q0 -31 20.5 -48t55 -26t78 -12.5t89 -8t89.5 -13t79 -26.5t57.5 -49t24.5 -80zM108 420q0 -47 15.5 -83.5
t42.5 -61.5t64 -38t81 -13t81.5 13t64.5 38t42 61.5t15 83.5q0 46 -15 82t-42 61t-64.5 38t-81.5 13t-81 -13t-64 -38t-42.5 -61t-15.5 -82z" />
    <glyph glyph-name="h" unicode="h" 
d="M663 20v-19h-173v19q29 0 44 17t15 55v309q0 103 -47 152.5t-128 49.5q-63 0 -120.5 -32t-101.5 -79v-400q0 -33 13.5 -52.5t36.5 -19.5h9v-19h-173v19q29 0 44 17t15 55v637q0 25 -3 41.5t-9.5 28.5t-18 21.5t-28.5 20.5v14h114v-343q13 13 35 31t51.5 34.5t66 28.5
t78.5 12q45 0 85.5 -11.5t70.5 -37t47.5 -65.5t17.5 -97v-315q0 -33 13.5 -52.5t36.5 -19.5h9z" />
    <glyph glyph-name="i" unicode="i" horiz-adv-x="242" 
d="M35 -1v19q29 0 44.5 17t15.5 55v412q0 25 -3 41.5t-10 28.5t-18.5 21.5t-28.5 20.5v14h114v-538q0 -34 15 -53t45 -19v-19h-174zM82 727q0 18 11.5 27t25 9t25 -9t11.5 -27t-11.5 -27t-25 -9t-25 9t-11.5 27z" />
    <glyph glyph-name="j" unicode="j" horiz-adv-x="245" 
d="M150 629v-587q0 -54 -10 -93.5t-33.5 -72.5t-61.5 -63t-94 -65l-5 8q42 26 70.5 50.5t45.5 54.5t24.5 70t7.5 97l0.5 23t0.5 62v89v103.5v106.5v97q0 23 -3 38.5t-10 27t-18.5 20.5t-27.5 20v14h114zM82 746q0 18 11.5 27t25.5 9t25.5 -9t11.5 -27t-11.5 -27t-25.5 -9
t-25.5 9t-11.5 27z" />
    <glyph glyph-name="k" unicode="k" horiz-adv-x="666" 
d="M546 91q5 -8 13.5 -20t21.5 -23.5t30 -20t39 -8.5v-19h-166v19q20 0 22.5 16t-10.5 37l-192 324l-147 -145v-160q0 -33 13.5 -52.5t36.5 -19.5h9v-19h-173v19q29 0 44 17t15 55v634q0 25 -3 41.5t-9.5 28.5t-18 21.5t-28.5 20.5v14h114v-580l273 270q19 20 27 33.5
t9.5 21t-2.5 10.5t-10 3h-6v19h119v-19q-30 0 -62 -22.5t-74 -64.5l-93 -92l208 -339v0z" />
    <glyph glyph-name="l" unicode="l" horiz-adv-x="245" 
d="M37 -2v18q29 0 44 17t15 55v638q0 25 -3 41.5t-9.5 28.5t-18 21.5t-28.5 20.5v14h114v-764q0 -33 13.5 -52.5t36.5 -19.5h9v-18h-173z" />
    <glyph glyph-name="m" unicode="m" horiz-adv-x="1113" 
d="M1082 19v-19h-173v19q29 0 44 17t15 55v319q0 103 -47 152.5t-128 49.5q-63 0 -121 -32.5t-102 -78.5q13 -35 13 -85v-325q0 -33 13.5 -52.5t36.5 -19.5h10v-19h-174v19q29 0 44.5 17t15.5 55v319q0 103 -47 152.5t-128 49.5q-57 0 -111 -27t-96 -68v-426
q0 -33 13.5 -52.5t36.5 -19.5h10v-19h-174v19q29 0 44.5 17t15.5 55v404q0 25 -3 42.5t-10 30.5t-18.5 23.5t-28.5 21.5v14h114v-82v-6v-3q15 13 37 29t49.5 30t60 23t68.5 9q68 0 122.5 -26t80.5 -86q11 12 32.5 31t52 37t68.5 31t83 13q46 0 86.5 -11.5t70.5 -37
t47.5 -65.5t17.5 -97v-325q0 -33 13.5 -52.5t36.5 -19.5h9z" />
    <glyph glyph-name="n" unicode="n" horiz-adv-x="680" 
d="M655 19v-19h-174v19q29 0 44.5 17t15.5 55v321q0 102 -47.5 151.5t-128.5 49.5q-62 0 -119 -31.5t-101 -76.5v-414q0 -33 13.5 -52.5t36.5 -19.5h9v-19h-173v19q29 0 44 17t15 55v405q0 25 -3 42.5t-9.5 30.5t-18 23.5t-28.5 21.5v14h114v-82v-6v-16q13 13 35 31t51.5 34
t65.5 27.5t77 11.5q45 0 85.5 -11.5t70.5 -37t47.5 -65.5t17.5 -97v-326q0 -33 13.5 -52.5t36.5 -19.5h10z" />
    <glyph glyph-name="o" unicode="o" 
d="M348 623q69 0 124.5 -22t95.5 -62.5t61.5 -98t21.5 -128.5t-21.5 -128.5t-61.5 -98t-95.5 -63t-124.5 -22.5t-125.5 22.5t-96.5 63t-61.5 98t-21.5 128.5t21.5 128.5t61.5 98t96.5 62.5t125.5 22zM348 12q55 0 99.5 21.5t76.5 60.5t49.5 94.5t17.5 123.5
q0 67 -17.5 122.5t-49.5 94.5t-76.5 60.5t-99.5 21.5q-56 0 -101 -21.5t-77 -60.5t-49.5 -94.5t-17.5 -122.5q0 -68 17.5 -123.5t49.5 -94.5t77 -60.5t101 -21.5z" />
    <glyph glyph-name="p" unicode="p" horiz-adv-x="747" 
d="M425 630q60 0 109 -25t84.5 -67t55 -98t19.5 -117q0 -73 -22 -132t-63 -101t-99 -64.5t-129 -22.5q-34 0 -65 6t-58.5 16.5t-50 24.5t-38.5 30v-251q0 -34 13.5 -53.5t36.5 -19.5h10v-18h-174v18q29 0 44.5 17.5t15.5 55.5v674q0 25 -3 41t-10 28t-18.5 21.5t-28.5 20.5
v14h114v-94q42 46 111.5 71t145.5 25zM380 18q58 0 105 19t80 53.5t52 83t21 107.5q3 73 -14.5 131.5t-51.5 99.5t-82.5 63t-107.5 22q-67 0 -124.5 -20t-89.5 -53v-350q3 -33 20 -61.5t45.5 -49.5t65.5 -33t81 -12z" />
    <glyph glyph-name="q" unicode="q" horiz-adv-x="713" 
d="M680 -237h9v-19h-173v19q29 0 44 17t15 55v246q-39 -34 -103 -56.5t-134 -22.5q-56 0 -104.5 21t-84 58.5t-55.5 90t-20 116.5q0 77 22.5 139.5t63 107t95 69t119.5 24.5q31 -1 59 -6.5t53.5 -11.5t50 -11t47.5 -5q30 0 40 29h6v-788q0 -33 13.5 -52.5t36.5 -19.5z
M575 462q0 34 -14.5 62t-40.5 48t-63 30.5t-83 10.5q-51 0 -95.5 -21.5t-77.5 -61.5t-51.5 -96t-18.5 -125q0 -61 18 -111.5t50 -86.5t75 -55.5t93 -19.5q70 0 126 16t82 39v371z" />
    <glyph glyph-name="r" unicode="r" horiz-adv-x="487" 
d="M150 626v-92q29 34 62 55t66.5 32.5t65 15t56 2.5t41 -4t19.5 -5v-67q-23 18 -62 27t-83.5 5t-88.5 -22.5t-76 -54.5v-427q0 -33 13.5 -52.5t36.5 -19.5h9v-18h-173v18q29 0 44 17t15 55v410q0 25 -3 41.5t-9.5 28.5t-18 21t-28.5 20v14h114z" />
    <glyph glyph-name="s" unicode="s" horiz-adv-x="569" 
d="M460 505q-2 5 -4.5 10t-4.5 10q-14 32 -44.5 56t-65.5 33q-44 11 -84.5 9t-72 -15t-50.5 -35.5t-19 -50.5q0 -21 15 -37.5t42.5 -31.5t66 -29t85.5 -30q41 -14 79 -32t66 -43.5t43 -61t11 -83.5q-4 -39 -22.5 -71t-48.5 -55t-71 -35.5t-89 -12.5q-36 0 -72 3.5t-68 9.5
t-59.5 14.5t-46.5 19.5q1 2 2.5 4.5t2.5 4.5l-5 -9l-4 86h18l14 -23q22 -36 62.5 -61.5t86.5 -30.5q0 -1 10.5 -2t23.5 -1.5t25 -1t14 -0.5q83 0 127 37t51 104q5 45 -9.5 77t-42 55.5t-64.5 39.5t-76 29q-48 16 -87.5 32t-67.5 33.5t-43 37.5t-15 45q0 28 14.5 52t41.5 42
t65.5 28.5t85.5 10.5q46 0 100 -14.5t99 -38.5l4 -78h-19v0z" />
    <glyph glyph-name="t" unicode="t" horiz-adv-x="401" 
d="M155 613v-481q0 -56 26 -86.5t80 -30.5q24 0 42.5 7.5t32.5 18t24.5 23t18.5 21.5l9 -8q-26 -34 -58 -56t-82 -22q-71 0 -109 36t-38 120v458h-80v14q28 0 50.5 10.5t38 27.5t23.5 38t8 42h14v-117h198v-15h-198z" />
    <glyph glyph-name="u" unicode="u" horiz-adv-x="693" 
d="M659 609q-29 0 -44 -17t-15 -55v-412q0 -25 2.5 -41t9.5 -28t18.5 -21.5t28.5 -20.5v-14h-114v76v6v16q-13 -13 -35 -31t-51.5 -34t-65.5 -27.5t-77 -11.5q-45 0 -85.5 11.5t-70.5 36.5t-47.5 65.5t-17.5 97.5v332q0 33 -13.5 52.5t-36.5 19.5h-9v19h173v-19
q-29 0 -44 -17t-15 -55v-327q0 -102 47 -151.5t128 -49.5q62 0 119 31.5t101 76.5v420q0 33 -13.5 52.5t-36.5 19.5h-9v19h173v-19v0z" />
    <glyph glyph-name="v" unicode="v" horiz-adv-x="713" 
d="M689 627v-19q-59 0 -90 -72q-60 -134 -119.5 -269t-118.5 -269h-8l-236 542q-33 68 -90 68v19h174v-19q-23 0 -30.5 -12.5t1.5 -42.5l207 -493l202 476q14 32 10.5 52t-23.5 20h-8v19h129z" />
    <glyph glyph-name="w" unicode="w" horiz-adv-x="1062" 
d="M1045 629v-18q-29 0 -52 -18t-38 -54q-60 -134 -117.5 -268.5t-116.5 -268.5h-8l-177 404l-205 -404h-9l-234 541q-30 68 -77 68v18h173v-18h-9q-23 0 -30 -18t4 -48l203 -483l179 357l-54 122q-30 68 -65 68v18h173v-18h-12q-26 0 -36.5 -16t-2.5 -42l205 -486l198 474
q14 32 5 52t-38 20h-11v18h152z" />
    <glyph glyph-name="x" unicode="x" horiz-adv-x="705" 
d="M629 609q-60 0 -117 -72h-1l-148 -185l208 -261h1q57 -72 98 -72v-19h-156v19q22 0 23 12t-19 41l-186 235l-169 -229q-16 -28 -8 -43.5t38 -15.5h12v-19h-174v19q67 0 118 67l174 232l-176 219h-1q-29 36 -53.5 54t-49.5 18v19h175v-19h-8q-21 0 -22 -15t16 -41
l152 -191l139 179q23 32 22 50t-27 18h-11v19h150v-19v0z" />
    <glyph glyph-name="y" unicode="y" horiz-adv-x="715" 
d="M690 627v-18q-60 0 -91 -73l-234 -531q-13 -29 -31.5 -73t-45.5 -85t-63 -70.5t-84 -29.5q-38 0 -61 11t-23 29q0 20 18 22t39.5 -4t40 -14t19.5 -8q42 0 75 35.5t70 118.5l34 78l-229 525q-32 69 -89 69v18h173v-18q-23 0 -30 -13t2 -43l203 -486l199 469q14 32 10 52.5
t-23 20.5h-8v18h129z" />
    <glyph glyph-name="z" unicode="z" horiz-adv-x="585" 
d="M516 5l-1 -5h-481l446 616h-224q-42 0 -83.5 -16.5t-70.5 -43.5l-10 -10h-19q6 17 12.5 38.5t11.5 38.5h1l2 6h452l-445 -618l245 1q46 0 88 27.5t66 72.5l9 19q5 -1 9 -2t8.5 -2t7.5 -2z" />
    <glyph glyph-name="bullet" unicode="&#x2022;" horiz-adv-x="261" 
d="M127 456q21 0 38.5 -13.5t17.5 -41.5q0 -27 -17.5 -40.5t-38.5 -13.5t-38.5 13.5t-17.5 40.5q0 28 17.5 41.5t38.5 13.5z" />
    <glyph glyph-name="periodcentered" unicode="&#xb7;" horiz-adv-x="219" 
d="M111 441q15 0 27.5 -9.5t12.5 -29.5t-12.5 -29.5t-27.5 -9.5t-27.5 9.5t-12.5 29.5t12.5 29.5t27.5 9.5z" />
    <glyph glyph-name="zcaron" unicode="&#x17e;" horiz-adv-x="722" 
d="M667 135l10 -2l8 -2t8 -1l-27 -130h-644l578 785h-346q-20 0 -42 -6t-43 -16.5t-40.5 -25.5t-34.5 -33l-11 -14h-19l32 103l2 7h583l-578 -784h401q45 0 88 28t67 73zM516 1036l8 -9l-1 -1q-54 -66 -84 -102t-45 -53.5t-20.5 -21t-9.5 -3.5h-3h-1h-2q-5 0 -10 3.5
t-20 20.5t-45 53.5t-84 102.5l-2 1l9 9l1 -1q2 -2 20.5 -17t42.5 -34.5t49 -40.5t42 -35q16 14 41.5 35t49.5 40.5t42 34.5t20 17z" />
    <glyph glyph-name="guilsinglright" unicode="&#x203a;" horiz-adv-x="593" 
d="M33 149l508 250l-508 249v28l525 -262q2 0 3 -1t3 -1v-27l-6 -2l-525 -262v28z" />
    <glyph glyph-name="guilsinglleft" unicode="&#x2039;" horiz-adv-x="594" 
d="M39 383l-6 2v27q2 0 3 1t3 1l525 262v-28l-508 -249l508 -250v-28z" />
    <glyph glyph-name="guillemotleft" unicode="&#xab;" horiz-adv-x="910" 
d="M39 383l-6 2v27q2 0 3 1t3 1l525 262v-28l-508 -249l508 -250v-28zM352 383l-6 2v27q2 0 3 1t3 1l525 262v-28l-508 -249l508 -250v-28z" />
    <glyph glyph-name="guillemotright" unicode="&#xbb;" horiz-adv-x="910" 
d="M346 149l508 250l-508 249v28l525 -262q2 0 3 -1t3 -1v-27l-6 -2l-525 -262v28zM33 121v28l508 250l-508 249v28l525 -262q2 0 3 -1t3 -1v-27l-6 -2z" />
    <glyph glyph-name="asciicircum" unicode="^" horiz-adv-x="461" 
d="M385 612q-2 2 -20 17t-42 34.5t-49.5 40.5t-41.5 35q-17 -14 -42 -35t-49 -40.5t-42.5 -34.5t-20.5 -17l-1 -1l-9 9l2 1q54 66 84 102.5t45 53.5t20 20.5t10 3.5h2h1h3q4 0 9.5 -3.5t20.5 -21t45 -53.5t84 -102l1 -1l-8 -9l-2 1v0z" />
    <glyph glyph-name="asciitilde" unicode="~" horiz-adv-x="382" 
d="M319 441h11v-3q-4 -44 -26 -62t-45 -18q-20 0 -40 8.5t-40.5 18t-40 18t-37.5 8.5h-1q-2 0 -8.5 -1t-14 -5.5t-14.5 -14.5t-8 -28v-2h-12v2q1 15 5.5 30t13 27.5t21 20t29.5 7.5q19 0 39.5 -8t41 -18t40.5 -18t39 -8q26 0 35.5 15t11.5 29v2z" />
    <glyph glyph-name="minus" unicode="&#x2212;" horiz-adv-x="498" 
d="M61 388v26h382v-26h-382v0z" />
    <glyph glyph-name="quotesinglbase" unicode="&#x201a;" horiz-adv-x="182" 
d="M88 80q25 0 35.5 -19.5t10.5 -45.5q0 -38 -19.5 -70t-51.5 -48l-5 8q19 10 31.5 32t12.5 49q0 4 -0.5 8t-1.5 9q-3 -2 -6.5 -2h-6.5q-17 0 -28 11.5t-11 28.5t11 28t29 11z" />
    <glyph glyph-name="quotedblbase" unicode="&#x201e;" horiz-adv-x="300" 
d="M88 80q25 0 35.5 -19.5t10.5 -45.5q0 -38 -19.5 -70t-51.5 -48l-5 8q19 10 31.5 32t12.5 49q0 4 -0.5 8t-1.5 9q-3 -2 -6.5 -2h-6.5q-17 0 -28 11.5t-11 28.5t11 28t29 11zM209 80q25 0 35.5 -19.5t10.5 -45.5q0 -38 -19.5 -70t-51.5 -48l-5 8q19 10 31.5 32t12.5 49
q0 4 -0.5 8t-1.5 9q-3 -2 -6.5 -2h-6.5q-17 0 -28 11.5t-11 28.5t11 28t29 11z" />
    <glyph glyph-name="endash" unicode="&#x2013;" horiz-adv-x="570" 
d="M61 388v26h442v-26h-442v0z" />
    <glyph glyph-name="emdash" unicode="&#x2014;" horiz-adv-x="665" 
d="M61 388v26h542v-26h-542v0z" />
    <glyph glyph-name="Amacron" unicode="&#x100;" horiz-adv-x="838" 
d="M187 0h-160v19q28 0 47 16t34 50l294 716h19h-1l306 -711q15 -34 34.5 -52.5t47.5 -18.5v-19h-189v19h12q20 0 31 10.5t11 28.5q0 7 -1.5 14t-5 16.5t-10 23.5t-15.5 36q-58 1 -109.5 17.5t-99 35t-92 34t-88.5 15.5q-33 0 -62 -10q-22 -53 -34.5 -83.5t-19 -47t-8 -24.5
t-1.5 -17q0 -23 12.5 -36t35.5 -13h12v-19zM391 729l-193 -470q25 7 54 7q45 0 89.5 -15t91 -33.5t96.5 -34.5t105 -18zM296 890v16h246v-16h-246v0z" />
    <glyph glyph-name="Aogonek" unicode="&#x104;" horiz-adv-x="838" 
d="M187 0h-160v19q28 0 47 16t34 50l294 716h19h-1l306 -711q15 -34 34.5 -52.5t47.5 -18.5v-19h-189v19h12q20 0 31 10.5t11 28.5q0 7 -1.5 14t-5 16.5t-10 23.5t-15.5 36q-58 1 -109.5 17.5t-99 35t-92 34t-88.5 15.5q-33 0 -62 -10q-22 -53 -34.5 -83.5t-19 -47t-8 -24.5
t-1.5 -17q0 -23 12.5 -36t35.5 -13h12v-19zM391 729l-193 -470q25 7 54 7q45 0 89.5 -15t91 -33.5t96.5 -34.5t105 -18zM710 -254q-38 0 -63 20t-25 55q0 39 31 74t91 81h26q-33 -26 -51.5 -49.5t-27.5 -43t-11 -33t-2 -19.5q0 -1 1 -11t6 -22t15 -21.5t29 -9.5q12 0 24.5 4
t22 9.5t16 10l6.5 4.5l10 -12q-16 -14 -31.5 -21t-29 -11t-23 -4.5t-12.5 -0.5h-2v0z" />
    <glyph glyph-name="Cacute" unicode="&#x106;" horiz-adv-x="834" 
d="M457 -8q-94 0 -170.5 29t-131 82.5t-84.5 128t-30 166.5q0 91 30 165.5t84.5 128t131 82.5t170.5 29q44 0 89.5 -5t87.5 -14.5t79 -23t66 -29.5l5 -113h-20q-4 7 -8 16t-7 16q-24 50 -71.5 85t-102.5 44q0 1 -17 3t-38.5 3t-40.5 2t-22 1q-78 0 -142.5 -28t-110.5 -79
t-71 -123t-25 -160t25 -160t71 -123.5t110.5 -79.5t142.5 -28q20 0 39.5 1t39.5 3q72 8 130 44.5t83 89.5q3 7 7 16t8 16h20l-5 -113q-29 -16 -66 -29.5t-79 -23t-87.5 -14.5t-89.5 -5zM779 730q-1 -2 -2 -3t-1 -3zM374 846l-9 9l2 1q55 67 84.5 103.5t44.5 53.5t20.5 20
t10.5 3h1q14 0 21 -9.5t7 -17.5q0 -7 -3 -12.5t-20.5 -20.5t-54 -44.5t-102.5 -84.5z" />
    <glyph glyph-name="Ccaron" unicode="&#x10c;" horiz-adv-x="834" 
d="M457 -8q-94 0 -170.5 29t-131 82.5t-84.5 128t-30 166.5q0 91 30 165.5t84.5 128t131 82.5t170.5 29q44 0 89.5 -5t87.5 -14.5t79 -23t66 -29.5l5 -113h-20q-4 7 -8 16t-7 16q-24 50 -71.5 85t-102.5 44q0 1 -17 3t-38.5 3t-40.5 2t-22 1q-78 0 -142.5 -28t-110.5 -79
t-71 -123t-25 -160t25 -160t71 -123.5t110.5 -79.5t142.5 -28q20 0 39.5 1t39.5 3q72 8 130 44.5t83 89.5q3 7 7 16t8 16h20l-5 -113q-29 -16 -66 -29.5t-79 -23t-87.5 -14.5t-89.5 -5zM779 730q-1 -2 -2 -3t-1 -3zM621 1036l8 -9l-1 -1q-54 -66 -84 -102t-45 -53.5
t-20.5 -21t-9.5 -3.5h-3h-1h-2q-5 0 -10 3.5t-20 20.5t-45 53.5t-84 102.5l-2 1l9 9l1 -1q2 -2 20.5 -17t42.5 -34.5t49 -40.5t42 -35q16 14 41.5 35t49.5 40.5t42 34.5t20 17z" />
    <glyph glyph-name="Ccircumflex" unicode="&#x108;" horiz-adv-x="834" 
d="M457 -8q-94 0 -170.5 29t-131 82.5t-84.5 128t-30 166.5q0 91 30 165.5t84.5 128t131 82.5t170.5 29q44 0 89.5 -5t87.5 -14.5t79 -23t66 -29.5l5 -113h-20q-4 7 -8 16t-7 16q-24 50 -71.5 85t-102.5 44q0 1 -17 3t-38.5 3t-40.5 2t-22 1q-78 0 -142.5 -28t-110.5 -79
t-71 -123t-25 -160t25 -160t71 -123.5t110.5 -79.5t142.5 -28q20 0 39.5 1t39.5 3q72 8 130 44.5t83 89.5q3 7 7 16t8 16h20l-5 -113q-29 -16 -66 -29.5t-79 -23t-87.5 -14.5t-89.5 -5zM779 730q-1 -2 -2 -3t-1 -3zM617 847q-2 2 -20 17t-42 34.5t-49.5 40.5t-41.5 35
q-17 -14 -42 -35t-49 -40.5t-42.5 -34.5t-20.5 -17l-1 -1l-9 9l2 1q54 66 84 102.5t45 53.5t20 20.5t10 3.5h2h1h3q4 0 9.5 -3.5t20.5 -21t45 -53.5t84 -102l1 -1l-8 -9l-2 1v0z" />
    <glyph glyph-name="Cdotaccent" unicode="&#x10a;" horiz-adv-x="834" 
d="M457 -8q-94 0 -170.5 29t-131 82.5t-84.5 128t-30 166.5q0 91 30 165.5t84.5 128t131 82.5t170.5 29q44 0 89.5 -5t87.5 -14.5t79 -23t66 -29.5l5 -113h-20q-4 7 -8 16t-7 16q-24 50 -71.5 85t-102.5 44q0 1 -17 3t-38.5 3t-40.5 2t-22 1q-78 0 -142.5 -28t-110.5 -79
t-71 -123t-25 -160t25 -160t71 -123.5t110.5 -79.5t142.5 -28q20 0 39.5 1t39.5 3q72 8 130 44.5t83 89.5q3 7 7 16t8 16h20l-5 -113q-29 -16 -66 -29.5t-79 -23t-87.5 -14.5t-89.5 -5zM779 730q-1 -2 -2 -3t-1 -3zM464 947q15 0 27.5 -9.5t12.5 -29.5t-12.5 -29.5
t-27.5 -9.5t-27.5 9.5t-12.5 29.5t12.5 29.5t27.5 9.5z" />
    <glyph glyph-name="Dcaron" unicode="&#x10e;" horiz-adv-x="822" 
d="M373 800q93 0 168.5 -28.5t129 -81t83 -126t29.5 -163.5t-25.5 -164t-71.5 -126.5t-111.5 -81.5t-144.5 -29h-377v19q29 0 44.5 17t15.5 55v618q0 34 -14 53.5t-37 19.5h-9v18h320zM430 16q66 0 120 27.5t92.5 78t59.5 121.5t21 158q0 86 -25 157t-71 121.5t-110.5 78
t-143.5 27.5h-200v-769h257zM566 1036l8 -9l-1 -1q-54 -66 -84 -102t-45 -53.5t-20.5 -21t-9.5 -3.5h-3h-1h-2q-5 0 -10 3.5t-20 20.5t-45 53.5t-84 102.5l-2 1l9 9l1 -1q2 -2 20.5 -17t42.5 -34.5t49 -40.5t42 -35q16 14 41.5 35t49.5 40.5t42 34.5t20 17z" />
    <glyph glyph-name="Dcroat" unicode="&#x110;" horiz-adv-x="879" 
d="M38 414h118v295q0 34 -14 53.5t-37 19.5h-9v18h320q93 0 168.5 -28.5t129 -81t83 -126t29.5 -163.5t-25.5 -164t-71.5 -126.5t-111.5 -81.5t-144.5 -29h-377v19q29 0 44.5 17t15.5 55v297h-118v26zM473 16q66 0 120 27.5t92.5 78t59.5 121.5t21 158q0 86 -25 157
t-71 121.5t-110.5 78t-143.5 27.5h-200v-371h124v-26h-124v-372h257z" />
    <glyph glyph-name="Ebreve" unicode="&#x114;" horiz-adv-x="708" 
d="M664 122q-10 -50 -17 -84t-8 -38h-586v19q29 0 44.5 17t15.5 55v618q0 33 -14 52.5t-37 19.5h-9v19h579q0 -29 2 -61.5t3 -61.5h-16l-7 17q-20 42 -63 66.5t-94 24.5h-284v-303h250q45 0 77 13.5t40 36.5l4 9h16v-142h-16l-4 10q-10 26 -41.5 42t-75.5 16h-250v-452h293
q51 0 97.5 24.5t73.5 66.5l12 16h15v0zM486 954q-8 -47 -44 -76t-88 -29t-88 29t-44 76l9 1q5 -32 39 -50t84 -18q51 0 85 18t39 50l8 -1v0z" />
    <glyph glyph-name="Ecaron" unicode="&#x11a;" horiz-adv-x="708" 
d="M664 122q-10 -50 -17 -84t-8 -38h-586v19q29 0 44.5 17t15.5 55v618q0 33 -14 52.5t-37 19.5h-9v19h579q0 -29 2 -61.5t3 -61.5h-16l-7 17q-20 42 -63 66.5t-94 24.5h-284v-303h250q45 0 77 13.5t40 36.5l4 9h16v-142h-16l-4 10q-10 26 -41.5 42t-75.5 16h-250v-452h293
q51 0 97.5 24.5t73.5 66.5l12 16h15v0zM509 1036l8 -9l-1 -1q-54 -66 -84 -102t-45 -53.5t-20.5 -21t-9.5 -3.5h-3h-1h-2q-5 0 -10 3.5t-20 20.5t-45 53.5t-84 102.5l-2 1l9 9l1 -1q2 -2 20.5 -17t42.5 -34.5t49 -40.5t42 -35q16 14 41.5 35t49.5 40.5t42 34.5t20 17z" />
    <glyph glyph-name="Edotaccent" unicode="&#x116;" horiz-adv-x="708" 
d="M664 122q-10 -50 -17 -84t-8 -38h-586v19q29 0 44.5 17t15.5 55v618q0 33 -14 52.5t-37 19.5h-9v19h579q0 -29 2 -61.5t3 -61.5h-16l-7 17q-20 42 -63 66.5t-94 24.5h-284v-303h250q45 0 77 13.5t40 36.5l4 9h16v-142h-16l-4 10q-10 26 -41.5 42t-75.5 16h-250v-452h293
q51 0 97.5 24.5t73.5 66.5l12 16h15v0zM354 947q15 0 27.5 -9.5t12.5 -29.5t-12.5 -29.5t-27.5 -9.5t-27.5 9.5t-12.5 29.5t12.5 29.5t27.5 9.5z" />
    <glyph glyph-name="Emacron" unicode="&#x112;" horiz-adv-x="708" 
d="M664 122q-10 -50 -17 -84t-8 -38h-586v19q29 0 44.5 17t15.5 55v618q0 33 -14 52.5t-37 19.5h-9v19h579q0 -29 2 -61.5t3 -61.5h-16l-7 17q-20 42 -63 66.5t-94 24.5h-284v-303h250q45 0 77 13.5t40 36.5l4 9h16v-142h-16l-4 10q-10 26 -41.5 42t-75.5 16h-250v-452h293
q51 0 97.5 24.5t73.5 66.5l12 16h15v0zM231 890v16h246v-16h-246v0z" />
    <glyph glyph-name="Eogonek" unicode="&#x118;" horiz-adv-x="708" 
d="M579 -230q-38 0 -63 20t-25 55q0 39 31 74t91 81h-560v19q29 0 44.5 17t15.5 55v618q0 33 -14 52.5t-37 19.5h-9v19h579q0 -29 2 -61.5t3 -61.5h-16l-7 17q-20 42 -63 66.5t-94 24.5h-284v-303h250q45 0 77 13.5t40 36.5l4 9h16v-142h-16l-4 10q-10 26 -41.5 42t-75.5 16
h-250v-452h293q51 0 97.5 24.5t73.5 66.5l12 16h15q-10 -50 -17 -84t-8 -38q-33 -26 -51.5 -49.5t-27.5 -43t-11 -33t-2 -19.5q0 -1 1 -11t6 -22t15 -21.5t29 -9.5q12 0 24.5 4t22 9.5t16 10l6.5 4.5l10 -12q-16 -14 -31.5 -21t-29 -11t-23 -4.5t-12.5 -0.5h-2v0z" />
    <glyph glyph-name="Gbreve" unicode="&#x11e;" horiz-adv-x="852" 
d="M443 -5q-91 0 -165 29t-127 82.5t-82 128t-29 166.5q0 91 29 165.5t82 128t127 82.5t165 29q42 0 85 -5t84 -14.5t77.5 -23t65.5 -29.5l5 -113h-20q-11 30 -29 56.5t-42 48t-53 36t-60 20.5q-56 9 -113 9q-76 0 -138 -28t-106 -79t-68 -123t-24 -160t24 -160t68 -123.5
t106 -79.5t138 -28q68 0 138 13t125 36v296q0 34 -13.5 53.5t-36.5 19.5h-10v19h174v-19q-29 0 -44 -17.5t-15 -55.5v-288q-28 -16 -65 -29.5t-78.5 -23t-86.5 -14.5t-88 -5zM573 954q-8 -47 -44 -76t-88 -29t-88 29t-44 76l9 1q5 -32 39 -50t84 -18q51 0 85 18t39 50l8 -1
v0z" />
    <glyph glyph-name="Gcircumflex" unicode="&#x11c;" horiz-adv-x="852" 
d="M443 -5q-91 0 -165 29t-127 82.5t-82 128t-29 166.5q0 91 29 165.5t82 128t127 82.5t165 29q42 0 85 -5t84 -14.5t77.5 -23t65.5 -29.5l5 -113h-20q-11 30 -29 56.5t-42 48t-53 36t-60 20.5q-56 9 -113 9q-76 0 -138 -28t-106 -79t-68 -123t-24 -160t24 -160t68 -123.5
t106 -79.5t138 -28q68 0 138 13t125 36v296q0 34 -13.5 53.5t-36.5 19.5h-10v19h174v-19q-29 0 -44 -17.5t-15 -55.5v-288q-28 -16 -65 -29.5t-78.5 -23t-86.5 -14.5t-88 -5zM598 847q-2 2 -20 17t-42 34.5t-49.5 40.5t-41.5 35q-17 -14 -42 -35t-49 -40.5t-42.5 -34.5
t-20.5 -17l-1 -1l-9 9l2 1q54 66 84 102.5t45 53.5t20 20.5t10 3.5h2h1h3q4 0 9.5 -3.5t20.5 -21t45 -53.5t84 -102l1 -1l-8 -9l-2 1v0z" />
    <glyph glyph-name="commaaccent" unicode="&#xf6c3;" horiz-adv-x="362" 
d="M178 -26q25 0 35.5 -19.5t10.5 -45.5q0 -38 -19.5 -70t-51.5 -48l-5 8q19 10 31.5 32t12.5 49q0 4 -0.5 8t-1.5 9q-3 -2 -6.5 -2h-6.5q-17 0 -28 11.5t-11 28.5t11 28t29 11z" />
    <glyph glyph-name="Gcommaaccent" unicode="&#x122;" horiz-adv-x="852" 
d="M443 -5q-91 0 -165 29t-127 82.5t-82 128t-29 166.5q0 91 29 165.5t82 128t127 82.5t165 29q42 0 85 -5t84 -14.5t77.5 -23t65.5 -29.5l5 -113h-20q-11 30 -29 56.5t-42 48t-53 36t-60 20.5q-56 9 -113 9q-76 0 -138 -28t-106 -79t-68 -123t-24 -160t24 -160t68 -123.5
t106 -79.5t138 -28q68 0 138 13t125 36v296q0 34 -13.5 53.5t-36.5 19.5h-10v19h174v-19q-29 0 -44 -17.5t-15 -55.5v-288q-28 -16 -65 -29.5t-78.5 -23t-86.5 -14.5t-88 -5zM446 -36q25 0 35.5 -19.5t10.5 -45.5q0 -38 -19.5 -70t-51.5 -48l-5 8q19 10 31.5 32t12.5 49
q0 4 -0.5 8t-1.5 9q-3 -2 -6.5 -2h-6.5q-17 0 -28 11.5t-11 28.5t11 28t29 11z" />
    <glyph glyph-name="Ibreve" unicode="&#x12c;" horiz-adv-x="288" 
d="M234 0h-180v19q29 0 44.5 17t15.5 55v618q0 33 -13.5 52.5t-36.5 19.5h-10v19h180v-19q-29 0 -44 -17t-15 -55v-618q0 -33 13.5 -52.5t36.5 -19.5h9v-19zM276 954q-8 -47 -44 -76t-88 -29t-88 29t-44 76l9 1q5 -32 39 -50t84 -18q51 0 85 18t39 50l8 -1v0z" />
    <glyph glyph-name="Idotaccent" unicode="&#x130;" horiz-adv-x="288" 
d="M234 0h-180v19q29 0 44.5 17t15.5 55v618q0 33 -13.5 52.5t-36.5 19.5h-10v19h180v-19q-29 0 -44 -17t-15 -55v-618q0 -33 13.5 -52.5t36.5 -19.5h9v-19zM144 947q15 0 27.5 -9.5t12.5 -29.5t-12.5 -29.5t-27.5 -9.5t-27.5 9.5t-12.5 29.5t12.5 29.5t27.5 9.5z" />
    <glyph glyph-name="Imacron" unicode="&#x12a;" horiz-adv-x="288" 
d="M234 0h-180v19q29 0 44.5 17t15.5 55v618q0 33 -13.5 52.5t-36.5 19.5h-10v19h180v-19q-29 0 -44 -17t-15 -55v-618q0 -33 13.5 -52.5t36.5 -19.5h9v-19zM21 890v16h246v-16h-246v0z" />
    <glyph glyph-name="Iogonek" unicode="&#x12e;" horiz-adv-x="288" 
d="M136 -229q-38 0 -63 20t-25 55q0 39 30.5 74t89.5 80h-114v19q29 0 44.5 17t15.5 55v618q0 33 -13.5 52.5t-36.5 19.5h-10v19h180v-19q-29 0 -44 -17t-15 -55v-618q0 -33 13.5 -52.5t36.5 -19.5h9v-19h-40q-33 -26 -51 -49t-26.5 -42.5t-10.5 -33t-2 -19.5q0 -1 1 -11
t6 -22t15 -21.5t29 -9.5q12 0 24.5 4t22 9.5t16 10l6.5 4.5l10 -12q-16 -14 -31.5 -21t-29 -11t-23 -4.5t-12.5 -0.5h-2v0z" />
    <glyph glyph-name="Itilde" unicode="&#x128;" horiz-adv-x="288" 
d="M234 0h-180v19q29 0 44.5 17t15.5 55v618q0 33 -13.5 52.5t-36.5 19.5h-10v19h180v-19q-29 0 -44 -17t-15 -55v-618q0 -33 13.5 -52.5t36.5 -19.5h9v-19zM277 943h11v-3q-4 -44 -26 -62t-45 -18q-20 0 -40 8.5t-40.5 18t-40 18t-37.5 8.5h-1q-2 0 -8.5 -1t-14 -5.5
t-14.5 -14.5t-8 -28v-2h-12v2q1 15 5.5 30t13 27.5t21 20t29.5 7.5q19 0 39.5 -8t41 -18t40.5 -18t39 -8q26 0 35.5 15t11.5 29v2z" />
    <glyph glyph-name="Kcommaaccent" unicode="&#x136;" horiz-adv-x="794" 
d="M176 91q0 -34 13.5 -53.5t36.5 -19.5h10v-18h-180v18q29 0 44 17.5t15 55.5v618q0 33 -13.5 52.5t-36.5 19.5h-9v19h180v-19q-29 0 -44.5 -17t-15.5 -55v-280v-338zM176 429l347 298q38 36 38 49q0 2 -2.5 3.5t-10.5 1.5v19h120v-19q-59 0 -143 -72h-1l-291 -252
l218 -214q67 -66 116 -111.5t84 -74t58 -41t39 -12.5v-12h-25q-27 0 -58 11.5t-69 37t-85 66t-106 97.5zM394 -26q25 0 35.5 -19.5t10.5 -45.5q0 -38 -19.5 -70t-51.5 -48l-5 8q19 10 31.5 32t12.5 49q0 4 -0.5 8t-1.5 9q-3 -2 -6.5 -2h-6.5q-17 0 -28 11.5t-11 28.5t11 28
t29 11z" />
    <glyph glyph-name="Lacute" unicode="&#x139;" 
d="M233 781q-29 0 -44 -17t-15 -55v-694h302q11 0 32 3.5t45 16t47.5 36t39.5 63.5l10 -2l8 -2l8 -2q-7 -30 -12 -56q-5 -22 -9 -43t-6 -29h-586v18q29 0 44.5 17.5t15.5 55.5v618q0 33 -13.5 52.5t-36.5 19.5h-10v19h180v-19v0zM89 846l-9 9l2 1q55 67 84.5 103.5
t44.5 53.5t20.5 20t10.5 3h1q14 0 21 -9.5t7 -17.5q0 -7 -3 -12.5t-20.5 -20.5t-54 -44.5t-102.5 -84.5z" />
    <glyph glyph-name="Lcaron" unicode="&#x13d;" 
d="M233 781q-29 0 -44 -17t-15 -55v-694h302q11 0 32 3.5t45 16t47.5 36t39.5 63.5l10 -2l8 -2l8 -2q-7 -30 -12 -56q-5 -22 -9 -43t-6 -29h-586v18q29 0 44.5 17.5t15.5 55.5v618q0 33 -13.5 52.5t-36.5 19.5h-10v19h180v-19v0zM345 850q25 0 35.5 -19.5t10.5 -45.5
q0 -38 -19.5 -70t-51.5 -48l-5 8q19 10 31.5 32t12.5 49q0 4 -0.5 8t-1.5 9q-3 -2 -6.5 -2h-6.5q-17 0 -28 11.5t-11 28.5t11 28t29 11z" />
    <glyph glyph-name="Lcommaaccent" unicode="&#x13b;" 
d="M233 781q-29 0 -44 -17t-15 -55v-694h302q11 0 32 3.5t45 16t47.5 36t39.5 63.5l10 -2l8 -2l8 -2q-7 -30 -12 -56q-5 -22 -9 -43t-6 -29h-586v18q29 0 44.5 17.5t15.5 55.5v618q0 33 -13.5 52.5t-36.5 19.5h-10v19h180v-19v0zM345 -33q25 0 35.5 -19.5t10.5 -45.5
q0 -38 -19.5 -70t-51.5 -48l-5 8q19 10 31.5 32t12.5 49q0 4 -0.5 8t-1.5 9q-3 -2 -6.5 -2h-6.5q-17 0 -28 11.5t-11 28.5t11 28t29 11z" />
    <glyph glyph-name="Ldot" unicode="&#x13f;" 
d="M233 781q-29 0 -44 -17t-15 -55v-694h302q11 0 32 3.5t45 16t47.5 36t39.5 63.5l10 -2l8 -2l8 -2q-7 -30 -12 -56q-5 -22 -9 -43t-6 -29h-586v18q29 0 44.5 17.5t15.5 55.5v618q0 33 -13.5 52.5t-36.5 19.5h-10v19h180v-19v0zM348 441q15 0 27.5 -9.5t12.5 -29.5
t-12.5 -29.5t-27.5 -9.5t-27.5 9.5t-12.5 29.5t12.5 29.5t27.5 9.5z" />
    <glyph glyph-name="Lslash" unicode="&#x141;" 
d="M233 781q-29 0 -44 -17t-15 -55v-285l186 65v-19l-186 -66v-389h302q11 0 32 3.5t45 16t47.5 36t39.5 63.5l10 -2l8 -2l8 -2q-7 -30 -12 -56q-5 -22 -9 -43t-6 -29h-586v18q29 0 44.5 17.5t15.5 55.5v292l-88 -31v21l88 30v306q0 33 -13.5 52.5t-36.5 19.5h-10v19h180
v-19v0z" />
    <glyph glyph-name="Nacute" unicode="&#x143;" horiz-adv-x="855" 
d="M133 91q0 -33 13.5 -52.5t36.5 -19.5h10v-19h-138v19q29 0 44.5 17t15.5 55v618q0 34 -14 53.5t-37 19.5h-9v18h115l553 -711v620q0 34 -13.5 53.5t-36.5 19.5h-9v18h137v-18q-29 0 -44 -17.5t-15 -55.5v-720h-20l-27 36l-562 721v-655v0zM341 846l-9 9l2 1
q55 67 84.5 103.5t44.5 53.5t20.5 20t10.5 3h1q14 0 21 -9.5t7 -17.5q0 -7 -3 -12.5t-20.5 -20.5t-54 -44.5t-102.5 -84.5z" />
    <glyph glyph-name="Ncaron" unicode="&#x147;" horiz-adv-x="855" 
d="M133 91q0 -33 13.5 -52.5t36.5 -19.5h10v-19h-138v19q29 0 44.5 17t15.5 55v618q0 34 -14 53.5t-37 19.5h-9v18h115l553 -711v620q0 34 -13.5 53.5t-36.5 19.5h-9v18h137v-18q-29 0 -44 -17.5t-15 -55.5v-720h-20l-27 36l-562 721v-655v0zM583 1036l8 -9l-1 -1
q-54 -66 -84 -102t-45 -53.5t-20.5 -21t-9.5 -3.5h-3h-1h-2q-5 0 -10 3.5t-20 20.5t-45 53.5t-84 102.5l-2 1l9 9l1 -1q2 -2 20.5 -17t42.5 -34.5t49 -40.5t42 -35q16 14 41.5 35t49.5 40.5t42 34.5t20 17z" />
    <glyph glyph-name="Ncommaaccent" unicode="&#x145;" horiz-adv-x="855" 
d="M133 91q0 -33 13.5 -52.5t36.5 -19.5h10v-19h-138v19q29 0 44.5 17t15.5 55v618q0 34 -14 53.5t-37 19.5h-9v18h115l553 -711v620q0 34 -13.5 53.5t-36.5 19.5h-9v18h137v-18q-29 0 -44 -17.5t-15 -55.5v-720h-20l-27 36l-562 721v-655v0zM424 -26q25 0 35.5 -19.5
t10.5 -45.5q0 -38 -19.5 -70t-51.5 -48l-5 8q19 10 31.5 32t12.5 49q0 4 -0.5 8t-1.5 9q-3 -2 -6.5 -2h-6.5q-17 0 -28 11.5t-11 28.5t11 28t29 11z" />
    <glyph glyph-name="Obreve" unicode="&#x14e;" horiz-adv-x="871" 
d="M836 403q0 -82 -25.5 -156t-75.5 -129.5t-124.5 -88t-172.5 -32.5q-99 0 -173.5 32.5t-124.5 88t-75.5 129.5t-25.5 156t25.5 155.5t75.5 129t124.5 88t173.5 32.5q98 0 172.5 -32.5t124.5 -88t75.5 -129t25.5 -155.5zM438 12q82 0 143.5 31.5t103 85t62.5 124.5t21 150
t-21 149.5t-62.5 124t-103 85t-143.5 31.5t-144 -31.5t-104 -85t-63 -124t-21 -149.5t21 -150t63 -124.5t104 -85t144 -31.5zM567 954q-8 -47 -44 -76t-88 -29t-88 29t-44 76l9 1q5 -32 39 -50t84 -18q51 0 85 18t39 50l8 -1v0z" />
    <glyph glyph-name="Ohungarumlaut" unicode="&#x150;" horiz-adv-x="871" 
d="M836 403q0 -82 -25.5 -156t-75.5 -129.5t-124.5 -88t-172.5 -32.5q-99 0 -173.5 32.5t-124.5 88t-75.5 129.5t-25.5 156t25.5 155.5t75.5 129t124.5 88t173.5 32.5q98 0 172.5 -32.5t124.5 -88t75.5 -129t25.5 -155.5zM438 12q82 0 143.5 31.5t103 85t62.5 124.5t21 150
t-21 149.5t-62.5 124t-103 85t-143.5 31.5t-144 -31.5t-104 -85t-63 -124t-21 -149.5t21 -150t63 -124.5t104 -85t144 -31.5zM293 846l-9 9l2 1q55 67 84.5 103.5t44.5 53.5t20.5 20t10.5 3h1q14 0 21 -9.5t7 -17.5q0 -7 -3 -12.5t-20.5 -20.5t-54 -44.5t-102.5 -84.5z
M471 846l-9 9l2 1q55 67 84.5 103.5t44.5 53.5t20.5 20t10.5 3h1q14 0 21 -9.5t7 -17.5q0 -7 -3 -12.5t-20.5 -20.5t-54 -44.5t-102.5 -84.5z" />
    <glyph glyph-name="Omacron" unicode="&#x14c;" horiz-adv-x="871" 
d="M836 403q0 -82 -25.5 -156t-75.5 -129.5t-124.5 -88t-172.5 -32.5q-99 0 -173.5 32.5t-124.5 88t-75.5 129.5t-25.5 156t25.5 155.5t75.5 129t124.5 88t173.5 32.5q98 0 172.5 -32.5t124.5 -88t75.5 -129t25.5 -155.5zM438 12q82 0 143.5 31.5t103 85t62.5 124.5t21 150
t-21 149.5t-62.5 124t-103 85t-143.5 31.5t-144 -31.5t-104 -85t-63 -124t-21 -149.5t21 -150t63 -124.5t104 -85t144 -31.5zM321 890v16h246v-16h-246v0z" />
    <glyph glyph-name="Racute" unicode="&#x154;" horiz-adv-x="768" 
d="M724 11v-12h-35q-18 0 -32.5 3t-29.5 12t-33 26t-43.5 45.5t-61 70t-85.5 99.5q-7 -1 -14.5 -1h-15.5h-195v-163q0 -32 14 -52t37 -20h10v-19h-185v19h9q24 0 38 20t14 52v618q0 33 -14 53t-38 20h-9v18h367q58 0 106 -20t82 -56t53 -86.5t19 -111.5q0 -50 -15 -92.5
t-43 -76t-67 -57t-88 -35.5q76 -91 121.5 -142t71 -76t37.5 -30.5t22 -5.5h3zM374 269q54 0 98.5 18.5t76.5 52.5t49.5 81.5t17.5 104.5q0 58 -14 105.5t-39.5 81.5t-61.5 53t-79 19h-243v-516h195zM297 846l-9 9l2 1q55 67 84.5 103.5t44.5 53.5t20.5 20t10.5 3h1
q14 0 21 -9.5t7 -17.5q0 -7 -3 -12.5t-20.5 -20.5t-54 -44.5t-102.5 -84.5z" />
    <glyph glyph-name="Rcaron" unicode="&#x158;" horiz-adv-x="768" 
d="M724 11v-12h-35q-18 0 -32.5 3t-29.5 12t-33 26t-43.5 45.5t-61 70t-85.5 99.5q-7 -1 -14.5 -1h-15.5h-195v-163q0 -32 14 -52t37 -20h10v-19h-185v19h9q24 0 38 20t14 52v618q0 33 -14 53t-38 20h-9v18h367q58 0 106 -20t82 -56t53 -86.5t19 -111.5q0 -50 -15 -92.5
t-43 -76t-67 -57t-88 -35.5q76 -91 121.5 -142t71 -76t37.5 -30.5t22 -5.5h3zM374 269q54 0 98.5 18.5t76.5 52.5t49.5 81.5t17.5 104.5q0 58 -14 105.5t-39.5 81.5t-61.5 53t-79 19h-243v-516h195zM528 1036l8 -9l-1 -1q-54 -66 -84 -102t-45 -53.5t-20.5 -21t-9.5 -3.5h-3
h-1h-2q-5 0 -10 3.5t-20 20.5t-45 53.5t-84 102.5l-2 1l9 9l1 -1q2 -2 20.5 -17t42.5 -34.5t49 -40.5t42 -35q16 14 41.5 35t49.5 40.5t42 34.5t20 17z" />
    <glyph glyph-name="Rcommaaccent" unicode="&#x156;" horiz-adv-x="768" 
d="M381 -26q25 0 35.5 -19.5t10.5 -45.5q0 -38 -19.5 -70t-51.5 -48l-5 8q19 10 31.5 32t12.5 49q0 4 -0.5 8t-1.5 9q-3 -2 -6.5 -2h-6.5q-17 0 -28 11.5t-11 28.5t11 28t29 11zM724 11v-12h-35q-18 0 -32.5 3t-29.5 12t-33 26t-43.5 45.5t-61 70t-85.5 99.5q-7 -1 -14.5 -1
h-15.5h-195v-163q0 -32 14 -52t37 -20h10v-19h-185v19h9q24 0 38 20t14 52v618q0 33 -14 53t-38 20h-9v18h367q58 0 106 -20t82 -56t53 -86.5t19 -111.5q0 -50 -15 -92.5t-43 -76t-67 -57t-88 -35.5q76 -91 121.5 -142t71 -76t37.5 -30.5t22 -5.5h3zM374 269q54 0 98.5 18.5
t76.5 52.5t49.5 81.5t17.5 104.5q0 58 -14 105.5t-39.5 81.5t-61.5 53t-79 19h-243v-516h195z" />
    <glyph glyph-name="Sacute" unicode="&#x15a;" horiz-adv-x="694" 
d="M114 658q0 -30 23 -51.5t61 -39.5t86.5 -33.5t99.5 -33.5t99.5 -40.5t86.5 -53.5t61 -72.5t23 -98.5q0 -45 -22 -88t-60 -77t-89 -54.5t-109 -20.5q-51 0 -99.5 4t-91.5 11.5t-78 18.5t-60 25l-4 117h20l15 -30q23 -47 65.5 -78.5t93.5 -42.5q35 -5 69 -7.5t70 -2.5
q48 0 91.5 17t76.5 45.5t52 64.5t19 75q0 49 -23 85t-61.5 63.5t-87 48.5t-99 39t-99 36t-87 39t-61.5 48t-23 63q0 48 21.5 81t57 53t80 29t90.5 9q36 0 72.5 -4.5t70.5 -12.5t63.5 -19t51.5 -23q-5 -8 -5 -10l5 9l4 -118h-20q-8 14 -14.5 31.5t-14.5 32.5
q-9 19 -24.5 36.5t-40.5 31.5t-62 22.5t-88 8.5q-38 0 -75 -6t-66 -21t-46.5 -41t-17.5 -65zM260 846l-9 9l2 1q55 67 84.5 103.5t44.5 53.5t20.5 20t10.5 3h1q14 0 21 -9.5t7 -17.5q0 -7 -3 -12.5t-20.5 -20.5t-54 -44.5t-102.5 -84.5z" />
    <glyph glyph-name="Scedilla" unicode="&#x15e;" horiz-adv-x="694" 
d="M341 -62q12 0 30 -4t35.5 -16t29.5 -32.5t12 -53.5q0 -23 -9.5 -41.5t-24.5 -32t-35 -21t-41 -7.5q-29 0 -53 13t-39 36l15 10q10 -15 22 -23t23 -11.5t18.5 -4.5t9.5 -1q37 0 51.5 24.5t14.5 60.5q0 31 -7.5 48.5t-17 25.5t-18.5 10t-12 2q-10 0 -21 -1.5t-25 -6.5
l-1 -1l-10 14l52 71q-93 2 -171.5 17t-123.5 41l-4 117h20l15 -30q23 -47 65.5 -78.5t93.5 -42.5q35 -5 69 -7.5t70 -2.5q48 0 91.5 17t76.5 45.5t52 64.5t19 75q0 49 -23 85t-61.5 63.5t-87 48.5t-99 39t-99 36t-87 39t-61.5 48t-23 63q0 48 21.5 81t57 53t80 29t90.5 9
q36 0 72.5 -4.5t70.5 -12.5t63.5 -19t51.5 -23q-5 -8 -5 -10l5 9l4 -118h-20q-8 14 -14.5 31.5t-14.5 32.5q-9 19 -24.5 36.5t-40.5 31.5t-62 22.5t-88 8.5q-38 0 -75 -6t-66 -21t-46.5 -41t-17.5 -65q0 -30 23 -51.5t61 -39.5t86.5 -33.5t99.5 -33.5t99.5 -40.5t86.5 -53.5
t61 -72.5t23 -98.5q0 -45 -22 -88t-60 -77t-89 -54.5t-109 -20.5h-11l-44 -59q5 1 11 1.5t11 0.5z" />
    <glyph glyph-name="Scircumflex" unicode="&#x15c;" horiz-adv-x="694" 
d="M114 658q0 -30 23 -51.5t61 -39.5t86.5 -33.5t99.5 -33.5t99.5 -40.5t86.5 -53.5t61 -72.5t23 -98.5q0 -45 -22 -88t-60 -77t-89 -54.5t-109 -20.5q-51 0 -99.5 4t-91.5 11.5t-78 18.5t-60 25l-4 117h20l15 -30q23 -47 65.5 -78.5t93.5 -42.5q35 -5 69 -7.5t70 -2.5
q48 0 91.5 17t76.5 45.5t52 64.5t19 75q0 49 -23 85t-61.5 63.5t-87 48.5t-99 39t-99 36t-87 39t-61.5 48t-23 63q0 48 21.5 81t57 53t80 29t90.5 9q36 0 72.5 -4.5t70.5 -12.5t63.5 -19t51.5 -23q-5 -8 -5 -10l5 9l4 -118h-20q-8 14 -14.5 31.5t-14.5 32.5
q-9 19 -24.5 36.5t-40.5 31.5t-62 22.5t-88 8.5q-38 0 -75 -6t-66 -21t-46.5 -41t-17.5 -65zM500 847q-2 2 -20 17t-42 34.5t-49.5 40.5t-41.5 35q-17 -14 -42 -35t-49 -40.5t-42.5 -34.5t-20.5 -17l-1 -1l-9 9l2 1q54 66 84 102.5t45 53.5t20 20.5t10 3.5h2h1h3
q4 0 9.5 -3.5t20.5 -21t45 -53.5t84 -102l1 -1l-8 -9l-2 1v0z" />
    <glyph glyph-name="Scommaaccent" unicode="&#x218;" horiz-adv-x="694" 
d="M342 -45q25 0 35.5 -19.5t10.5 -45.5q0 -38 -19.5 -70t-51.5 -48l-5 8q19 10 31.5 32t12.5 49q0 4 -0.5 8t-1.5 9q-3 -2 -6.5 -2h-6.5q-17 0 -28 11.5t-11 28.5t11 28t29 11zM114 658q0 -30 23 -51.5t61 -39.5t86.5 -33.5t99.5 -33.5t99.5 -40.5t86.5 -53.5t61 -72.5
t23 -98.5q0 -45 -22 -88t-60 -77t-89 -54.5t-109 -20.5q-51 0 -99.5 4t-91.5 11.5t-78 18.5t-60 25l-4 117h20l15 -30q23 -47 65.5 -78.5t93.5 -42.5q35 -5 69 -7.5t70 -2.5q48 0 91.5 17t76.5 45.5t52 64.5t19 75q0 49 -23 85t-61.5 63.5t-87 48.5t-99 39t-99 36t-87 39
t-61.5 48t-23 63q0 48 21.5 81t57 53t80 29t90.5 9q36 0 72.5 -4.5t70.5 -12.5t63.5 -19t51.5 -23q-5 -8 -5 -10l5 9l4 -118h-20q-8 14 -14.5 31.5t-14.5 32.5q-9 19 -24.5 36.5t-40.5 31.5t-62 22.5t-88 8.5q-38 0 -75 -6t-66 -21t-46.5 -41t-17.5 -65z" />
    <glyph glyph-name="Tcaron" unicode="&#x164;" horiz-adv-x="813" 
d="M761 793q1 0 3.5 -18.5t5.5 -41.5t5.5 -43.5t2.5 -23.5h-19l-15 29q-23 41 -62 65.5t-79 24.5h-165v-694q0 -33 13.5 -52.5t36.5 -19.5h9v-19h-181v19q29 0 44.5 17t15.5 55v694h-165q-40 0 -79 -24.5t-62 -65.5l-15 -29h-19q0 4 2.5 24t5.5 43t5.5 41.5t3.5 18.5l1 7
h706l1 -7v0zM562 1036l8 -9l-1 -1q-54 -66 -84 -102t-45 -53.5t-20.5 -21t-9.5 -3.5h-3h-1h-2q-5 0 -10 3.5t-20 20.5t-45 53.5t-84 102.5l-2 1l9 9l1 -1q2 -2 20.5 -17t42.5 -34.5t49 -40.5t42 -35q16 14 41.5 35t49.5 40.5t42 34.5t20 17z" />
    <glyph glyph-name="Tcommaaccent" unicode="&#x162;" horiz-adv-x="813" 
d="M761 793q1 0 3.5 -18.5t5.5 -41.5t5.5 -43.5t2.5 -23.5h-19l-15 29q-23 41 -62 65.5t-79 24.5h-165v-694q0 -33 13.5 -52.5t36.5 -19.5h9v-19h-181v19q29 0 44.5 17t15.5 55v694h-165q-40 0 -79 -24.5t-62 -65.5l-15 -29h-19q0 4 2.5 24t5.5 43t5.5 41.5t3.5 18.5l1 7
h706l1 -7v0zM403 -33q25 0 35.5 -19.5t10.5 -45.5q0 -38 -19.5 -70t-51.5 -48l-5 8q19 10 31.5 32t12.5 49q0 4 -0.5 8t-1.5 9q-3 -2 -6.5 -2h-6.5q-17 0 -28 11.5t-11 28.5t11 28t29 11z" />
    <glyph glyph-name="Ubreve" unicode="&#x16c;" horiz-adv-x="884" 
d="M681 800h157v-19h-11q-11 0 -21 -7t-18 -18.5t-13 -26.5t-5 -31v-441q0 -51 -22 -98t-63 -83t-101 -57t-135 -21q-78 0 -140.5 23.5t-105.5 64t-66 94t-23 113.5v415q0 29 -15.5 51t-35.5 22h-9v19h180v-19h-9q-19 0 -33.5 -20t-16.5 -47l1 -434q0 -52 19.5 -99t55.5 -83
t88 -57t118 -21q69 0 123.5 20t92.5 53.5t58 77.5t20 92l1 441q-2 31 -19.5 54t-40.5 23h-11v19zM574 954q-8 -47 -44 -76t-88 -29t-88 29t-44 76l9 1q5 -32 39 -50t84 -18q51 0 85 18t39 50l8 -1v0z" />
    <glyph glyph-name="Uhungarumlaut" unicode="&#x170;" horiz-adv-x="884" 
d="M681 800h157v-19h-11q-11 0 -21 -7t-18 -18.5t-13 -26.5t-5 -31v-441q0 -51 -22 -98t-63 -83t-101 -57t-135 -21q-78 0 -140.5 23.5t-105.5 64t-66 94t-23 113.5v415q0 29 -15.5 51t-35.5 22h-9v19h180v-19h-9q-19 0 -33.5 -20t-16.5 -47l1 -434q0 -52 19.5 -99t55.5 -83
t88 -57t118 -21q69 0 123.5 20t92.5 53.5t58 77.5t20 92l1 441q-2 31 -19.5 54t-40.5 23h-11v19zM306 846l-9 9l2 1q55 67 84.5 103.5t44.5 53.5t20.5 20t10.5 3h1q14 0 21 -9.5t7 -17.5q0 -7 -3 -12.5t-20.5 -20.5t-54 -44.5t-102.5 -84.5zM484 846l-9 9l2 1
q55 67 84.5 103.5t44.5 53.5t20.5 20t10.5 3h1q14 0 21 -9.5t7 -17.5q0 -7 -3 -12.5t-20.5 -20.5t-54 -44.5t-102.5 -84.5z" />
    <glyph glyph-name="Umacron" unicode="&#x16a;" horiz-adv-x="884" 
d="M681 800h157v-19h-11q-11 0 -21 -7t-18 -18.5t-13 -26.5t-5 -31v-441q0 -51 -22 -98t-63 -83t-101 -57t-135 -21q-78 0 -140.5 23.5t-105.5 64t-66 94t-23 113.5v415q0 29 -15.5 51t-35.5 22h-9v19h180v-19h-9q-19 0 -33.5 -20t-16.5 -47l1 -434q0 -52 19.5 -99t55.5 -83
t88 -57t118 -21q69 0 123.5 20t92.5 53.5t58 77.5t20 92l1 441q-2 31 -19.5 54t-40.5 23h-11v19zM324 890v16h246v-16h-246v0z" />
    <glyph glyph-name="Uogonek" unicode="&#x172;" horiz-adv-x="884" 
d="M429 -230q-38 0 -63 20t-25 55q0 39 30.5 73.5t88.5 79.5h-11q-78 0 -140.5 23.5t-105.5 64t-66 94t-23 113.5v415q0 29 -15.5 51t-35.5 22h-9v19h180v-19h-9q-19 0 -33.5 -20t-16.5 -47l1 -434q0 -52 19.5 -99t55.5 -83t88 -57t118 -21q69 0 123.5 20t92.5 53.5t58 77.5
t20 92l1 441q-2 31 -19.5 54t-40.5 23h-11v19h157v-19h-11q-11 0 -21 -7t-18 -18.5t-13 -26.5t-5 -31v-441q0 -48 -19 -92t-55.5 -79t-89 -58t-118.5 -28q-33 -26 -51.5 -49.5t-27 -43t-10.5 -33t-2 -19.5q0 -1 1 -11t6 -22t15 -21.5t29 -9.5q12 0 24.5 4t22 9.5t16 10
l6.5 4.5l10 -12q-16 -14 -31.5 -21t-29 -11t-23 -4.5t-12.5 -0.5h-2v0z" />
    <glyph glyph-name="Uring" unicode="&#x16e;" horiz-adv-x="884" 
d="M681 800h157v-19h-11q-11 0 -21 -7t-18 -18.5t-13 -26.5t-5 -31v-441q0 -51 -22 -98t-63 -83t-101 -57t-135 -21q-78 0 -140.5 23.5t-105.5 64t-66 94t-23 113.5v415q0 29 -15.5 51t-35.5 22h-9v19h180v-19h-9q-19 0 -33.5 -20t-16.5 -47l1 -434q0 -52 19.5 -99t55.5 -83
t88 -57t118 -21q69 0 123.5 20t92.5 53.5t58 77.5t20 92l1 441q-2 31 -19.5 54t-40.5 23h-11v19zM442 845q-23 0 -43.5 8.5t-36 23.5t-24.5 34.5t-9 41.5t9 42t24.5 34.5t36 23t43.5 8.5q24 0 44.5 -8.5t35.5 -23t24 -34.5t9 -42t-9 -41.5t-24 -34.5t-35.5 -23.5t-44.5 -8.5
zM442 1048q-14 0 -27 -7.5t-22.5 -20.5t-15 -30.5t-5.5 -36.5q0 -39 20.5 -66.5t49.5 -27.5t49.5 27.5t20.5 66.5t-20.5 67t-49.5 28z" />
    <glyph glyph-name="Utilde" unicode="&#x168;" horiz-adv-x="884" 
d="M681 800h157v-19h-11q-11 0 -21 -7t-18 -18.5t-13 -26.5t-5 -31v-441q0 -51 -22 -98t-63 -83t-101 -57t-135 -21q-78 0 -140.5 23.5t-105.5 64t-66 94t-23 113.5v415q0 29 -15.5 51t-35.5 22h-9v19h180v-19h-9q-19 0 -33.5 -20t-16.5 -47l1 -434q0 -52 19.5 -99t55.5 -83
t88 -57t118 -21q69 0 123.5 20t92.5 53.5t58 77.5t20 92l1 441q-2 31 -19.5 54t-40.5 23h-11v19zM579 943h11v-3q-4 -44 -26 -62t-45 -18q-20 0 -40 8.5t-40.5 18t-40 18t-37.5 8.5h-1q-2 0 -8.5 -1t-14 -5.5t-14.5 -14.5t-8 -28v-2h-12v2q1 15 5.5 30t13 27.5t21 20
t29.5 7.5q19 0 39.5 -8t41 -18t40.5 -18t39 -8q26 0 35.5 15t11.5 29v2z" />
    <glyph glyph-name="Zacute" unicode="&#x179;" horiz-adv-x="722" 
d="M667 135l10 -2l8 -2t8 -1l-27 -130h-644l578 785h-346q-20 0 -42 -6t-43 -16.5t-40.5 -25.5t-34.5 -33l-11 -14h-19l32 103l2 7h583l-578 -784h401q45 0 88 28t67 73zM313 846l-9 9l2 1q55 67 84.5 103.5t44.5 53.5t20.5 20t10.5 3h1q14 0 21 -9.5t7 -17.5q0 -7 -3 -12.5
t-20.5 -20.5t-54 -44.5t-102.5 -84.5z" />
    <glyph glyph-name="Zdotaccent" unicode="&#x17b;" horiz-adv-x="722" 
d="M667 135l10 -2l8 -2t8 -1l-27 -130h-644l578 785h-346q-20 0 -42 -6t-43 -16.5t-40.5 -25.5t-34.5 -33l-11 -14h-19l32 103l2 7h583l-578 -784h401q45 0 88 28t67 73zM375 947q15 0 27.5 -9.5t12.5 -29.5t-12.5 -29.5t-27.5 -9.5t-27.5 9.5t-12.5 29.5t12.5 29.5
t27.5 9.5z" />
    <glyph glyph-name="Abreve" unicode="&#x102;" horiz-adv-x="838" 
d="M187 0h-160v19q28 0 47 16t34 50l294 716h19h-1l306 -711q15 -34 34.5 -52.5t47.5 -18.5v-19h-189v19h12q20 0 31 10.5t11 28.5q0 7 -1.5 14t-5 16.5t-10 23.5t-15.5 36q-58 1 -109.5 17.5t-99 35t-92 34t-88.5 15.5q-33 0 -62 -10q-22 -53 -34.5 -83.5t-19 -47t-8 -24.5
t-1.5 -17q0 -23 12.5 -36t35.5 -13h12v-19zM391 729l-193 -470q25 7 54 7q45 0 89.5 -15t91 -33.5t96.5 -34.5t105 -18zM548 954q-8 -47 -44 -76t-88 -29t-88 29t-44 76l9 1q5 -32 39 -50t84 -18q51 0 85 18t39 50l8 -1v0z" />
    <glyph glyph-name="lslash" unicode="&#x142;" 
d="M233 781q-29 0 -44 -17t-15 -55v-285l186 65v-19l-186 -66v-389h302q11 0 32 3.5t45 16t47.5 36t39.5 63.5l10 -2l8 -2l8 -2q-7 -30 -12 -56q-5 -22 -9 -43t-6 -29h-586v18q29 0 44.5 17.5t15.5 55.5v292l-88 -31v21l88 30v306q0 33 -13.5 52.5t-36.5 19.5h-10v19h180
v-19v0z" />
    <glyph glyph-name="a.alt" horiz-adv-x="680" 
d="M330 4l-44 44l44 44l44 -44zM583 248q11 -26 26.5 -40.5t36.5 -14.5v-15h-147v15h9q23 0 29.5 15t-1.5 37l-19 44q-48 2 -89.5 15t-79.5 29q-26 9 -49 17.5t-46 14.5q-49 9 -86 -4l-42 -103q-9 -24 -6 -41q3 -11 10 -16.5t14 -7t13 -1t7 0.5v-15h-124v15q21 0 35.5 12.5
t27.5 38.5l228 557h15zM323 742l-148 -361q44 10 87.5 -2t88.5 -31q37 -14 76 -27t83 -15z" />
    <glyph glyph-name="e.alt" horiz-adv-x="590" 
d="M524 183h-479v15q48 0 48 59v465q0 27 -11 43t-29 16h-8v15h474q0 -23 1.5 -49.5t2.5 -49.5h-9t-4 1l-5 12q-17 33 -51 53t-75 20h-229v-235h201q35 0 61 10.5t33 29.5l3 8h13v-115h-13l-3 8q-8 20 -33.5 33t-60.5 13h-201v-339h235q42 0 79 20t59 53l9 12q0 1 4 1h9
q-5 -21 -9.5 -46.5t-9.5 -46.5zM251 47l44 45l44 -45l-44 -43z" />
    <glyph glyph-name="o.alt" horiz-adv-x="727" 
d="M366 91l44 -44l-44 -44l-44 44zM313 179q-64 8 -112 36t-80.5 69.5t-49 94t-16.5 110.5q0 63 19.5 119t58.5 99t96.5 68t133.5 25q31 0 54 -4q64 -8 112 -35.5t80.5 -68.5t49 -93.5t16.5 -110.5q0 -63 -19.5 -120t-58.5 -99.5t-96.5 -67.5t-133.5 -25q-27 0 -54 3z
M367 788q-63 0 -111 -24t-80.5 -65t-48.5 -95.5t-16 -115.5q0 -56 14 -106.5t41 -90.5t67.5 -67t93.5 -34q9 -1 18 -1.5t18 -0.5q63 0 111 24t80 65.5t48 96t16 115.5q0 55 -13.5 106t-40.5 90.5t-67.5 66t-94.5 34.5q-8 1 -17 1.5t-18 0.5z" />
    <glyph glyph-name="u.alt" horiz-adv-x="729" 
d="M204 783h-11h-6q-11 -5 -19.5 -19t-9.5 -31l1 -335q0 -41 15 -78t43.5 -64.5t68.5 -43.5t90 -16q55 0 96.5 16.5t70 42.5t43 59.5t14.5 68.5l1 342q-2 23 -15.5 40.5t-30.5 17.5h-9v17h3h122v-16h-2v-1h-9q-5 0 -7 -1q-14 -5 -24 -22.5t-10 -38.5v-341q0 -44 -19 -81
t-52.5 -64t-79.5 -42.5t-101 -15.5q-64 0 -112.5 19.5t-81.5 51.5t-50 73.5t-17 85.5v321q0 22 -11.5 38.5t-26.5 16.5h-8v17h144v-17zM373 93l44 -43l-44 -44l-44 44z" />
    <glyph glyph-name="c.alt" horiz-adv-x="677" 
d="M366 176q-72 0 -131 22.5t-101 63.5t-65 98.5t-23 128.5q0 70 23 127.5t65 98.5t101 63.5t131 22.5h3h2q69 0 136.5 -15t112.5 -40l3 -88h-5h-10h-5q-2 5 -5.5 12.5t-6.5 12.5q-18 38 -54.5 65.5t-79.5 34.5q0 1 -11.5 2t-27 2t-30.5 2t-20 1q-60 -1 -109 -23t-84 -61.5
t-54 -94.5t-19 -122q0 -68 19 -123t54.5 -95t84.5 -62t109 -22q14 0 29 1t29 3q56 6 100.5 34t63.5 69q3 5 6.5 12.5t5.5 12.5h5h10h5l-3 -88q-45 -25 -112.5 -40t-136.5 -15h-2h-3zM619 745q-2 -4 -2 -5zM419 43l-45 -44l-44 44l44 44z" />
    <glyph glyph-name="co.alt" horiz-adv-x="457" 
d="M362 306q21 -23 32 -55t11 -68q0 -42 -13.5 -75.5t-38.5 -57t-60 -35t-77 -8.5q-38 2 -68 16.5t-50.5 38t-31 54.5t-10.5 67q0 37 11.5 69.5t34 55.5t54.5 36.5t73 13.5q38 0 72.5 -11.5t60.5 -40.5zM93 183q0 -32 8 -60.5t24 -51t39.5 -36.5t55.5 -17q36 -2 63.5 10
t46 34.5t28.5 53.5t10 67q0 34 -9 63.5t-26 51.5q-26 33 -66.5 44t-79 -2.5t-66.5 -52t-28 -104.5zM240 443q-44 0 -78 13.5t-57.5 37t-36 55.5t-12.5 70q0 80 50 128t130 48q28 0 52.5 -3.5t43 -9t31 -11t17.5 -8.5v-9.5t1 -17.5q0 -11 1 -25h-16q-5 10 -11 22.5t-19 23.5
t-35.5 18.5t-60.5 7.5q-67 0 -106 -45q-41 -44 -41 -119q0 -33 9 -62t26 -50.5t42 -35t57 -16.5q10 -1 21.5 -0.5t21.5 1.5q28 3 46 13.5t28.5 22.5t15.5 22t6 13h16l-2 -51q0 -1 -10.5 -6.5t-29 -11.5t-44 -10.5t-56.5 -4.5z" />
    <glyph glyph-name="k_o" horiz-adv-x="1376" 
d="M657 462q0 68 21 129t63 107t104 73t144 27t139 -23t94.5 -57.5t58 -76t30.5 -78.5t12 -65t2 -35v-2q0 -68 -21 -129t-63 -107t-104 -73t-144 -27q-86 0 -144 24.5t-95 61t-57 80t-29 81t-10 63t-1 27.5zM993 784q-68 0 -120 -26t-86.5 -70t-52 -102.5t-17.5 -124.5
q0 -51 13.5 -108t45.5 -104.5t84 -79t129 -31.5q68 0 119.5 26t86 70.5t52 103t17.5 124.5q0 79 -18.5 134t-46.5 90.5t-61 55.5t-63 29t-52 11t-28 2h-2zM1327 23q-137 -80 -256 -106t-228.5 -2t-213.5 97t-210 192q-28 31 -56 64.5t-58 61.5t-62.5 46.5t-68.5 20.5v-305
q0 -34 13.5 -53t36.5 -19h10v-19h-180v19q29 0 44.5 17t15.5 55v618q0 33 -14 52.5t-37 19.5h-9v19h180v-19q-29 0 -44.5 -17t-15.5 -55v-279l347 298q26 25 34.5 39t-4.5 14h-5v19h120v-19q-59 0 -143 -72h-1l-347 -300q31 -1 60.5 -11t57.5 -25t54 -34.5t51 -39.5
q50 -43 98 -94.5t99 -100.5t108 -90.5t126 -64t152 -21.5t187 38q39 14 77 32t74 38z" />
    <glyph glyph-name="and.alt" horiz-adv-x="687" 
d="M425 234q12 5 13.5 10.5t1.5 9.5h11v-53h-11v6q0 5 -2.5 6.5t-5.5 1t-6 -2t-4 -1.5l-27 -12v-100l28 -12q9 -3 14 0q3 2 3 5.5v7.5h11v-46h-11v8t-14 13l-180 73v9zM385 195l-110 -47l110 -45v92zM454 483v-10q-74 -57 -111 -86t-53 -41t-17 -13l-1 -1h154q5 0 9.5 2
t4.5 7v6h11v-41h-11v3q0 8 -4.5 10t-9.5 2h-154q-5 0 -10 -2t-5 -7v-6h-11v33l171 133h-145q-5 0 -10 -2t-5 -7v-6h-11v41h11v-3q0 -8 5 -10t10 -2h182zM257 558h-11v82q0 48 28 76.5t75 28.5q46 0 74 -24.5t28 -66.5v-96h-11v3q0 8 -4.5 9.5t-9.5 1.5h-154q-5 0 -10 -2
t-5 -7v-5zM256 594h185v60q0 28 -18.5 44.5t-44 22.5t-52.5 1t-44 -21q-26 -23 -26 -61v-46z" />
    <glyph glyph-name="l.alt" horiz-adv-x="1066" 
d="M52 1v19q29 0 44.5 17t15.5 55v618q0 33 -14 52.5t-37 19.5h-9v19h180v-19q-29 0 -44.5 -17t-15.5 -55v-691q81 13 151.5 6t135.5 -21t127.5 -28.5t128.5 -17.5t137.5 12.5t155.5 62.5l6 -10q-80 -54 -151 -77t-137 -25.5t-130.5 9.5t-131 27.5t-138.5 29t-154 14.5h-120
z" />
    <glyph glyph-name="k.alt" horiz-adv-x="1375" 
d="M1327 23q-137 -80 -256 -106t-228.5 -2t-213.5 97t-210 192q-28 31 -56 64.5t-58 61.5t-62.5 46.5t-68.5 20.5v-305q0 -34 13.5 -53t36.5 -19h10v-19h-180v19q29 0 44.5 17t15.5 55v618q0 33 -14 52.5t-37 19.5h-9v19h180v-19q-29 0 -44.5 -17t-15.5 -55v-279l347 298
q26 25 34.5 39t-4.5 14h-5v19h120v-19q-59 0 -143 -72h-1l-347 -300q31 -1 60.5 -11t57.5 -25t54 -34.5t51 -39.5q50 -43 98 -94.5t99 -100.5t108 -90.5t126 -64t152 -21.5t187 38q39 14 77 32t74 38l8 -14v0z" />
    <glyph glyph-name="r.alt" horiz-adv-x="1493" 
d="M887 0q70 -41 141.5 -55t142 -6t140.5 36.5t139 72.5l9 -14q-77 -51 -146 -79.5t-132.5 -39t-122.5 -5t-116 23.5q-66 20 -122 50t-103.5 63.5t-88 67.5t-76.5 64q-34 28 -59 43.5t-45 22.5t-37.5 8t-37.5 1h-195v-163q0 -32 14 -52t37 -20h10v-19h-185v19h10q23 0 37 20
t14 52v618q0 33 -14 53t-37 20h-10v18h367q58 0 106 -20t82 -56t53 -86.5t19 -111.5q0 -51 -15.5 -94t-44.5 -77t-70 -57.5t-92 -34.5q58 -12 112.5 -43.5t107.5 -70.5t105 -79.5t103 -69.5zM373 269q54 0 98.5 18.5t76.5 52.5t49.5 81.5t17.5 104.5q0 58 -14 105.5
t-39.5 81.5t-61.5 53t-79 19h-243v-516h195z" />
    <glyph glyph-name="agrave" unicode="&#xe0;" horiz-adv-x="628" 
d="M608 45q-21 -21 -45.5 -33.5t-58.5 -12.5q-27 0 -41 13t-19.5 33.5t-5.5 46v50.5q-10 -25 -32 -50t-53.5 -45.5t-69.5 -33.5t-80 -13q-28 0 -57.5 9.5t-53.5 28.5t-39 47.5t-15 66.5q0 48 28.5 80.5t72 55.5t94 40.5t95 36.5t75.5 42t35 57q0 47 -13 76t-33 45
t-43.5 21.5t-43.5 5.5q-67 0 -109.5 -27t-51.5 -72h-55q11 51 65 82.5t151 31.5q36 0 70.5 -10t61.5 -31t43.5 -53t16.5 -75v-365q0 -31 9 -49.5t36 -18.5q20 0 33.5 7.5t26.5 20.5zM438 182v126v66.5t0.5 26t0.5 5v2.5v19q-16 -25 -46.5 -43.5t-66.5 -34t-74.5 -31.5
t-71 -36.5t-56 -47.5t-29.5 -66q-5 -33 4.5 -59t28.5 -44t46 -27.5t57 -9.5q33 0 67.5 11.5t64 32t50 49t25.5 61.5zM398 676q-66 55 -102.5 84.5t-54 44.5t-20.5 20.5t-3 12.5q0 8 7 17.5t21 9.5h1q5 0 10 -3t20 -20t45 -53.5t85 -103.5l2 -1l-9 -9l-2 1v0z" />
    <glyph glyph-name="aacute" unicode="&#xe1;" horiz-adv-x="628" 
d="M608 45q-21 -21 -45.5 -33.5t-58.5 -12.5q-27 0 -41 13t-19.5 33.5t-5.5 46v50.5q-10 -25 -32 -50t-53.5 -45.5t-69.5 -33.5t-80 -13q-28 0 -57.5 9.5t-53.5 28.5t-39 47.5t-15 66.5q0 48 28.5 80.5t72 55.5t94 40.5t95 36.5t75.5 42t35 57q0 47 -13 76t-33 45
t-43.5 21.5t-43.5 5.5q-67 0 -109.5 -27t-51.5 -72h-55q11 51 65 82.5t151 31.5q36 0 70.5 -10t61.5 -31t43.5 -53t16.5 -75v-365q0 -31 9 -49.5t36 -18.5q20 0 33.5 7.5t26.5 20.5zM438 182v126v66.5t0.5 26t0.5 5v2.5v19q-16 -25 -46.5 -43.5t-66.5 -34t-74.5 -31.5
t-71 -36.5t-56 -47.5t-29.5 -66q-5 -33 4.5 -59t28.5 -44t46 -27.5t57 -9.5q33 0 67.5 11.5t64 32t50 49t25.5 61.5zM227 679l-9 9l2 1q55 67 84.5 103.5t44.5 53.5t20.5 20t10.5 3h1q14 0 21 -9.5t7 -17.5q0 -7 -3 -12.5t-20.5 -20.5t-54 -44.5t-102.5 -84.5z" />
    <glyph glyph-name="acircumflex" unicode="&#xe2;" horiz-adv-x="628" 
d="M608 45q-21 -21 -45.5 -33.5t-58.5 -12.5q-27 0 -41 13t-19.5 33.5t-5.5 46v50.5q-10 -25 -32 -50t-53.5 -45.5t-69.5 -33.5t-80 -13q-28 0 -57.5 9.5t-53.5 28.5t-39 47.5t-15 66.5q0 48 28.5 80.5t72 55.5t94 40.5t95 36.5t75.5 42t35 57q0 47 -13 76t-33 45
t-43.5 21.5t-43.5 5.5q-67 0 -109.5 -27t-51.5 -72h-55q11 51 65 82.5t151 31.5q36 0 70.5 -10t61.5 -31t43.5 -53t16.5 -75v-365q0 -31 9 -49.5t36 -18.5q20 0 33.5 7.5t26.5 20.5zM438 182v126v66.5t0.5 26t0.5 5v2.5v19q-16 -25 -46.5 -43.5t-66.5 -34t-74.5 -31.5
t-71 -36.5t-56 -47.5t-29.5 -66q-5 -33 4.5 -59t28.5 -44t46 -27.5t57 -9.5q33 0 67.5 11.5t64 32t50 49t25.5 61.5zM467 659q-2 2 -20 17t-42 34.5t-49.5 40.5t-41.5 35q-17 -14 -42 -35t-49 -40.5t-42.5 -34.5t-20.5 -17l-1 -1l-9 9l2 1q54 66 84 102.5t45 53.5t20 20.5
t10 3.5h2h1h3q4 0 9.5 -3.5t20.5 -21t45 -53.5t84 -102l1 -1l-8 -9l-2 1v0z" />
    <glyph glyph-name="aring" unicode="&#xe5;" horiz-adv-x="628" 
d="M608 45q-21 -21 -45.5 -33.5t-58.5 -12.5q-27 0 -41 13t-19.5 33.5t-5.5 46v50.5q-10 -25 -32 -50t-53.5 -45.5t-69.5 -33.5t-80 -13q-28 0 -57.5 9.5t-53.5 28.5t-39 47.5t-15 66.5q0 48 28.5 80.5t72 55.5t94 40.5t95 36.5t75.5 42t35 57q0 47 -13 76t-33 45
t-43.5 21.5t-43.5 5.5q-67 0 -109.5 -27t-51.5 -72h-55q11 51 65 82.5t151 31.5q36 0 70.5 -10t61.5 -31t43.5 -53t16.5 -75v-365q0 -31 9 -49.5t36 -18.5q20 0 33.5 7.5t26.5 20.5zM438 182v126v66.5t0.5 26t0.5 5v2.5v19q-16 -25 -46.5 -43.5t-66.5 -34t-74.5 -31.5
t-71 -36.5t-56 -47.5t-29.5 -66q-5 -33 4.5 -59t28.5 -44t46 -27.5t57 -9.5q33 0 67.5 11.5t64 32t50 49t25.5 61.5zM314 677q-23 0 -43.5 8.5t-36 23.5t-24.5 34.5t-9 41.5t9 42t24.5 34.5t36 23t43.5 8.5q24 0 44.5 -8.5t35.5 -23t24 -34.5t9 -42t-9 -41.5t-24 -34.5
t-35.5 -23.5t-44.5 -8.5zM314 880q-14 0 -27 -7.5t-22.5 -20.5t-15 -30.5t-5.5 -36.5q0 -39 20.5 -66.5t49.5 -27.5t49.5 27.5t20.5 66.5t-20.5 67t-49.5 28z" />
    <glyph glyph-name="atilde" unicode="&#xe3;" horiz-adv-x="628" 
d="M608 45q-21 -21 -45.5 -33.5t-58.5 -12.5q-27 0 -41 13t-19.5 33.5t-5.5 46v50.5q-10 -25 -32 -50t-53.5 -45.5t-69.5 -33.5t-80 -13q-28 0 -57.5 9.5t-53.5 28.5t-39 47.5t-15 66.5q0 48 28.5 80.5t72 55.5t94 40.5t95 36.5t75.5 42t35 57q0 47 -13 76t-33 45
t-43.5 21.5t-43.5 5.5q-67 0 -109.5 -27t-51.5 -72h-55q11 51 65 82.5t151 31.5q36 0 70.5 -10t61.5 -31t43.5 -53t16.5 -75v-365q0 -31 9 -49.5t36 -18.5q20 0 33.5 7.5t26.5 20.5zM438 182v126v66.5t0.5 26t0.5 5v2.5v19q-16 -25 -46.5 -43.5t-66.5 -34t-74.5 -31.5
t-71 -36.5t-56 -47.5t-29.5 -66q-5 -33 4.5 -59t28.5 -44t46 -27.5t57 -9.5q33 0 67.5 11.5t64 32t50 49t25.5 61.5zM446 769h11v-3q-4 -44 -26 -62t-45 -18q-20 0 -40 8.5t-40.5 18t-40 18t-37.5 8.5h-1q-2 0 -8.5 -1t-14 -5.5t-14.5 -14.5t-8 -28v-2h-12v2q1 15 5.5 30
t13 27.5t21 20t29.5 7.5q19 0 39.5 -8t41 -18t40.5 -18t39 -8q26 0 35.5 15t11.5 29v2z" />
    <glyph glyph-name="adieresis" unicode="&#xe4;" horiz-adv-x="628" 
d="M608 45q-21 -21 -45.5 -33.5t-58.5 -12.5q-27 0 -41 13t-19.5 33.5t-5.5 46v50.5q-10 -25 -32 -50t-53.5 -45.5t-69.5 -33.5t-80 -13q-28 0 -57.5 9.5t-53.5 28.5t-39 47.5t-15 66.5q0 48 28.5 80.5t72 55.5t94 40.5t95 36.5t75.5 42t35 57q0 47 -13 76t-33 45
t-43.5 21.5t-43.5 5.5q-67 0 -109.5 -27t-51.5 -72h-55q11 51 65 82.5t151 31.5q36 0 70.5 -10t61.5 -31t43.5 -53t16.5 -75v-365q0 -31 9 -49.5t36 -18.5q20 0 33.5 7.5t26.5 20.5zM438 182v126v66.5t0.5 26t0.5 5v2.5v19q-16 -25 -46.5 -43.5t-66.5 -34t-74.5 -31.5
t-71 -36.5t-56 -47.5t-29.5 -66q-5 -33 4.5 -59t28.5 -44t46 -27.5t57 -9.5q33 0 67.5 11.5t64 32t50 49t25.5 61.5zM273 726q0 -18 -11 -27t-25 -9t-25.5 9t-11.5 27t11.5 27t25.5 9t25 -9t11 -27zM428 726q0 -18 -11.5 -27t-25.5 -9t-25 9t-11 27t11 27t25 9t25.5 -9
t11.5 -27z" />
    <glyph glyph-name="ccedilla" unicode="&#xe7;" horiz-adv-x="641" 
d="M328 0q-59 0 -109.5 21t-88.5 59t-59.5 92.5t-21.5 120.5q0 75 22.5 135.5t63.5 104t99 67t129 23.5q44 0 82.5 -11t67.5 -30.5t46.5 -45t20.5 -53.5q0 -24 -24 -24q-11 0 -19 7t-9 20q-2 25 -17.5 47t-39 38.5t-53.5 26t-62 9.5q-56 0 -102 -20.5t-78.5 -59t-50.5 -92.5
t-18 -120q0 -63 12.5 -116.5t42 -92.5t78 -60.5t120.5 -21.5q46 0 83.5 17.5t67 43t49.5 54.5t32 52l14 -2q-24 -54 -63 -95q-17 -18 -38 -34.5t-48 -30t-59 -21.5t-70 -8zM314 -87q12 0 30 -4t35.5 -16t29.5 -32.5t12 -53.5q0 -23 -9.5 -41.5t-24.5 -32t-35 -21t-41 -7.5
q-29 0 -53 13t-39 36l15 10q10 -15 22 -23t23 -11.5t18.5 -4.5t9.5 -1q37 0 51.5 24.5t14.5 60.5q0 31 -7.5 48.5t-17 25.5t-18.5 10t-12 2q-10 0 -21 -1.5t-25 -6.5l-1 -1l-10 14l60 81l15 -11l-44 -59q5 1 11 1.5t11 0.5z" />
    <glyph glyph-name="ae" unicode="&#xe6;" horiz-adv-x="1041" 
d="M995 193q-24 -54 -63 -95q-17 -18 -38 -34.5t-48 -30t-59 -21.5t-70 -8q-69 0 -124 27q-18 -15 -39.5 -23.5t-49.5 -8.5q-27 0 -41 13t-19.5 33.5t-5.5 46v50.5q-10 -25 -32 -50t-53.5 -45.5t-69.5 -33.5t-80 -13q-28 0 -57.5 9.5t-53.5 28.5t-39 47.5t-15 66.5
q0 48 28.5 80.5t72 55.5t94 40.5t95 36.5t75.5 42t35 57q0 47 -13 76t-33 45t-43.5 21.5t-43.5 5.5q-67 0 -109.5 -27t-51.5 -72h-55q11 51 65 82.5t151 31.5q31 0 61 -8t55.5 -23.5t44 -39.5t26.5 -56q15 25 36.5 48t51 40t67 27.5t84.5 10.5q48 0 89.5 -14t72 -40
t48 -62.5t17.5 -81.5h-450q-2 -9 -4 -19t-3.5 -25.5t-2.5 -39t-1 -58.5q3 -57 17.5 -104.5t44.5 -81.5t76.5 -53t113.5 -19q46 0 83.5 17.5t67 43t49.5 54.5t32 52zM438 182v100.5v61t0.5 33.5t0.5 17.5v12.5v20q-16 -25 -46.5 -43.5t-66.5 -34t-74.5 -31.5t-71 -36.5
t-56 -47.5t-29.5 -66q-5 -33 4.5 -59t28.5 -44t46 -27.5t57 -9.5q33 0 67.5 11.5t64 32t50 49t25.5 61.5zM728 611q-78 0 -136.5 -46t-80.5 -127l376 9q7 0 11.5 3.5t6 8t2 9t0.5 5.5q0 31 -14 56.5t-38.5 43.5t-57 28t-69.5 10zM542 25q23 0 41 12q-52 28 -86 73v-17
q0 -31 9 -49.5t36 -18.5z" />
    <glyph glyph-name="egrave" unicode="&#xe8;" horiz-adv-x="645" 
d="M607 193q-24 -54 -63 -95q-17 -18 -38 -34.5t-48 -30t-59 -21.5t-70 -8q-58 0 -109 21t-88.5 59t-59.5 92t-22 120q2 92 34 165q13 31 34.5 60.5t52.5 52.5t73.5 37.5t98.5 14.5q48 0 89.5 -14t72 -40t48 -62.5t17.5 -81.5h-450q-12 -50 -12 -109q0 -64 13 -117.5
t42.5 -92t77.5 -60t120 -21.5q46 0 83.5 17.5t67 43t49.5 54.5t32 52zM340 611q-78 0 -136.5 -46t-80.5 -127l376 9q7 0 11.5 3.5t6 8t2 9t0.5 5.5q0 31 -14 56.5t-38.5 43.5t-57 28t-69.5 10zM407 677q-66 55 -102.5 84.5t-54 44.5t-20.5 20.5t-3 12.5q0 8 7 17.5t21 9.5h1
q5 0 10 -3t20 -20t45 -53.5t85 -103.5l2 -1l-9 -9l-2 1v0z" />
    <glyph glyph-name="eacute" unicode="&#xe9;" horiz-adv-x="645" 
d="M607 193q-24 -54 -63 -95q-17 -18 -38 -34.5t-48 -30t-59 -21.5t-70 -8q-58 0 -109 21t-88.5 59t-59.5 92t-22 120q2 92 34 165q13 31 34.5 60.5t52.5 52.5t73.5 37.5t98.5 14.5q48 0 89.5 -14t72 -40t48 -62.5t17.5 -81.5h-450q-12 -50 -12 -109q0 -64 13 -117.5
t42.5 -92t77.5 -60t120 -21.5q46 0 83.5 17.5t67 43t49.5 54.5t32 52zM340 611q-78 0 -136.5 -46t-80.5 -127l376 9q7 0 11.5 3.5t6 8t2 9t0.5 5.5q0 31 -14 56.5t-38.5 43.5t-57 28t-69.5 10zM236 679l-9 9l2 1q55 67 84.5 103.5t44.5 53.5t20.5 20t10.5 3h1q14 0 21 -9.5
t7 -17.5q0 -7 -3 -12.5t-20.5 -20.5t-54 -44.5t-102.5 -84.5z" />
    <glyph glyph-name="ecircumflex" unicode="&#xea;" horiz-adv-x="645" 
d="M607 193q-24 -54 -63 -95q-17 -18 -38 -34.5t-48 -30t-59 -21.5t-70 -8q-58 0 -109 21t-88.5 59t-59.5 92t-22 120q2 92 34 165q13 31 34.5 60.5t52.5 52.5t73.5 37.5t98.5 14.5q48 0 89.5 -14t72 -40t48 -62.5t17.5 -81.5h-450q-12 -50 -12 -109q0 -64 13 -117.5
t42.5 -92t77.5 -60t120 -21.5q46 0 83.5 17.5t67 43t49.5 54.5t32 52zM340 611q-78 0 -136.5 -46t-80.5 -127l376 9q7 0 11.5 3.5t6 8t2 9t0.5 5.5q0 31 -14 56.5t-38.5 43.5t-57 28t-69.5 10zM476 656q-2 2 -20 17t-42 34.5t-49.5 40.5t-41.5 35q-17 -14 -42 -35t-49 -40.5
t-42.5 -34.5t-20.5 -17l-1 -1l-9 9l2 1q54 66 84 102.5t45 53.5t20 20.5t10 3.5h2h1h3q4 0 9.5 -3.5t20.5 -21t45 -53.5t84 -102l1 -1l-8 -9l-2 1v0z" />
    <glyph glyph-name="edieresis" unicode="&#xeb;" horiz-adv-x="645" 
d="M607 193q-24 -54 -63 -95q-17 -18 -38 -34.5t-48 -30t-59 -21.5t-70 -8q-58 0 -109 21t-88.5 59t-59.5 92t-22 120q2 92 34 165q13 31 34.5 60.5t52.5 52.5t73.5 37.5t98.5 14.5q48 0 89.5 -14t72 -40t48 -62.5t17.5 -81.5h-450q-12 -50 -12 -109q0 -64 13 -117.5
t42.5 -92t77.5 -60t120 -21.5q46 0 83.5 17.5t67 43t49.5 54.5t32 52zM340 611q-78 0 -136.5 -46t-80.5 -127l376 9q7 0 11.5 3.5t6 8t2 9t0.5 5.5q0 31 -14 56.5t-38.5 43.5t-57 28t-69.5 10zM281 719q0 -18 -11 -27t-25 -9t-25.5 9t-11.5 27t11.5 27t25.5 9t25 -9t11 -27z
M436 719q0 -18 -11.5 -27t-25.5 -9t-25 9t-11 27t11 27t25 9t25.5 -9t11.5 -27z" />
    <glyph glyph-name="igrave" unicode="&#xec;" horiz-adv-x="242" 
d="M35 -1v19q29 0 44.5 17t15.5 55v412q0 25 -3 41.5t-10 28.5t-18.5 21.5t-28.5 20.5v14h114v-538q0 -34 15 -53t45 -19v-19h-174zM186 678q-66 55 -102.5 84.5t-54 44.5t-20.5 20.5t-3 12.5q0 8 7 17.5t21 9.5h1q5 0 10 -3t20 -20t45 -53.5t85 -103.5l2 -1l-9 -9l-2 1v0z
" />
    <glyph glyph-name="iacute" unicode="&#xed;" horiz-adv-x="242" 
d="M35 -1v19q29 0 44.5 17t15.5 55v412q0 25 -3 41.5t-10 28.5t-18.5 21.5t-28.5 20.5v14h114v-538q0 -34 15 -53t45 -19v-19h-174zM35 671l-9 9l2 1q55 67 84.5 103.5t44.5 53.5t20.5 20t10.5 3h1q14 0 21 -9.5t7 -17.5q0 -7 -3 -12.5t-20.5 -20.5t-54 -44.5t-102.5 -84.5z
" />
    <glyph glyph-name="icircumflex" unicode="&#xee;" horiz-adv-x="242" 
d="M35 -1v19q29 0 44.5 17t15.5 55v412q0 25 -3 41.5t-10 28.5t-18.5 21.5t-28.5 20.5v14h114v-538q0 -34 15 -53t45 -19v-19h-174zM275 659q-2 2 -20 17t-42 34.5t-49.5 40.5t-41.5 35q-17 -14 -42 -35t-49 -40.5t-42.5 -34.5t-20.5 -17l-1 -1l-9 9l2 1q54 66 84 102.5
t45 53.5t20 20.5t10 3.5h2h1h3q4 0 9.5 -3.5t20.5 -21t45 -53.5t84 -102l1 -1l-8 -9l-2 1v0z" />
    <glyph glyph-name="idieresis" unicode="&#xef;" horiz-adv-x="242" 
d="M35 -1v19q29 0 44.5 17t15.5 55v412q0 25 -3 41.5t-10 28.5t-18.5 21.5t-28.5 20.5v14h114v-538q0 -34 15 -53t45 -19v-19h-174zM80 725q0 -18 -11 -27t-25 -9t-25.5 9t-11.5 27t11.5 27t25.5 9t25 -9t11 -27zM235 725q0 -18 -11.5 -27t-25.5 -9t-25 9t-11 27t11 27t25 9
t25.5 -9t11.5 -27z" />
    <glyph glyph-name="ntilde" unicode="&#xf1;" horiz-adv-x="680" 
d="M655 19v-19h-174v19q29 0 44.5 17t15.5 55v321q0 102 -47.5 151.5t-128.5 49.5q-62 0 -119 -31.5t-101 -76.5v-414q0 -33 13.5 -52.5t36.5 -19.5h9v-19h-173v19q29 0 44 17t15 55v405q0 25 -3 42.5t-9.5 30.5t-18 23.5t-28.5 21.5v14h114v-82v-6v-16q13 13 35 31t51.5 34
t65.5 27.5t77 11.5q45 0 85.5 -11.5t70.5 -37t47.5 -65.5t17.5 -97v-326q0 -33 13.5 -52.5t36.5 -19.5h10zM472 768h11v-3q-4 -44 -26 -62t-45 -18q-20 0 -40 8.5t-40.5 18t-40 18t-37.5 8.5h-1q-2 0 -8.5 -1t-14 -5.5t-14.5 -14.5t-8 -28v-2h-12v2q1 15 5.5 30t13 27.5
t21 20t29.5 7.5q19 0 39.5 -8t41 -18t40.5 -18t39 -8q26 0 35.5 15t11.5 29v2z" />
    <glyph glyph-name="ograve" unicode="&#xf2;" 
d="M348 623q69 0 124.5 -22t95.5 -62.5t61.5 -98t21.5 -128.5t-21.5 -128.5t-61.5 -98t-95.5 -63t-124.5 -22.5t-125.5 22.5t-96.5 63t-61.5 98t-21.5 128.5t21.5 128.5t61.5 98t96.5 62.5t125.5 22zM348 12q55 0 99.5 21.5t76.5 60.5t49.5 94.5t17.5 123.5
q0 67 -17.5 122.5t-49.5 94.5t-76.5 60.5t-99.5 21.5q-56 0 -101 -21.5t-77 -60.5t-49.5 -94.5t-17.5 -122.5q0 -68 17.5 -123.5t49.5 -94.5t77 -60.5t101 -21.5zM433 672q-66 55 -102.5 84.5t-54 44.5t-20.5 20.5t-3 12.5q0 8 7 17.5t21 9.5h1q5 0 10 -3t20 -20t45 -53.5
t85 -103.5l2 -1l-9 -9l-2 1v0z" />
    <glyph glyph-name="oacute" unicode="&#xf3;" 
d="M348 623q69 0 124.5 -22t95.5 -62.5t61.5 -98t21.5 -128.5t-21.5 -128.5t-61.5 -98t-95.5 -63t-124.5 -22.5t-125.5 22.5t-96.5 63t-61.5 98t-21.5 128.5t21.5 128.5t61.5 98t96.5 62.5t125.5 22zM348 12q55 0 99.5 21.5t76.5 60.5t49.5 94.5t17.5 123.5
q0 67 -17.5 122.5t-49.5 94.5t-76.5 60.5t-99.5 21.5q-56 0 -101 -21.5t-77 -60.5t-49.5 -94.5t-17.5 -122.5q0 -68 17.5 -123.5t49.5 -94.5t77 -60.5t101 -21.5zM262 677l-9 9l2 1q55 67 84.5 103.5t44.5 53.5t20.5 20t10.5 3h1q14 0 21 -9.5t7 -17.5q0 -7 -3 -12.5
t-20.5 -20.5t-54 -44.5t-102.5 -84.5z" />
    <glyph glyph-name="ocircumflex" unicode="&#xf4;" 
d="M348 623q69 0 124.5 -22t95.5 -62.5t61.5 -98t21.5 -128.5t-21.5 -128.5t-61.5 -98t-95.5 -63t-124.5 -22.5t-125.5 22.5t-96.5 63t-61.5 98t-21.5 128.5t21.5 128.5t61.5 98t96.5 62.5t125.5 22zM348 12q55 0 99.5 21.5t76.5 60.5t49.5 94.5t17.5 123.5
q0 67 -17.5 122.5t-49.5 94.5t-76.5 60.5t-99.5 21.5q-56 0 -101 -21.5t-77 -60.5t-49.5 -94.5t-17.5 -122.5q0 -68 17.5 -123.5t49.5 -94.5t77 -60.5t101 -21.5zM502 656q-2 2 -20 17t-42 34.5t-49.5 40.5t-41.5 35q-17 -14 -42 -35t-49 -40.5t-42.5 -34.5t-20.5 -17l-1 -1
l-9 9l2 1q54 66 84 102.5t45 53.5t20 20.5t10 3.5h2h1h3q4 0 9.5 -3.5t20.5 -21t45 -53.5t84 -102l1 -1l-8 -9l-2 1v0z" />
    <glyph glyph-name="otilde" unicode="&#xf5;" 
d="M348 623q69 0 124.5 -22t95.5 -62.5t61.5 -98t21.5 -128.5t-21.5 -128.5t-61.5 -98t-95.5 -63t-124.5 -22.5t-125.5 22.5t-96.5 63t-61.5 98t-21.5 128.5t21.5 128.5t61.5 98t96.5 62.5t125.5 22zM348 12q55 0 99.5 21.5t76.5 60.5t49.5 94.5t17.5 123.5
q0 67 -17.5 122.5t-49.5 94.5t-76.5 60.5t-99.5 21.5q-56 0 -101 -21.5t-77 -60.5t-49.5 -94.5t-17.5 -122.5q0 -68 17.5 -123.5t49.5 -94.5t77 -60.5t101 -21.5zM481 769h11v-3q-4 -44 -26 -62t-45 -18q-20 0 -40 8.5t-40.5 18t-40 18t-37.5 8.5h-1q-2 0 -8.5 -1t-14 -5.5
t-14.5 -14.5t-8 -28v-2h-12v2q1 15 5.5 30t13 27.5t21 20t29.5 7.5q19 0 39.5 -8t41 -18t40.5 -18t39 -8q26 0 35.5 15t11.5 29v2z" />
    <glyph glyph-name="odieresis" unicode="&#xf6;" 
d="M348 623q69 0 124.5 -22t95.5 -62.5t61.5 -98t21.5 -128.5t-21.5 -128.5t-61.5 -98t-95.5 -63t-124.5 -22.5t-125.5 22.5t-96.5 63t-61.5 98t-21.5 128.5t21.5 128.5t61.5 98t96.5 62.5t125.5 22zM348 12q55 0 99.5 21.5t76.5 60.5t49.5 94.5t17.5 123.5
q0 67 -17.5 122.5t-49.5 94.5t-76.5 60.5t-99.5 21.5q-56 0 -101 -21.5t-77 -60.5t-49.5 -94.5t-17.5 -122.5q0 -68 17.5 -123.5t49.5 -94.5t77 -60.5t101 -21.5zM307 720q0 -18 -11 -27t-25 -9t-25.5 9t-11.5 27t11.5 27t25.5 9t25 -9t11 -27zM462 720q0 -18 -11.5 -27
t-25.5 -9t-25 9t-11 27t11 27t25 9t25.5 -9t11.5 -27z" />
    <glyph glyph-name="oslash" unicode="&#xf8;" 
d="M348 623q46 0 88 -11l25 72h21l-26 -77q91 -29 143 -106.5t52 -188.5q0 -71 -21.5 -128.5t-61.5 -98t-95.5 -63t-124.5 -22.5q-53 0 -96 12l-21 -60h-21l22 66q-89 31 -139 107.5t-50 186.5q0 71 21.5 128.5t61.5 98t96.5 62.5t125.5 22zM348 12q55 0 99.5 21.5
t76.5 60.5t49.5 94.5t17.5 123.5q0 101 -38 172.5t-104 103.5l-192 -559q43 -17 91 -17zM103 312q0 -100 36 -171t100 -104l192 559q-39 15 -83 15q-56 0 -101 -21.5t-77 -60.5t-49.5 -94.5t-17.5 -122.5z" />
    <glyph glyph-name="ugrave" unicode="&#xf9;" horiz-adv-x="693" 
d="M659 609q-29 0 -44 -17t-15 -55v-412q0 -25 2.5 -41t9.5 -28t18.5 -21.5t28.5 -20.5v-14h-114v76v6v16q-13 -13 -35 -31t-51.5 -34t-65.5 -27.5t-77 -11.5q-45 0 -85.5 11.5t-70.5 36.5t-47.5 65.5t-17.5 97.5v332q0 33 -13.5 52.5t-36.5 19.5h-9v19h173v-19
q-29 0 -44 -17t-15 -55v-327q0 -102 47 -151.5t128 -49.5q62 0 119 31.5t101 76.5v420q0 33 -13.5 52.5t-36.5 19.5h-9v19h173v-19v0zM431 677q-66 55 -102.5 84.5t-54 44.5t-20.5 20.5t-3 12.5q0 8 7 17.5t21 9.5h1q5 0 10 -3t20 -20t45 -53.5t85 -103.5l2 -1l-9 -9l-2 1v0
z" />
    <glyph glyph-name="uacute" unicode="&#xfa;" horiz-adv-x="693" 
d="M659 609q-29 0 -44 -17t-15 -55v-412q0 -25 2.5 -41t9.5 -28t18.5 -21.5t28.5 -20.5v-14h-114v76v6v16q-13 -13 -35 -31t-51.5 -34t-65.5 -27.5t-77 -11.5q-45 0 -85.5 11.5t-70.5 36.5t-47.5 65.5t-17.5 97.5v332q0 33 -13.5 52.5t-36.5 19.5h-9v19h173v-19
q-29 0 -44 -17t-15 -55v-327q0 -102 47 -151.5t128 -49.5q62 0 119 31.5t101 76.5v420q0 33 -13.5 52.5t-36.5 19.5h-9v19h173v-19v0zM260 671l-9 9l2 1q55 67 84.5 103.5t44.5 53.5t20.5 20t10.5 3h1q14 0 21 -9.5t7 -17.5q0 -7 -3 -12.5t-20.5 -20.5t-54 -44.5
t-102.5 -84.5z" />
    <glyph glyph-name="ucircumflex" unicode="&#xfb;" horiz-adv-x="693" 
d="M659 609q-29 0 -44 -17t-15 -55v-412q0 -25 2.5 -41t9.5 -28t18.5 -21.5t28.5 -20.5v-14h-114v76v6v16q-13 -13 -35 -31t-51.5 -34t-65.5 -27.5t-77 -11.5q-45 0 -85.5 11.5t-70.5 36.5t-47.5 65.5t-17.5 97.5v332q0 33 -13.5 52.5t-36.5 19.5h-9v19h173v-19
q-29 0 -44 -17t-15 -55v-327q0 -102 47 -151.5t128 -49.5q62 0 119 31.5t101 76.5v420q0 33 -13.5 52.5t-36.5 19.5h-9v19h173v-19v0zM500 663q-2 2 -20 17t-42 34.5t-49.5 40.5t-41.5 35q-17 -14 -42 -35t-49 -40.5t-42.5 -34.5t-20.5 -17l-1 -1l-9 9l2 1q54 66 84 102.5
t45 53.5t20 20.5t10 3.5h2h1h3q4 0 9.5 -3.5t20.5 -21t45 -53.5t84 -102l1 -1l-8 -9l-2 1v0z" />
    <glyph glyph-name="udieresis" unicode="&#xfc;" horiz-adv-x="693" 
d="M659 609q-29 0 -44 -17t-15 -55v-412q0 -25 2.5 -41t9.5 -28t18.5 -21.5t28.5 -20.5v-14h-114v76v6v16q-13 -13 -35 -31t-51.5 -34t-65.5 -27.5t-77 -11.5q-45 0 -85.5 11.5t-70.5 36.5t-47.5 65.5t-17.5 97.5v332q0 33 -13.5 52.5t-36.5 19.5h-9v19h173v-19
q-29 0 -44 -17t-15 -55v-327q0 -102 47 -151.5t128 -49.5q62 0 119 31.5t101 76.5v420q0 33 -13.5 52.5t-36.5 19.5h-9v19h173v-19v0zM305 719q0 -18 -11 -27t-25 -9t-25.5 9t-11.5 27t11.5 27t25.5 9t25 -9t11 -27zM460 719q0 -18 -11.5 -27t-25.5 -9t-25 9t-11 27t11 27
t25 9t25.5 -9t11.5 -27z" />
    <glyph glyph-name="yacute" unicode="&#xfd;" horiz-adv-x="715" 
d="M690 627v-18q-60 0 -91 -73l-234 -531q-13 -29 -31.5 -73t-45.5 -85t-63 -70.5t-84 -29.5q-38 0 -61 11t-23 29q0 20 18 22t39.5 -4t40 -14t19.5 -8q42 0 75 35.5t70 118.5l34 78l-229 525q-32 69 -89 69v18h173v-18q-23 0 -30 -13t2 -43l203 -486l199 469q14 32 10 52.5
t-23 20.5h-8v18h129zM271 667l-9 9l2 1q55 67 84.5 103.5t44.5 53.5t20.5 20t10.5 3h1q14 0 21 -9.5t7 -17.5q0 -7 -3 -12.5t-20.5 -20.5t-54 -44.5t-102.5 -84.5z" />
    <glyph glyph-name="ydieresis" unicode="&#xff;" horiz-adv-x="715" 
d="M690 627v-18q-60 0 -91 -73l-234 -531q-13 -29 -31.5 -73t-45.5 -85t-63 -70.5t-84 -29.5q-38 0 -61 11t-23 29q0 20 18 22t39.5 -4t40 -14t19.5 -8q42 0 75 35.5t70 118.5l34 78l-229 525q-32 69 -89 69v18h173v-18q-23 0 -30 -13t2 -43l203 -486l199 469q14 32 10 52.5
t-23 20.5h-8v18h129zM316 717q0 -18 -11 -27t-25 -9t-25.5 9t-11.5 27t11.5 27t25.5 9t25 -9t11 -27zM471 717q0 -18 -11.5 -27t-25.5 -9t-25 9t-11 27t11 27t25 9t25.5 -9t11.5 -27z" />
    <glyph glyph-name="cent" unicode="&#xa2;" horiz-adv-x="641" 
d="M356 623q47 0 87 -11t69.5 -30.5t47 -45t20.5 -53.5q0 -24 -24 -24q-11 0 -19 7t-9 20q-2 25 -17.5 47t-39 38.5t-53.5 26t-62 9.5v-583q48 0 86.5 17.5t67.5 43t49.5 54.5t32.5 52l14 -2q-22 -48 -57 -88q-30 -34 -78 -64t-115 -36v-74h-24v73q-60 0 -111.5 21t-90 59
t-60 92.5t-21.5 120.5q0 70 20 128.5t57 101t89 68.5t117 31v79h24v-78zM107 315q0 -60 11.5 -111.5t37.5 -90t69.5 -61.5t106.5 -27v581q-51 -5 -93 -27.5t-71 -60t-45 -89t-16 -114.5z" />
    <glyph glyph-name="abreve" unicode="&#x103;" horiz-adv-x="628" 
d="M608 45q-21 -21 -45.5 -33.5t-58.5 -12.5q-27 0 -41 13t-19.5 33.5t-5.5 46v50.5q-10 -25 -32 -50t-53.5 -45.5t-69.5 -33.5t-80 -13q-28 0 -57.5 9.5t-53.5 28.5t-39 47.5t-15 66.5q0 48 28.5 80.5t72 55.5t94 40.5t95 36.5t75.5 42t35 57q0 47 -13 76t-33 45
t-43.5 21.5t-43.5 5.5q-67 0 -109.5 -27t-51.5 -72h-55q11 51 65 82.5t151 31.5q36 0 70.5 -10t61.5 -31t43.5 -53t16.5 -75v-365q0 -31 9 -49.5t36 -18.5q20 0 33.5 7.5t26.5 20.5zM438 182v126v66.5t0.5 26t0.5 5v2.5v19q-16 -25 -46.5 -43.5t-66.5 -34t-74.5 -31.5
t-71 -36.5t-56 -47.5t-29.5 -66q-5 -33 4.5 -59t28.5 -44t46 -27.5t57 -9.5q33 0 67.5 11.5t64 32t50 49t25.5 61.5zM446 784q-8 -47 -44 -76t-88 -29t-88 29t-44 76l9 1q5 -32 39 -50t84 -18q51 0 85 18t39 50l8 -1v0z" />
    <glyph glyph-name="amacron" unicode="&#x101;" horiz-adv-x="628" 
d="M608 45q-21 -21 -45.5 -33.5t-58.5 -12.5q-27 0 -41 13t-19.5 33.5t-5.5 46v50.5q-10 -25 -32 -50t-53.5 -45.5t-69.5 -33.5t-80 -13q-28 0 -57.5 9.5t-53.5 28.5t-39 47.5t-15 66.5q0 48 28.5 80.5t72 55.5t94 40.5t95 36.5t75.5 42t35 57q0 47 -13 76t-33 45
t-43.5 21.5t-43.5 5.5q-67 0 -109.5 -27t-51.5 -72h-55q11 51 65 82.5t151 31.5q36 0 70.5 -10t61.5 -31t43.5 -53t16.5 -75v-365q0 -31 9 -49.5t36 -18.5q20 0 33.5 7.5t26.5 20.5zM438 182v126v66.5t0.5 26t0.5 5v2.5v19q-16 -25 -46.5 -43.5t-66.5 -34t-74.5 -31.5
t-71 -36.5t-56 -47.5t-29.5 -66q-5 -33 4.5 -59t28.5 -44t46 -27.5t57 -9.5q33 0 67.5 11.5t64 32t50 49t25.5 61.5zM191 696v16h246v-16h-246v0z" />
    <glyph glyph-name="aogonek" unicode="&#x105;" horiz-adv-x="628" 
d="M499 -214q-38 0 -63 20t-25 55t25.5 67t74.5 71h-7q-27 0 -41 13t-19.5 33.5t-5.5 46v50.5q-10 -25 -32 -50t-53.5 -45.5t-69.5 -33.5t-80 -13q-28 0 -57.5 9.5t-53.5 28.5t-39 47.5t-15 66.5q0 48 28.5 80.5t72 55.5t94 40.5t95 36.5t75.5 42t35 57q0 47 -13 76t-33 45
t-43.5 21.5t-43.5 5.5q-67 0 -109.5 -27t-51.5 -72h-55q11 51 65 82.5t151 31.5q36 0 70.5 -10t61.5 -31t43.5 -53t16.5 -75v-365q0 -31 9 -49.5t36 -18.5q20 0 33.5 7.5t26.5 20.5l6 -8q-14 -14 -29 -24.5t-34 -15.5q-28 -24 -44 -46t-23.5 -39.5t-9 -30t-1.5 -18.5
q0 -1 1 -11t6 -22t15 -21.5t29 -9.5q12 0 24.5 4t22 9.5t16 10l6.5 4.5l10 -12q-16 -14 -31.5 -21t-29 -11t-23 -4.5t-12.5 -0.5h-2zM438 182v126v66.5t0.5 26t0.5 5v2.5v19q-16 -25 -46.5 -43.5t-66.5 -34t-74.5 -31.5t-71 -36.5t-56 -47.5t-29.5 -66q-5 -33 4.5 -59
t28.5 -44t46 -27.5t57 -9.5q33 0 67.5 11.5t64 32t50 49t25.5 61.5z" />
    <glyph glyph-name="cacute" unicode="&#x107;" horiz-adv-x="641" 
d="M328 0q-59 0 -109.5 21t-88.5 59t-59.5 92.5t-21.5 120.5q0 75 22.5 135.5t63.5 104t99 67t129 23.5q44 0 82.5 -11t67.5 -30.5t46.5 -45t20.5 -53.5q0 -24 -24 -24q-11 0 -19 7t-9 20q-2 25 -17.5 47t-39 38.5t-53.5 26t-62 9.5q-56 0 -102 -20.5t-78.5 -59t-50.5 -92.5
t-18 -120q0 -63 12.5 -116.5t42 -92.5t78 -60.5t120.5 -21.5q46 0 83.5 17.5t67 43t49.5 54.5t32 52l14 -2q-24 -54 -63 -95q-17 -18 -38 -34.5t-48 -30t-59 -21.5t-70 -8zM261 669l-9 9l2 1q55 67 84.5 103.5t44.5 53.5t20.5 20t10.5 3h1q14 0 21 -9.5t7 -17.5
q0 -7 -3 -12.5t-20.5 -20.5t-54 -44.5t-102.5 -84.5z" />
    <glyph glyph-name="ccaron" unicode="&#x10d;" horiz-adv-x="641" 
d="M328 0q-59 0 -109.5 21t-88.5 59t-59.5 92.5t-21.5 120.5q0 75 22.5 135.5t63.5 104t99 67t129 23.5q44 0 82.5 -11t67.5 -30.5t46.5 -45t20.5 -53.5q0 -24 -24 -24q-11 0 -19 7t-9 20q-2 25 -17.5 47t-39 38.5t-53.5 26t-62 9.5q-56 0 -102 -20.5t-78.5 -59t-50.5 -92.5
t-18 -120q0 -63 12.5 -116.5t42 -92.5t78 -60.5t120.5 -21.5q46 0 83.5 17.5t67 43t49.5 54.5t32 52l14 -2q-24 -54 -63 -95q-17 -18 -38 -34.5t-48 -30t-59 -21.5t-70 -8zM503 858l8 -9l-1 -1q-54 -66 -84 -102t-45 -53.5t-20.5 -21t-9.5 -3.5h-3h-1h-2q-5 0 -10 3.5
t-20 20.5t-45 53.5t-84 102.5l-2 1l9 9l1 -1q2 -2 20.5 -17t42.5 -34.5t49 -40.5t42 -35q16 14 41.5 35t49.5 40.5t42 34.5t20 17z" />
    <glyph glyph-name="ccircumflex" unicode="&#x109;" horiz-adv-x="641" 
d="M328 0q-59 0 -109.5 21t-88.5 59t-59.5 92.5t-21.5 120.5q0 75 22.5 135.5t63.5 104t99 67t129 23.5q44 0 82.5 -11t67.5 -30.5t46.5 -45t20.5 -53.5q0 -24 -24 -24q-11 0 -19 7t-9 20q-2 25 -17.5 47t-39 38.5t-53.5 26t-62 9.5q-56 0 -102 -20.5t-78.5 -59t-50.5 -92.5
t-18 -120q0 -63 12.5 -116.5t42 -92.5t78 -60.5t120.5 -21.5q46 0 83.5 17.5t67 43t49.5 54.5t32 52l14 -2q-24 -54 -63 -95q-17 -18 -38 -34.5t-48 -30t-59 -21.5t-70 -8zM506 661q-2 2 -20 17t-42 34.5t-49.5 40.5t-41.5 35q-17 -14 -42 -35t-49 -40.5t-42.5 -34.5
t-20.5 -17l-1 -1l-9 9l2 1q54 66 84 102.5t45 53.5t20 20.5t10 3.5h2h1h3q4 0 9.5 -3.5t20.5 -21t45 -53.5t84 -102l1 -1l-8 -9l-2 1v0z" />
    <glyph glyph-name="cdotaccent" unicode="&#x10b;" horiz-adv-x="641" 
d="M328 0q-59 0 -109.5 21t-88.5 59t-59.5 92.5t-21.5 120.5q0 75 22.5 135.5t63.5 104t99 67t129 23.5q44 0 82.5 -11t67.5 -30.5t46.5 -45t20.5 -53.5q0 -24 -24 -24q-11 0 -19 7t-9 20q-2 25 -17.5 47t-39 38.5t-53.5 26t-62 9.5q-56 0 -102 -20.5t-78.5 -59t-50.5 -92.5
t-18 -120q0 -63 12.5 -116.5t42 -92.5t78 -60.5t120.5 -21.5q46 0 83.5 17.5t67 43t49.5 54.5t32 52l14 -2q-24 -54 -63 -95q-17 -18 -38 -34.5t-48 -30t-59 -21.5t-70 -8zM357 765q15 0 27.5 -9.5t12.5 -29.5t-12.5 -29.5t-27.5 -9.5t-27.5 9.5t-12.5 29.5t12.5 29.5
t27.5 9.5z" />
    <glyph glyph-name="dcaron" unicode="&#x10f;" horiz-adv-x="844" 
d="M575 -2v67q-37 -33 -99.5 -52.5t-131.5 -19.5q-58 0 -109.5 22.5t-90 62.5t-61 94.5t-22.5 118.5q0 77 24 137.5t65.5 102t97 63t117.5 21.5q69 0 124.5 -24t85.5 -61v197q0 25 -3 41.5t-9.5 28.5t-18 21t-28.5 20v14h114v-728q0 -25 2.5 -41.5t9.5 -28.5t18.5 -21.5
t28.5 -20.5v-14h-114zM575 504q-12 20 -33 37.5t-48.5 30.5t-61 20.5t-69.5 7.5q-50 0 -94 -19t-78 -55.5t-53.5 -90.5t-19.5 -123q0 -61 20.5 -113.5t55.5 -90.5t81.5 -60t97.5 -22q69 0 123.5 13t78.5 33v432zM743 850q25 0 35.5 -19.5t10.5 -45.5q0 -38 -19.5 -70
t-51.5 -48l-5 8q19 10 31.5 32t12.5 49q0 4 -0.5 8t-1.5 9q-3 -2 -6.5 -2h-6.5q-17 0 -28 11.5t-11 28.5t11 28t29 11z" />
    <glyph glyph-name="ebreve" unicode="&#x115;" horiz-adv-x="645" 
d="M607 193q-24 -54 -63 -95q-17 -18 -38 -34.5t-48 -30t-59 -21.5t-70 -8q-58 0 -109 21t-88.5 59t-59.5 92t-22 120q2 92 34 165q13 31 34.5 60.5t52.5 52.5t73.5 37.5t98.5 14.5q48 0 89.5 -14t72 -40t48 -62.5t17.5 -81.5h-450q-12 -50 -12 -109q0 -64 13 -117.5
t42.5 -92t77.5 -60t120 -21.5q46 0 83.5 17.5t67 43t49.5 54.5t32 52zM340 611q-78 0 -136.5 -46t-80.5 -127l376 9q7 0 11.5 3.5t6 8t2 9t0.5 5.5q0 31 -14 56.5t-38.5 43.5t-57 28t-69.5 10zM470 784q-8 -47 -44 -76t-88 -29t-88 29t-44 76l9 1q5 -32 39 -50t84 -18
q51 0 85 18t39 50l8 -1v0z" />
    <glyph glyph-name="ecaron" unicode="&#x11b;" horiz-adv-x="645" 
d="M607 193q-24 -54 -63 -95q-17 -18 -38 -34.5t-48 -30t-59 -21.5t-70 -8q-58 0 -109 21t-88.5 59t-59.5 92t-22 120q2 92 34 165q13 31 34.5 60.5t52.5 52.5t73.5 37.5t98.5 14.5q48 0 89.5 -14t72 -40t48 -62.5t17.5 -81.5h-450q-12 -50 -12 -109q0 -64 13 -117.5
t42.5 -92t77.5 -60t120 -21.5q46 0 83.5 17.5t67 43t49.5 54.5t32 52zM340 611q-78 0 -136.5 -46t-80.5 -127l376 9q7 0 11.5 3.5t6 8t2 9t0.5 5.5q0 31 -14 56.5t-38.5 43.5t-57 28t-69.5 10zM491 858l8 -9l-1 -1q-54 -66 -84 -102t-45 -53.5t-20.5 -21t-9.5 -3.5h-3h-1h-2
q-5 0 -10 3.5t-20 20.5t-45 53.5t-84 102.5l-2 1l9 9l1 -1q2 -2 20.5 -17t42.5 -34.5t49 -40.5t42 -35q16 14 41.5 35t49.5 40.5t42 34.5t20 17z" />
    <glyph glyph-name="edotaccent" unicode="&#x117;" horiz-adv-x="645" 
d="M607 193q-24 -54 -63 -95q-17 -18 -38 -34.5t-48 -30t-59 -21.5t-70 -8q-58 0 -109 21t-88.5 59t-59.5 92t-22 120q2 92 34 165q13 31 34.5 60.5t52.5 52.5t73.5 37.5t98.5 14.5q48 0 89.5 -14t72 -40t48 -62.5t17.5 -81.5h-450q-12 -50 -12 -109q0 -64 13 -117.5
t42.5 -92t77.5 -60t120 -21.5q46 0 83.5 17.5t67 43t49.5 54.5t32 52zM340 611q-78 0 -136.5 -46t-80.5 -127l376 9q7 0 11.5 3.5t6 8t2 9t0.5 5.5q0 31 -14 56.5t-38.5 43.5t-57 28t-69.5 10zM338 764q15 0 27.5 -9.5t12.5 -29.5t-12.5 -29.5t-27.5 -9.5t-27.5 9.5
t-12.5 29.5t12.5 29.5t27.5 9.5z" />
    <glyph glyph-name="emacron" unicode="&#x113;" horiz-adv-x="645" 
d="M607 193q-24 -54 -63 -95q-17 -18 -38 -34.5t-48 -30t-59 -21.5t-70 -8q-58 0 -109 21t-88.5 59t-59.5 92t-22 120q2 92 34 165q13 31 34.5 60.5t52.5 52.5t73.5 37.5t98.5 14.5q48 0 89.5 -14t72 -40t48 -62.5t17.5 -81.5h-450q-12 -50 -12 -109q0 -64 13 -117.5
t42.5 -92t77.5 -60t120 -21.5q46 0 83.5 17.5t67 43t49.5 54.5t32 52zM340 611q-78 0 -136.5 -46t-80.5 -127l376 9q7 0 11.5 3.5t6 8t2 9t0.5 5.5q0 31 -14 56.5t-38.5 43.5t-57 28t-69.5 10zM219 701v16h246v-16h-246v0z" />
    <glyph glyph-name="eogonek" unicode="&#x119;" horiz-adv-x="645" 
d="M459 -156q-38 0 -63 20t-25 55q0 27 14.5 51.5t43.5 50.5q-45 -17 -100 -17q-58 0 -109 21t-88.5 59t-59.5 92t-22 120q2 92 34 165q13 31 34.5 60.5t52.5 52.5t73.5 37.5t98.5 14.5q48 0 89.5 -14t72 -40t48 -62.5t17.5 -81.5h-450q-12 -50 -12 -109q0 -64 13 -117.5
t42.5 -92t77.5 -60t120 -21.5q36 0 66.5 11t56.5 28q6 4 9 7q37 27 61.5 61t38.5 60l14 -2q-9 -19 -21 -39q-11 -17 -28 -38.5t-40 -41.5h1q-33 -26 -51.5 -49.5t-27.5 -43t-11 -33t-2 -19.5q0 -1 1 -11t6 -22t15 -21.5t29 -9.5q12 0 24.5 4t22 9.5t16 10l6.5 4.5l10 -12
q-16 -14 -31.5 -21t-29 -11t-23 -4.5t-12.5 -0.5h-2zM340 611q-78 0 -136.5 -46t-80.5 -127l376 9q7 0 11.5 3.5t6 8t2 9t0.5 5.5q0 31 -14 56.5t-38.5 43.5t-57 28t-69.5 10z" />
    <glyph glyph-name="gbreve" unicode="&#x11f;" horiz-adv-x="608" 
d="M581 -66q2 -43 -18 -82.5t-61.5 -69t-103.5 -44.5t-145 -10q-71 4 -115.5 26t-69 53t-32.5 66.5t-6.5 67.5t9 55.5t14.5 31.5l46 -26q-10 -13 -18 -36t-9.5 -50t6 -56t28.5 -53.5t58 -42t95 -21.5q71 -5 125.5 6t91 34t56 55t20.5 68q2 45 -19.5 72.5t-57.5 43
t-82.5 22.5t-95 11.5t-94.5 10t-81.5 17t-56 33.5t-17.5 60q2 40 24.5 60t59.5 28q-26 21 -40 45.5t-21 47t-8.5 39.5t-1.5 24q0 47 18 85t50.5 65t78.5 42t103 15q24 0 49 -3t49 -10q28 42 69.5 59.5t86.5 3.5q22 -8 14 -31q-5 -11 -14.5 -15.5t-22.5 -0.5q-33 10 -62 3.5
t-51 -26.5q27 -11 51.5 -27t43 -39t29 -53t10.5 -68q0 -48 -18 -86.5t-51 -65.5t-79.5 -42t-103.5 -15q-59 0 -100 12.5t-69 32.5q-25 -5 -39.5 -19t-14.5 -40q0 -31 20.5 -48t55 -26t78 -12.5t89 -8t89.5 -13t79 -26.5t57.5 -49t24.5 -80zM108 420q0 -47 15.5 -83.5
t42.5 -61.5t64 -38t81 -13t81.5 13t64.5 38t42 61.5t15 83.5q0 46 -15 82t-42 61t-64.5 38t-81.5 13t-81 -13t-64 -38t-42.5 -61t-15.5 -82zM439 783q-8 -47 -44 -76t-88 -29t-88 29t-44 76l9 1q5 -32 39 -50t84 -18q51 0 85 18t39 50l8 -1v0z" />
    <glyph glyph-name="gcircumflex" unicode="&#x11d;" horiz-adv-x="608" 
d="M581 -66q2 -43 -18 -82.5t-61.5 -69t-103.5 -44.5t-145 -10q-71 4 -115.5 26t-69 53t-32.5 66.5t-6.5 67.5t9 55.5t14.5 31.5l46 -26q-10 -13 -18 -36t-9.5 -50t6 -56t28.5 -53.5t58 -42t95 -21.5q71 -5 125.5 6t91 34t56 55t20.5 68q2 45 -19.5 72.5t-57.5 43
t-82.5 22.5t-95 11.5t-94.5 10t-81.5 17t-56 33.5t-17.5 60q2 40 24.5 60t59.5 28q-26 21 -40 45.5t-21 47t-8.5 39.5t-1.5 24q0 47 18 85t50.5 65t78.5 42t103 15q24 0 49 -3t49 -10q28 42 69.5 59.5t86.5 3.5q22 -8 14 -31q-5 -11 -14.5 -15.5t-22.5 -0.5q-33 10 -62 3.5
t-51 -26.5q27 -11 51.5 -27t43 -39t29 -53t10.5 -68q0 -48 -18 -86.5t-51 -65.5t-79.5 -42t-103.5 -15q-59 0 -100 12.5t-69 32.5q-25 -5 -39.5 -19t-14.5 -40q0 -31 20.5 -48t55 -26t78 -12.5t89 -8t89.5 -13t79 -26.5t57.5 -49t24.5 -80zM108 420q0 -47 15.5 -83.5
t42.5 -61.5t64 -38t81 -13t81.5 13t64.5 38t42 61.5t15 83.5q0 46 -15 82t-42 61t-64.5 38t-81.5 13t-81 -13t-64 -38t-42.5 -61t-15.5 -82zM457 686q-2 2 -20 17t-42 34.5t-49.5 40.5t-41.5 35q-17 -14 -42 -35t-49 -40.5t-42.5 -34.5t-20.5 -17l-1 -1l-9 9l2 1
q54 66 84 102.5t45 53.5t20 20.5t10 3.5h2h1h3q4 0 9.5 -3.5t20.5 -21t45 -53.5t84 -102l1 -1l-8 -9l-2 1v0z" />
    <glyph glyph-name="gcommaaccent" unicode="&#x123;" horiz-adv-x="608" 
d="M581 -66q2 -43 -18 -82.5t-61.5 -69t-103.5 -44.5t-145 -10q-71 4 -115.5 26t-69 53t-32.5 66.5t-6.5 67.5t9 55.5t14.5 31.5l46 -26q-10 -13 -18 -36t-9.5 -50t6 -56t28.5 -53.5t58 -42t95 -21.5q71 -5 125.5 6t91 34t56 55t20.5 68q2 45 -19.5 72.5t-57.5 43
t-82.5 22.5t-95 11.5t-94.5 10t-81.5 17t-56 33.5t-17.5 60q2 40 24.5 60t59.5 28q-26 21 -40 45.5t-21 47t-8.5 39.5t-1.5 24q0 47 18 85t50.5 65t78.5 42t103 15q24 0 49 -3t49 -10q28 42 69.5 59.5t86.5 3.5q22 -8 14 -31q-5 -11 -14.5 -15.5t-22.5 -0.5q-33 10 -62 3.5
t-51 -26.5q27 -11 51.5 -27t43 -39t29 -53t10.5 -68q0 -48 -18 -86.5t-51 -65.5t-79.5 -42t-103.5 -15q-59 0 -100 12.5t-69 32.5q-25 -5 -39.5 -19t-14.5 -40q0 -31 20.5 -48t55 -26t78 -12.5t89 -8t89.5 -13t79 -26.5t57.5 -49t24.5 -80zM108 420q0 -47 15.5 -83.5
t42.5 -61.5t64 -38t81 -13t81.5 13t64.5 38t42 61.5t15 83.5q0 46 -15 82t-42 61t-64.5 38t-81.5 13t-81 -13t-64 -38t-42.5 -61t-15.5 -82zM307 903q18 0 29 -11t11 -28t-11 -28.5t-28 -11.5h-6.5t-6.5 2q-1 -5 -1.5 -9t-0.5 -8q0 -27 12.5 -49t31.5 -32l-5 -8
q-32 16 -51.5 48t-19.5 70q0 26 10.5 45.5t35.5 19.5z" />
    <glyph glyph-name="gdotaccent" unicode="&#x121;" horiz-adv-x="608" 
d="M581 -66q2 -43 -18 -82.5t-61.5 -69t-103.5 -44.5t-145 -10q-71 4 -115.5 26t-69 53t-32.5 66.5t-6.5 67.5t9 55.5t14.5 31.5l46 -26q-10 -13 -18 -36t-9.5 -50t6 -56t28.5 -53.5t58 -42t95 -21.5q71 -5 125.5 6t91 34t56 55t20.5 68q2 45 -19.5 72.5t-57.5 43
t-82.5 22.5t-95 11.5t-94.5 10t-81.5 17t-56 33.5t-17.5 60q2 40 24.5 60t59.5 28q-26 21 -40 45.5t-21 47t-8.5 39.5t-1.5 24q0 47 18 85t50.5 65t78.5 42t103 15q24 0 49 -3t49 -10q28 42 69.5 59.5t86.5 3.5q22 -8 14 -31q-5 -11 -14.5 -15.5t-22.5 -0.5q-33 10 -62 3.5
t-51 -26.5q27 -11 51.5 -27t43 -39t29 -53t10.5 -68q0 -48 -18 -86.5t-51 -65.5t-79.5 -42t-103.5 -15q-59 0 -100 12.5t-69 32.5q-25 -5 -39.5 -19t-14.5 -40q0 -31 20.5 -48t55 -26t78 -12.5t89 -8t89.5 -13t79 -26.5t57.5 -49t24.5 -80zM108 420q0 -47 15.5 -83.5
t42.5 -61.5t64 -38t81 -13t81.5 13t64.5 38t42 61.5t15 83.5q0 46 -15 82t-42 61t-64.5 38t-81.5 13t-81 -13t-64 -38t-42.5 -61t-15.5 -82zM310 767q15 0 27.5 -9.5t12.5 -29.5t-12.5 -29.5t-27.5 -9.5t-27.5 9.5t-12.5 29.5t12.5 29.5t27.5 9.5z" />
    <glyph glyph-name="ibreve" unicode="&#x12d;" horiz-adv-x="242" 
d="M35 -1v19q29 0 44.5 17t15.5 55v412q0 25 -3 41.5t-10 28.5t-18.5 21.5t-28.5 20.5v14h114v-538q0 -34 15 -53t45 -19v-19h-174zM247 794q-8 -47 -44 -76t-88 -29t-88 29t-44 76l9 1q5 -32 39 -50t84 -18q51 0 85 18t39 50l8 -1v0z" />
    <glyph glyph-name="imacron" unicode="&#x12b;" horiz-adv-x="242" 
d="M35 -1v19q29 0 44.5 17t15.5 55v412q0 25 -3 41.5t-10 28.5t-18.5 21.5t-28.5 20.5v14h114v-538q0 -34 15 -53t45 -19v-19h-174zM-2 702v16h246v-16h-246v0z" />
    <glyph glyph-name="ij" unicode="&#x133;" horiz-adv-x="487" 
d="M35 -1v19q29 0 44.5 17t15.5 55v412q0 25 -3 41.5t-10 28.5t-18.5 21.5t-28.5 20.5v14h114v-538q0 -34 15 -53t45 -19v-19h-174zM82 727q0 18 11.5 27t25 9t25 -9t11.5 -27t-11.5 -27t-25 -9t-25 9t-11.5 27zM392 629v-587q0 -54 -10 -93.5t-33.5 -72.5t-61.5 -63
t-94 -65l-5 8q42 26 70.5 50.5t45.5 54.5t24.5 70t7.5 97l0.5 23t0.5 62v89v103.5v106.5v97q0 23 -3 38.5t-10 27t-18.5 20.5t-27.5 20v14h114zM324 746q0 18 11.5 27t25.5 9t25.5 -9t11.5 -27t-11.5 -27t-25.5 -9t-25.5 9t-11.5 27z" />
    <glyph glyph-name="iogonek" unicode="&#x12f;" horiz-adv-x="242" 
d="M116 -222q-38 0 -63 20t-25 55q0 38 28 71t82 75h-103v19q29 0 44.5 17t15.5 55v412q0 25 -3 41.5t-10 28.5t-18.5 21.5t-28.5 20.5v14h114v-538q0 -34 15 -53t45 -19v-19h-44q-29 -24 -45.5 -46t-24.5 -40t-9.5 -31t-1.5 -19q0 -1 1 -11t6 -22t15 -21.5t29 -9.5
q12 0 24.5 4t22 9.5t16 10l6.5 4.5l10 -12q-16 -14 -31.5 -21t-29 -11t-23 -4.5t-12.5 -0.5h-2zM82 727q0 18 11.5 27t25 9t25 -9t11.5 -27t-11.5 -27t-25 -9t-25 9t-11.5 27z" />
    <glyph glyph-name="itilde" unicode="&#x129;" horiz-adv-x="242" 
d="M35 -1v19q29 0 44.5 17t15.5 55v412q0 25 -3 41.5t-10 28.5t-18.5 21.5t-28.5 20.5v14h114v-538q0 -34 15 -53t45 -19v-19h-174zM254 774h11v-3q-4 -44 -26 -62t-45 -18q-20 0 -40 8.5t-40.5 18t-40 18t-37.5 8.5h-1q-2 0 -8.5 -1t-14 -5.5t-14.5 -14.5t-8 -28v-2h-12v2
q1 15 5.5 30t13 27.5t21 20t29.5 7.5q19 0 39.5 -8t41 -18t40.5 -18t39 -8q26 0 35.5 15t11.5 29v2z" />
    <glyph glyph-name="jcircumflex" unicode="&#x135;" horiz-adv-x="245" 
d="M150 629v-587q0 -54 -10 -93.5t-33.5 -72.5t-61.5 -63t-94 -65l-5 8q42 26 70.5 50.5t45.5 54.5t24.5 70t7.5 97l0.5 23t0.5 62v89v103.5v106.5v97q0 23 -3 38.5t-10 27t-18.5 20.5t-27.5 20v14h114zM276 660q-2 2 -20 17t-42 34.5t-49.5 40.5t-41.5 35q-17 -14 -42 -35
t-49 -40.5t-42.5 -34.5t-20.5 -17l-1 -1l-9 9l2 1q54 66 84 102.5t45 53.5t20 20.5t10 3.5h2h1h3q4 0 9.5 -3.5t20.5 -21t45 -53.5t84 -102l1 -1l-8 -9z" />
    <glyph glyph-name="kcommaaccent" unicode="&#x137;" horiz-adv-x="666" 
d="M546 91q5 -8 13.5 -20t21.5 -23.5t30 -20t39 -8.5v-19h-166v19q20 0 22.5 16t-10.5 37l-192 324l-147 -145v-160q0 -33 13.5 -52.5t36.5 -19.5h9v-19h-173v19q29 0 44 17t15 55v634q0 25 -3 41.5t-9.5 28.5t-18 21.5t-28.5 20.5v14h114v-580l273 270q19 20 27 33.5
t9.5 21t-2.5 10.5t-10 3h-6v19h119v-19q-30 0 -62 -22.5t-74 -64.5l-93 -92l208 -339v0zM330 -26q25 0 35.5 -19.5t10.5 -45.5q0 -38 -19.5 -70t-51.5 -48l-5 8q19 10 31.5 32t12.5 49q0 4 -0.5 8t-1.5 9q-3 -2 -6.5 -2h-6.5q-17 0 -28 11.5t-11 28.5t11 28t29 11z" />
    <glyph glyph-name="lacute" unicode="&#x13a;" horiz-adv-x="245" 
d="M37 -2v18q29 0 44 17t15 55v638q0 25 -3 41.5t-9.5 28.5t-18 21.5t-28.5 20.5v14h114v-764q0 -33 13.5 -52.5t36.5 -19.5h9v-18h-173zM36 895l-9 9l2 1q55 67 84.5 103.5t44.5 53.5t20.5 20t10.5 3h1q14 0 21 -9.5t7 -17.5q0 -7 -3 -12.5t-20.5 -20.5t-54 -44.5
t-102.5 -84.5z" />
    <glyph glyph-name="lcaron" unicode="&#x13e;" horiz-adv-x="351" 
d="M37 -2v18q29 0 44 17t15 55v638q0 25 -3 41.5t-9.5 28.5t-18 21.5t-28.5 20.5v14h114v-764q0 -33 13.5 -52.5t36.5 -19.5h9v-18h-173zM251 850q25 0 35.5 -19.5t10.5 -45.5q0 -38 -19.5 -70t-51.5 -48l-5 8q19 10 31.5 32t12.5 49q0 4 -0.5 8t-1.5 9q-3 -2 -6.5 -2h-6.5
q-17 0 -28 11.5t-11 28.5t11 28t29 11z" />
    <glyph glyph-name="lcommaaccent" unicode="&#x13c;" horiz-adv-x="245" 
d="M37 -2v18q29 0 44 17t15 55v638q0 25 -3 41.5t-9.5 28.5t-18 21.5t-28.5 20.5v14h114v-764q0 -33 13.5 -52.5t36.5 -19.5h9v-18h-173zM120 -26q25 0 35.5 -19.5t10.5 -45.5q0 -38 -19.5 -70t-51.5 -48l-5 8q19 10 31.5 32t12.5 49q0 4 -0.5 8t-1.5 9q-3 -2 -6.5 -2h-6.5
q-17 0 -28 11.5t-11 28.5t11 28t29 11z" />
    <glyph glyph-name="ldot" unicode="&#x140;" horiz-adv-x="305" 
d="M37 -2v18q29 0 44 17t15 55v638q0 25 -3 41.5t-9.5 28.5t-18 21.5t-28.5 20.5v14h114v-764q0 -33 13.5 -52.5t36.5 -19.5h9v-18h-173zM236 441q15 0 27.5 -9.5t12.5 -29.5t-12.5 -29.5t-27.5 -9.5t-27.5 9.5t-12.5 29.5t12.5 29.5t27.5 9.5z" />
    <glyph glyph-name="nacute" unicode="&#x144;" horiz-adv-x="680" 
d="M655 19v-19h-174v19q29 0 44.5 17t15.5 55v321q0 102 -47.5 151.5t-128.5 49.5q-62 0 -119 -31.5t-101 -76.5v-414q0 -33 13.5 -52.5t36.5 -19.5h9v-19h-173v19q29 0 44 17t15 55v405q0 25 -3 42.5t-9.5 30.5t-18 23.5t-28.5 21.5v14h114v-82v-6v-16q13 13 35 31t51.5 34
t65.5 27.5t77 11.5q45 0 85.5 -11.5t70.5 -37t47.5 -65.5t17.5 -97v-326q0 -33 13.5 -52.5t36.5 -19.5h10zM279 665l-9 9l2 1q55 67 84.5 103.5t44.5 53.5t20.5 20t10.5 3h1q14 0 21 -9.5t7 -17.5q0 -7 -3 -12.5t-20.5 -20.5t-54 -44.5t-102.5 -84.5z" />
    <glyph glyph-name="napostrophe" unicode="&#x149;" horiz-adv-x="786" 
d="M761 19v-19h-174v19q29 0 44.5 17t15.5 55v321q0 102 -47.5 151.5t-128.5 49.5q-62 0 -119 -31.5t-101 -76.5v-414q0 -33 13.5 -52.5t36.5 -19.5h9v-19h-173v19q29 0 44 17t15 55v405q0 25 -3 42.5t-9.5 30.5t-18 23.5t-28.5 21.5v14h114v-82v-6v-16q13 13 35 31t51.5 34
t65.5 27.5t77 11.5q45 0 85.5 -11.5t70.5 -37t47.5 -65.5t17.5 -97v-326q0 -33 13.5 -52.5t36.5 -19.5h10zM70 848q25 0 35.5 -19.5t10.5 -45.5q0 -38 -19.5 -70t-51.5 -48l-5 8q19 10 31.5 32t12.5 49q0 4 -0.5 8t-1.5 9q-3 -2 -6.5 -2h-6.5q-17 0 -28 11.5t-11 28.5t11 28
t29 11z" />
    <glyph glyph-name="ncaron" unicode="&#x148;" horiz-adv-x="680" 
d="M655 19v-19h-174v19q29 0 44.5 17t15.5 55v321q0 102 -47.5 151.5t-128.5 49.5q-62 0 -119 -31.5t-101 -76.5v-414q0 -33 13.5 -52.5t36.5 -19.5h9v-19h-173v19q29 0 44 17t15 55v405q0 25 -3 42.5t-9.5 30.5t-18 23.5t-28.5 21.5v14h114v-82v-6v-16q13 13 35 31t51.5 34
t65.5 27.5t77 11.5q45 0 85.5 -11.5t70.5 -37t47.5 -65.5t17.5 -97v-326q0 -33 13.5 -52.5t36.5 -19.5h10zM494 858l8 -9l-1 -1q-54 -66 -84 -102t-45 -53.5t-20.5 -21t-9.5 -3.5h-3h-1h-2q-5 0 -10 3.5t-20 20.5t-45 53.5t-84 102.5l-2 1l9 9l1 -1q2 -2 20.5 -17
t42.5 -34.5t49 -40.5t42 -35q16 14 41.5 35t49.5 40.5t42 34.5t20 17z" />
    <glyph glyph-name="ncommaaccent" unicode="&#x146;" horiz-adv-x="680" 
d="M655 19v-19h-174v19q29 0 44.5 17t15.5 55v321q0 102 -47.5 151.5t-128.5 49.5q-62 0 -119 -31.5t-101 -76.5v-414q0 -33 13.5 -52.5t36.5 -19.5h9v-19h-173v19q29 0 44 17t15 55v405q0 25 -3 42.5t-9.5 30.5t-18 23.5t-28.5 21.5v14h114v-82v-6v-16q13 13 35 31t51.5 34
t65.5 27.5t77 11.5q45 0 85.5 -11.5t70.5 -37t47.5 -65.5t17.5 -97v-326q0 -33 13.5 -52.5t36.5 -19.5h10zM337 -26q25 0 35.5 -19.5t10.5 -45.5q0 -38 -19.5 -70t-51.5 -48l-5 8q19 10 31.5 32t12.5 49q0 4 -0.5 8t-1.5 9q-3 -2 -6.5 -2h-6.5q-17 0 -28 11.5t-11 28.5
t11 28t29 11z" />
    <glyph glyph-name="obreve" unicode="&#x14f;" 
d="M348 623q69 0 124.5 -22t95.5 -62.5t61.5 -98t21.5 -128.5t-21.5 -128.5t-61.5 -98t-95.5 -63t-124.5 -22.5t-125.5 22.5t-96.5 63t-61.5 98t-21.5 128.5t21.5 128.5t61.5 98t96.5 62.5t125.5 22zM348 12q55 0 99.5 21.5t76.5 60.5t49.5 94.5t17.5 123.5
q0 67 -17.5 122.5t-49.5 94.5t-76.5 60.5t-99.5 21.5q-56 0 -101 -21.5t-77 -60.5t-49.5 -94.5t-17.5 -122.5q0 -68 17.5 -123.5t49.5 -94.5t77 -60.5t101 -21.5zM480 781q-8 -47 -44 -76t-88 -29t-88 29t-44 76l9 1q5 -32 39 -50t84 -18q51 0 85 18t39 50l8 -1v0z" />
    <glyph glyph-name="ohungarumlaut" unicode="&#x151;" 
d="M348 623q69 0 124.5 -22t95.5 -62.5t61.5 -98t21.5 -128.5t-21.5 -128.5t-61.5 -98t-95.5 -63t-124.5 -22.5t-125.5 22.5t-96.5 63t-61.5 98t-21.5 128.5t21.5 128.5t61.5 98t96.5 62.5t125.5 22zM348 12q55 0 99.5 21.5t76.5 60.5t49.5 94.5t17.5 123.5
q0 67 -17.5 122.5t-49.5 94.5t-76.5 60.5t-99.5 21.5q-56 0 -101 -21.5t-77 -60.5t-49.5 -94.5t-17.5 -122.5q0 -68 17.5 -123.5t49.5 -94.5t77 -60.5t101 -21.5zM173 675l-9 9l2 1q55 67 84.5 103.5t44.5 53.5t20.5 20t10.5 3h1q14 0 21 -9.5t7 -17.5q0 -7 -3 -12.5
t-20.5 -20.5t-54 -44.5t-102.5 -84.5zM351 675l-9 9l2 1q55 67 84.5 103.5t44.5 53.5t20.5 20t10.5 3h1q14 0 21 -9.5t7 -17.5q0 -7 -3 -12.5t-20.5 -20.5t-54 -44.5t-102.5 -84.5z" />
    <glyph glyph-name="omacron" unicode="&#x14d;" 
d="M348 623q69 0 124.5 -22t95.5 -62.5t61.5 -98t21.5 -128.5t-21.5 -128.5t-61.5 -98t-95.5 -63t-124.5 -22.5t-125.5 22.5t-96.5 63t-61.5 98t-21.5 128.5t21.5 128.5t61.5 98t96.5 62.5t125.5 22zM348 12q55 0 99.5 21.5t76.5 60.5t49.5 94.5t17.5 123.5
q0 67 -17.5 122.5t-49.5 94.5t-76.5 60.5t-99.5 21.5q-56 0 -101 -21.5t-77 -60.5t-49.5 -94.5t-17.5 -122.5q0 -68 17.5 -123.5t49.5 -94.5t77 -60.5t101 -21.5zM225 697v16h246v-16h-246v0z" />
    <glyph glyph-name="racute" unicode="&#x155;" horiz-adv-x="487" 
d="M150 626v-92q29 34 62 55t66.5 32.5t65 15t56 2.5t41 -4t19.5 -5v-67q-23 18 -62 27t-83.5 5t-88.5 -22.5t-76 -54.5v-427q0 -33 13.5 -52.5t36.5 -19.5h9v-18h-173v18q29 0 44 17t15 55v410q0 25 -3 41.5t-9.5 28.5t-18 21t-28.5 20v14h114zM157 676l-9 9l2 1
q55 67 84.5 103.5t44.5 53.5t20.5 20t10.5 3h1q14 0 21 -9.5t7 -17.5q0 -7 -3 -12.5t-20.5 -20.5t-54 -44.5t-102.5 -84.5z" />
    <glyph glyph-name="rcaron" unicode="&#x159;" horiz-adv-x="487" 
d="M150 626v-92q29 34 62 55t66.5 32.5t65 15t56 2.5t41 -4t19.5 -5v-67q-23 18 -62 27t-83.5 5t-88.5 -22.5t-76 -54.5v-427q0 -33 13.5 -52.5t36.5 -19.5h9v-18h-173v18q29 0 44 17t15 55v410q0 25 -3 41.5t-9.5 28.5t-18 21t-28.5 20v14h114zM399 861l8 -9l-1 -1
q-54 -66 -84 -102t-45 -53.5t-20.5 -21t-9.5 -3.5h-3h-1h-2q-5 0 -10 3.5t-20 20.5t-45 53.5t-84 102.5l-2 1l9 9l1 -1q2 -2 20.5 -17t42.5 -34.5t49 -40.5t42 -35q16 14 41.5 35t49.5 40.5t42 34.5t20 17z" />
    <glyph glyph-name="rcommaaccent" unicode="&#x157;" horiz-adv-x="487" 
d="M150 626v-92q29 34 62 55t66.5 32.5t65 15t56 2.5t41 -4t19.5 -5v-67q-23 18 -62 27t-83.5 5t-88.5 -22.5t-76 -54.5v-427q0 -33 13.5 -52.5t36.5 -19.5h9v-18h-173v18q29 0 44 17t15 55v410q0 25 -3 41.5t-9.5 28.5t-18 21t-28.5 20v14h114zM122 -39q25 0 35.5 -19.5
t10.5 -45.5q0 -38 -19.5 -70t-51.5 -48l-5 8q19 10 31.5 32t12.5 49q0 4 -0.5 8t-1.5 9q-3 -2 -6.5 -2h-6.5q-17 0 -28 11.5t-11 28.5t11 28t29 11z" />
    <glyph glyph-name="sacute" unicode="&#x15b;" horiz-adv-x="569" 
d="M460 505q-2 5 -4.5 10t-4.5 10q-14 32 -44.5 56t-65.5 33q-44 11 -84.5 9t-72 -15t-50.5 -35.5t-19 -50.5q0 -21 15 -37.5t42.5 -31.5t66 -29t85.5 -30q41 -14 79 -32t66 -43.5t43 -61t11 -83.5q-4 -39 -22.5 -71t-48.5 -55t-71 -35.5t-89 -12.5q-36 0 -72 3.5t-68 9.5
t-59.5 14.5t-46.5 19.5q1 2 2.5 4.5t2.5 4.5l-5 -9l-4 86h18l14 -23q22 -36 62.5 -61.5t86.5 -30.5q0 -1 10.5 -2t23.5 -1.5t25 -1t14 -0.5q83 0 127 37t51 104q5 45 -9.5 77t-42 55.5t-64.5 39.5t-76 29q-48 16 -87.5 32t-67.5 33.5t-43 37.5t-15 45q0 28 14.5 52t41.5 42
t65.5 28.5t85.5 10.5q46 0 100 -14.5t99 -38.5l4 -78h-19v0zM198 675l-9 9l2 1q55 67 84.5 103.5t44.5 53.5t20.5 20t10.5 3h1q14 0 21 -9.5t7 -17.5q0 -7 -3 -12.5t-20.5 -20.5t-54 -44.5t-102.5 -84.5z" />
    <glyph glyph-name="scedilla" unicode="&#x15f;" horiz-adv-x="569" 
d="M278 -56q12 0 30 -4t35.5 -16t29.5 -32.5t12 -53.5q0 -23 -9.5 -41.5t-24.5 -32t-35 -21t-41 -7.5q-29 0 -53 13t-39 36l15 10q10 -15 22 -23t23 -11.5t18.5 -4.5t9.5 -1q37 0 51.5 24.5t14.5 60.5q0 31 -7.5 48.5t-17 25.5t-18.5 10t-12 2q-10 0 -21 -1.5t-25 -6.5
l-1 -1l-10 14l51 69q-69 2 -131 14t-99 33l-4 86h18l14 -23q22 -36 62.5 -61.5t86.5 -30.5q0 -1 10.5 -2t23.5 -1.5t25 -1t14 -0.5q83 0 127 37t51 104q5 45 -9.5 77t-42 55.5t-64.5 39.5t-76 29q-48 16 -87.5 32t-67.5 33.5t-43 37.5t-15 45q0 28 14.5 52t41.5 42
t65.5 28.5t85.5 10.5q46 0 100 -14.5t99 -38.5l4 -78h-19q-2 5 -4.5 10t-4.5 10q-14 32 -44.5 56t-65.5 33q-44 11 -84.5 9t-72 -15t-50.5 -35.5t-19 -50.5q0 -21 15 -37.5t42.5 -31.5t66 -29t85.5 -30q41 -14 79 -32t66 -43.5t43 -61t11 -83.5q-4 -38 -22 -70t-47 -54.5
t-68.5 -35.5t-86.5 -14l-43 -58q5 1 11 1.5t11 0.5zM48 51l3 5z" />
    <glyph glyph-name="scircumflex" unicode="&#x15d;" horiz-adv-x="569" 
d="M460 505q-2 5 -4.5 10t-4.5 10q-14 32 -44.5 56t-65.5 33q-44 11 -84.5 9t-72 -15t-50.5 -35.5t-19 -50.5q0 -21 15 -37.5t42.5 -31.5t66 -29t85.5 -30q41 -14 79 -32t66 -43.5t43 -61t11 -83.5q-4 -39 -22.5 -71t-48.5 -55t-71 -35.5t-89 -12.5q-36 0 -72 3.5t-68 9.5
t-59.5 14.5t-46.5 19.5q1 2 2.5 4.5t2.5 4.5l-5 -9l-4 86h18l14 -23q22 -36 62.5 -61.5t86.5 -30.5q0 -1 10.5 -2t23.5 -1.5t25 -1t14 -0.5q83 0 127 37t51 104q5 45 -9.5 77t-42 55.5t-64.5 39.5t-76 29q-48 16 -87.5 32t-67.5 33.5t-43 37.5t-15 45q0 28 14.5 52t41.5 42
t65.5 28.5t85.5 10.5q46 0 100 -14.5t99 -38.5l4 -78h-19v0zM438 660q-2 2 -20 17t-42 34.5t-49.5 40.5t-41.5 35q-17 -14 -42 -35t-49 -40.5t-42.5 -34.5t-20.5 -17l-1 -1l-9 9l2 1q54 66 84 102.5t45 53.5t20 20.5t10 3.5h2h1h3q4 0 9.5 -3.5t20.5 -21t45 -53.5t84 -102
l1 -1l-8 -9l-2 1v0z" />
    <glyph glyph-name="scommaaccent" unicode="&#x219;" horiz-adv-x="569" 
d="M460 505q-2 5 -4.5 10t-4.5 10q-14 32 -44.5 56t-65.5 33q-44 11 -84.5 9t-72 -15t-50.5 -35.5t-19 -50.5q0 -21 15 -37.5t42.5 -31.5t66 -29t85.5 -30q41 -14 79 -32t66 -43.5t43 -61t11 -83.5q-4 -39 -22.5 -71t-48.5 -55t-71 -35.5t-89 -12.5q-36 0 -72 3.5t-68 9.5
t-59.5 14.5t-46.5 19.5q1 2 2.5 4.5t2.5 4.5l-5 -9l-4 86h18l14 -23q22 -36 62.5 -61.5t86.5 -30.5q0 -1 10.5 -2t23.5 -1.5t25 -1t14 -0.5q83 0 127 37t51 104q5 45 -9.5 77t-42 55.5t-64.5 39.5t-76 29q-48 16 -87.5 32t-67.5 33.5t-43 37.5t-15 45q0 28 14.5 52t41.5 42
t65.5 28.5t85.5 10.5q46 0 100 -14.5t99 -38.5l4 -78h-19v0zM281 -26q25 0 35.5 -19.5t10.5 -45.5q0 -38 -19.5 -70t-51.5 -48l-5 8q19 10 31.5 32t12.5 49q0 4 -0.5 8t-1.5 9q-3 -2 -6.5 -2h-6.5q-17 0 -28 11.5t-11 28.5t11 28t29 11z" />
    <glyph glyph-name="tcaron" unicode="&#x165;" horiz-adv-x="480" 
d="M155 613v-481q0 -56 26 -86.5t80 -30.5q24 0 42.5 7.5t32.5 18t24.5 23t18.5 21.5l9 -8q-26 -34 -58 -56t-82 -22q-71 0 -109 36t-38 120v458h-80v14q28 0 50.5 10.5t38 27.5t23.5 38t8 42h14v-117h198v-15h-198zM410 850q25 0 35.5 -19.5t10.5 -45.5q0 -38 -19.5 -70
t-51.5 -48l-5 8q19 10 31.5 32t12.5 49q0 4 -0.5 8t-1.5 9q-3 -2 -6.5 -2h-6.5q-17 0 -28 11.5t-11 28.5t11 28t29 11z" />
    <glyph glyph-name="tcommaaccent" unicode="&#x163;" horiz-adv-x="401" 
d="M155 613v-481q0 -56 26 -86.5t80 -30.5q24 0 42.5 7.5t32.5 18t24.5 23t18.5 21.5l9 -8q-26 -34 -58 -56t-82 -22q-71 0 -109 36t-38 120v458h-80v14q28 0 50.5 10.5t38 27.5t23.5 38t8 42h14v-117h198v-15h-198zM254 -38q25 0 35.5 -19.5t10.5 -45.5q0 -38 -19.5 -70
t-51.5 -48l-5 8q19 10 31.5 32t12.5 49q0 4 -0.5 8t-1.5 9q-3 -2 -6.5 -2h-6.5q-17 0 -28 11.5t-11 28.5t11 28t29 11z" />
    <glyph glyph-name="ubreve" unicode="&#x16d;" horiz-adv-x="693" 
d="M659 609q-29 0 -44 -17t-15 -55v-412q0 -25 2.5 -41t9.5 -28t18.5 -21.5t28.5 -20.5v-14h-114v76v6v16q-13 -13 -35 -31t-51.5 -34t-65.5 -27.5t-77 -11.5q-45 0 -85.5 11.5t-70.5 36.5t-47.5 65.5t-17.5 97.5v332q0 33 -13.5 52.5t-36.5 19.5h-9v19h173v-19
q-29 0 -44 -17t-15 -55v-327q0 -102 47 -151.5t128 -49.5q62 0 119 31.5t101 76.5v420q0 33 -13.5 52.5t-36.5 19.5h-9v19h173v-19v0zM478 801q-8 -47 -44 -76t-88 -29t-88 29t-44 76l9 1q5 -32 39 -50t84 -18q51 0 85 18t39 50l8 -1v0z" />
    <glyph glyph-name="scaron" unicode="&#x161;" horiz-adv-x="569" 
d="M460 505q-2 5 -4.5 10t-4.5 10q-14 32 -44.5 56t-65.5 33q-44 11 -84.5 9t-72 -15t-50.5 -35.5t-19 -50.5q0 -21 15 -37.5t42.5 -31.5t66 -29t85.5 -30q41 -14 79 -32t66 -43.5t43 -61t11 -83.5q-4 -39 -22.5 -71t-48.5 -55t-71 -35.5t-89 -12.5q-36 0 -72 3.5t-68 9.5
t-59.5 14.5t-46.5 19.5q1 2 2.5 4.5t2.5 4.5l-5 -9l-4 86h18l14 -23q22 -36 62.5 -61.5t86.5 -30.5q0 -1 10.5 -2t23.5 -1.5t25 -1t14 -0.5q83 0 127 37t51 104q5 45 -9.5 77t-42 55.5t-64.5 39.5t-76 29q-48 16 -87.5 32t-67.5 33.5t-43 37.5t-15 45q0 28 14.5 52t41.5 42
t65.5 28.5t85.5 10.5q46 0 100 -14.5t99 -38.5l4 -78h-19v0zM440 857l8 -9l-1 -1q-54 -66 -84 -102t-45 -53.5t-20.5 -21t-9.5 -3.5h-3h-1h-2q-5 0 -10 3.5t-20 20.5t-45 53.5t-84 102.5l-2 1l9 9l1 -1q2 -2 20.5 -17t42.5 -34.5t49 -40.5t42 -35q16 14 41.5 35t49.5 40.5
t42 34.5t20 17z" />
    <glyph glyph-name="uhungarumlaut" unicode="&#x171;" horiz-adv-x="693" 
d="M659 609q-29 0 -44 -17t-15 -55v-412q0 -25 2.5 -41t9.5 -28t18.5 -21.5t28.5 -20.5v-14h-114v76v6v16q-13 -13 -35 -31t-51.5 -34t-65.5 -27.5t-77 -11.5q-45 0 -85.5 11.5t-70.5 36.5t-47.5 65.5t-17.5 97.5v332q0 33 -13.5 52.5t-36.5 19.5h-9v19h173v-19
q-29 0 -44 -17t-15 -55v-327q0 -102 47 -151.5t128 -49.5q62 0 119 31.5t101 76.5v420q0 33 -13.5 52.5t-36.5 19.5h-9v19h173v-19v0zM171 672l-9 9l2 1q55 67 84.5 103.5t44.5 53.5t20.5 20t10.5 3h1q14 0 21 -9.5t7 -17.5q0 -7 -3 -12.5t-20.5 -20.5t-54 -44.5
t-102.5 -84.5zM349 672l-9 9l2 1q55 67 84.5 103.5t44.5 53.5t20.5 20t10.5 3h1q14 0 21 -9.5t7 -17.5q0 -7 -3 -12.5t-20.5 -20.5t-54 -44.5t-102.5 -84.5z" />
    <glyph glyph-name="umacron" unicode="&#x16b;" horiz-adv-x="693" 
d="M659 609q-29 0 -44 -17t-15 -55v-412q0 -25 2.5 -41t9.5 -28t18.5 -21.5t28.5 -20.5v-14h-114v76v6v16q-13 -13 -35 -31t-51.5 -34t-65.5 -27.5t-77 -11.5q-45 0 -85.5 11.5t-70.5 36.5t-47.5 65.5t-17.5 97.5v332q0 33 -13.5 52.5t-36.5 19.5h-9v19h173v-19
q-29 0 -44 -17t-15 -55v-327q0 -102 47 -151.5t128 -49.5q62 0 119 31.5t101 76.5v420q0 33 -13.5 52.5t-36.5 19.5h-9v19h173v-19v0zM223 713v16h246v-16h-246v0z" />
    <glyph glyph-name="uogonek" unicode="&#x173;" horiz-adv-x="693" 
d="M561 -227q-38 0 -63 20t-25 55q0 38 30 73t88 79h-46v98q-13 -13 -35 -31t-51.5 -34t-65.5 -27.5t-77 -11.5q-45 0 -85.5 11.5t-70.5 36.5t-47.5 65.5t-17.5 97.5v332q0 33 -13.5 52.5t-36.5 19.5h-9v19h173v-19q-29 0 -44 -17t-15 -55v-327q0 -102 47 -151.5t128 -49.5
q62 0 119 31.5t101 76.5v420q0 33 -13.5 52.5t-36.5 19.5h-9v19h173v-19q-29 0 -44 -17t-15 -55v-412q0 -25 2.5 -41t9.5 -28t18.5 -21.5t28.5 -20.5v-14h-42q-32 -25 -49.5 -48t-26 -42t-10.5 -32.5t-2 -19.5q0 -1 1 -11t6 -22t15 -21.5t29 -9.5q12 0 24.5 4t22 9.5t16 10
l6.5 4.5l10 -12q-16 -14 -31.5 -21t-29 -11t-23 -4.5t-12.5 -0.5h-2v0z" />
    <glyph glyph-name="uring" unicode="&#x16f;" horiz-adv-x="693" 
d="M659 609q-29 0 -44 -17t-15 -55v-412q0 -25 2.5 -41t9.5 -28t18.5 -21.5t28.5 -20.5v-14h-114v76v6v16q-13 -13 -35 -31t-51.5 -34t-65.5 -27.5t-77 -11.5q-45 0 -85.5 11.5t-70.5 36.5t-47.5 65.5t-17.5 97.5v332q0 33 -13.5 52.5t-36.5 19.5h-9v19h173v-19
q-29 0 -44 -17t-15 -55v-327q0 -102 47 -151.5t128 -49.5q62 0 119 31.5t101 76.5v420q0 33 -13.5 52.5t-36.5 19.5h-9v19h173v-19v0zM346 670q-23 0 -43.5 8.5t-36 23.5t-24.5 34.5t-9 41.5t9 42t24.5 34.5t36 23t43.5 8.5q24 0 44.5 -8.5t35.5 -23t24 -34.5t9 -42
t-9 -41.5t-24 -34.5t-35.5 -23.5t-44.5 -8.5zM346 873q-14 0 -27 -7.5t-22.5 -20.5t-15 -30.5t-5.5 -36.5q0 -39 20.5 -66.5t49.5 -27.5t49.5 27.5t20.5 66.5t-20.5 67t-49.5 28z" />
    <glyph glyph-name="utilde" unicode="&#x169;" horiz-adv-x="693" 
d="M659 609q-29 0 -44 -17t-15 -55v-412q0 -25 2.5 -41t9.5 -28t18.5 -21.5t28.5 -20.5v-14h-114v76v6v16q-13 -13 -35 -31t-51.5 -34t-65.5 -27.5t-77 -11.5q-45 0 -85.5 11.5t-70.5 36.5t-47.5 65.5t-17.5 97.5v332q0 33 -13.5 52.5t-36.5 19.5h-9v19h173v-19
q-29 0 -44 -17t-15 -55v-327q0 -102 47 -151.5t128 -49.5q62 0 119 31.5t101 76.5v420q0 33 -13.5 52.5t-36.5 19.5h-9v19h173v-19v0zM479 769h11v-3q-4 -44 -26 -62t-45 -18q-20 0 -40 8.5t-40.5 18t-40 18t-37.5 8.5h-1q-2 0 -8.5 -1t-14 -5.5t-14.5 -14.5t-8 -28v-2h-12
v2q1 15 5.5 30t13 27.5t21 20t29.5 7.5q19 0 39.5 -8t41 -18t40.5 -18t39 -8q26 0 35.5 15t11.5 29v2z" />
    <glyph glyph-name="wacute" unicode="&#x1e83;" horiz-adv-x="1062" 
d="M1045 629v-18q-29 0 -52 -18t-38 -54q-60 -134 -117.5 -268.5t-116.5 -268.5h-8l-177 404l-205 -404h-9l-234 541q-30 68 -77 68v18h173v-18h-9q-23 0 -30 -18t4 -48l203 -483l179 357l-54 122q-30 68 -65 68v18h173v-18h-12q-26 0 -36.5 -16t-2.5 -42l205 -486l198 474
q14 32 5 52t-38 20h-11v18h152zM444 677l-9 9l2 1q55 67 84.5 103.5t44.5 53.5t20.5 20t10.5 3h1q14 0 21 -9.5t7 -17.5q0 -7 -3 -12.5t-20.5 -20.5t-54 -44.5t-102.5 -84.5z" />
    <glyph glyph-name="wcircumflex" unicode="&#x175;" horiz-adv-x="1062" 
d="M1045 629v-18q-29 0 -52 -18t-38 -54q-60 -134 -117.5 -268.5t-116.5 -268.5h-8l-177 404l-205 -404h-9l-234 541q-30 68 -77 68v18h173v-18h-9q-23 0 -30 -18t4 -48l203 -483l179 357l-54 122q-30 68 -65 68v18h173v-18h-12q-26 0 -36.5 -16t-2.5 -42l205 -486l198 474
q14 32 5 52t-38 20h-11v18h152zM684 676q-2 2 -20 17t-42 34.5t-49.5 40.5t-41.5 35q-17 -14 -42 -35t-49 -40.5t-42.5 -34.5t-20.5 -17l-1 -1l-9 9l2 1q54 66 84 102.5t45 53.5t20 20.5t10 3.5h2h1h3q4 0 9.5 -3.5t20.5 -21t45 -53.5t84 -102l1 -1l-8 -9l-2 1v0z" />
    <glyph glyph-name="wdieresis" unicode="&#x1e85;" horiz-adv-x="1062" 
d="M1045 629v-18q-29 0 -52 -18t-38 -54q-60 -134 -117.5 -268.5t-116.5 -268.5h-8l-177 404l-205 -404h-9l-234 541q-30 68 -77 68v18h173v-18h-9q-23 0 -30 -18t4 -48l203 -483l179 357l-54 122q-30 68 -65 68v18h173v-18h-12q-26 0 -36.5 -16t-2.5 -42l205 -486l198 474
q14 32 5 52t-38 20h-11v18h152zM490 723q0 -18 -11 -27t-25 -9t-25.5 9t-11.5 27t11.5 27t25.5 9t25 -9t11 -27zM645 723q0 -18 -11.5 -27t-25.5 -9t-25 9t-11 27t11 27t25 9t25.5 -9t11.5 -27z" />
    <glyph glyph-name="wgrave" unicode="&#x1e81;" horiz-adv-x="1062" 
d="M1045 629v-18q-29 0 -52 -18t-38 -54q-60 -134 -117.5 -268.5t-116.5 -268.5h-8l-177 404l-205 -404h-9l-234 541q-30 68 -77 68v18h173v-18h-9q-23 0 -30 -18t4 -48l203 -483l179 357l-54 122q-30 68 -65 68v18h173v-18h-12q-26 0 -36.5 -16t-2.5 -42l205 -486l198 474
q14 32 5 52t-38 20h-11v18h152zM615 686q-66 55 -102.5 84.5t-54 44.5t-20.5 20.5t-3 12.5q0 8 7 17.5t21 9.5h1q5 0 10 -3t20 -20t45 -53.5t85 -103.5l2 -1l-9 -9l-2 1v0z" />
    <glyph glyph-name="ycircumflex" unicode="&#x177;" horiz-adv-x="715" 
d="M690 627v-18q-60 0 -91 -73l-234 -531q-13 -29 -31.5 -73t-45.5 -85t-63 -70.5t-84 -29.5q-38 0 -61 11t-23 29q0 20 18 22t39.5 -4t40 -14t19.5 -8q42 0 75 35.5t70 118.5l34 78l-229 525q-32 69 -89 69v18h173v-18q-23 0 -30 -13t2 -43l203 -486l199 469q14 32 10 52.5
t-23 20.5h-8v18h129zM511 676q-2 2 -20 17t-42 34.5t-49.5 40.5t-41.5 35q-17 -14 -42 -35t-49 -40.5t-42.5 -34.5t-20.5 -17l-1 -1l-9 9l2 1q54 66 84 102.5t45 53.5t20 20.5t10 3.5h2h1h3q4 0 9.5 -3.5t20.5 -21t45 -53.5t84 -102l1 -1l-8 -9l-2 1v0z" />
    <glyph glyph-name="ygrave" unicode="&#x1ef3;" horiz-adv-x="715" 
d="M690 627v-18q-60 0 -91 -73l-234 -531q-13 -29 -31.5 -73t-45.5 -85t-63 -70.5t-84 -29.5q-38 0 -61 11t-23 29q0 20 18 22t39.5 -4t40 -14t19.5 -8q42 0 75 35.5t70 118.5l34 78l-229 525q-32 69 -89 69v18h173v-18q-23 0 -30 -13t2 -43l203 -486l199 469q14 32 10 52.5
t-23 20.5h-8v18h129zM442 677q-66 55 -102.5 84.5t-54 44.5t-20.5 20.5t-3 12.5q0 8 7 17.5t21 9.5h1q5 0 10 -3t20 -20t45 -53.5t85 -103.5l2 -1l-9 -9l-2 1v0z" />
    <glyph glyph-name="zacute" unicode="&#x17a;" horiz-adv-x="585" 
d="M516 5l-1 -5h-481l446 616h-224q-42 0 -83.5 -16.5t-70.5 -43.5l-10 -10h-19q6 17 12.5 38.5t11.5 38.5h1l2 6h452l-445 -618l245 1q46 0 88 27.5t66 72.5l9 19q5 -1 9 -2t8.5 -2t7.5 -2zM206 675l-9 9l2 1q55 67 84.5 103.5t44.5 53.5t20.5 20t10.5 3h1q14 0 21 -9.5
t7 -17.5q0 -7 -3 -12.5t-20.5 -20.5t-54 -44.5t-102.5 -84.5z" />
    <glyph glyph-name="zdotaccent" unicode="&#x17c;" horiz-adv-x="585" 
d="M516 5l-1 -5h-481l446 616h-224q-42 0 -83.5 -16.5t-70.5 -43.5l-10 -10h-19q6 17 12.5 38.5t11.5 38.5h1l2 6h452l-445 -618l245 1q46 0 88 27.5t66 72.5l9 19q5 -1 9 -2t8.5 -2t7.5 -2zM323 761q15 0 27.5 -9.5t12.5 -29.5t-12.5 -29.5t-27.5 -9.5t-27.5 9.5
t-12.5 29.5t12.5 29.5t27.5 9.5z" />
    <glyph glyph-name="Wacute" unicode="&#x1e82;" horiz-adv-x="1206" 
d="M1016 800h160v-18q-27 0 -46 -16.5t-34 -50.5l-294 -715h-19l-177 413l-170 -413h-19l-305 711q-15 33 -35 52t-47 19v18h189v-18h-12q-20 0 -31 -10.5t-11 -28.5q0 -17 8 -34l274 -637l149 363l-118 276q-15 33 -35 52t-47 19v18h189v-18h-12q-20 0 -31 -10.5t-11 -28.5
q0 -13 8 -34l87 -202l76 186q9 22 9 40q0 23 -13 36t-35 13h-13v18h160v-18q-27 0 -46 -16.5t-34 -50.5l-95 -230l178 -413l255 621q9 22 9 40q0 23 -13 36t-35 13h-13v18zM520 844l-9 9l2 1q55 67 84.5 103.5t44.5 53.5t20.5 20t10.5 3h1q14 0 21 -9.5t7 -17.5
q0 -7 -3 -12.5t-20.5 -20.5t-54 -44.5t-102.5 -84.5z" />
    <glyph glyph-name="Wdieresis" unicode="&#x1e84;" horiz-adv-x="1206" 
d="M1016 800h160v-18q-27 0 -46 -16.5t-34 -50.5l-294 -715h-19l-177 413l-170 -413h-19l-305 711q-15 33 -35 52t-47 19v18h189v-18h-12q-20 0 -31 -10.5t-11 -28.5q0 -17 8 -34l274 -637l149 363l-118 276q-15 33 -35 52t-47 19v18h189v-18h-12q-20 0 -31 -10.5t-11 -28.5
q0 -13 8 -34l87 -202l76 186q9 22 9 40q0 23 -13 36t-35 13h-13v18h160v-18q-27 0 -46 -16.5t-34 -50.5l-95 -230l178 -413l255 621q9 22 9 40q0 23 -13 36t-35 13h-13v18zM562 908q0 -18 -11 -27t-25 -9t-25.5 9t-11.5 27t11.5 27t25.5 9t25 -9t11 -27zM717 908
q0 -18 -11.5 -27t-25.5 -9t-25 9t-11 27t11 27t25 9t25.5 -9t11.5 -27z" />
    <glyph glyph-name="Wcircumflex" unicode="&#x174;" horiz-adv-x="1206" 
d="M1016 800h160v-18q-27 0 -46 -16.5t-34 -50.5l-294 -715h-19l-177 413l-170 -413h-19l-305 711q-15 33 -35 52t-47 19v18h189v-18h-12q-20 0 -31 -10.5t-11 -28.5q0 -17 8 -34l274 -637l149 363l-118 276q-15 33 -35 52t-47 19v18h189v-18h-12q-20 0 -31 -10.5t-11 -28.5
q0 -13 8 -34l87 -202l76 186q9 22 9 40q0 23 -13 36t-35 13h-13v18h160v-18q-27 0 -46 -16.5t-34 -50.5l-95 -230l178 -413l255 621q9 22 9 40q0 23 -13 36t-35 13h-13v18zM756 844q-2 2 -20 17t-42 34.5t-49.5 40.5t-41.5 35q-17 -14 -42 -35t-49 -40.5t-42.5 -34.5
t-20.5 -17l-1 -1l-9 9l2 1q54 66 84 102.5t45 53.5t20 20.5t10 3.5h2h1h3q4 0 9.5 -3.5t20.5 -21t45 -53.5t84 -102l1 -1l-8 -9l-2 1v0z" />
    <glyph glyph-name="Wgrave" unicode="&#x1e80;" horiz-adv-x="1206" 
d="M1016 800h160v-18q-27 0 -46 -16.5t-34 -50.5l-294 -715h-19l-177 413l-170 -413h-19l-305 711q-15 33 -35 52t-47 19v18h189v-18h-12q-20 0 -31 -10.5t-11 -28.5q0 -17 8 -34l274 -637l149 363l-118 276q-15 33 -35 52t-47 19v18h189v-18h-12q-20 0 -31 -10.5t-11 -28.5
q0 -13 8 -34l87 -202l76 186q9 22 9 40q0 23 -13 36t-35 13h-13v18h160v-18q-27 0 -46 -16.5t-34 -50.5l-95 -230l178 -413l255 621q9 22 9 40q0 23 -13 36t-35 13h-13v18zM687 846q-66 55 -102.5 84.5t-54 44.5t-20.5 20.5t-3 12.5q0 8 7 17.5t21 9.5h1q5 0 10 -3t20 -20
t45 -53.5t85 -103.5l2 -1l-9 -9l-2 1v0z" />
    <glyph glyph-name="Ycircumflex" unicode="&#x176;" horiz-adv-x="801" 
d="M617 800h146v-19q-51 0 -97 -72q-8 -12 -13 -20.5t-13 -22t-21.5 -36.5t-37.5 -64.5t-62 -105.5t-94 -159v-210q0 -32 14 -52t37 -20h9v-19h-180v19h9q23 0 37 20t14 52v187l-243 431q-23 35 -44 53.5t-44 18.5v19h178v-19h-10q-24 0 -24 -22q0 -19 16 -45l225 -390
l219 371q21 36 21 58q0 28 -30 28h-8q-4 0 -4 10v9zM554 849q-2 2 -20 17t-42 34.5t-49.5 40.5t-41.5 35q-17 -14 -42 -35t-49 -40.5t-42.5 -34.5t-20.5 -17l-1 -1l-9 9l2 1q54 66 84 102.5t45 53.5t20 20.5t10 3.5h2h1h3q4 0 9.5 -3.5t20.5 -21t45 -53.5t84 -102l1 -1
l-8 -9l-2 1v0z" />
    <glyph glyph-name="Ygrave" unicode="&#x1ef2;" horiz-adv-x="801" 
d="M617 800h146v-19q-51 0 -97 -72q-8 -12 -13 -20.5t-13 -22t-21.5 -36.5t-37.5 -64.5t-62 -105.5t-94 -159v-210q0 -32 14 -52t37 -20h9v-19h-180v19h9q23 0 37 20t14 52v187l-243 431q-23 35 -44 53.5t-44 18.5v19h178v-19h-10q-24 0 -24 -22q0 -19 16 -45l225 -390
l219 371q21 36 21 58q0 28 -30 28h-8q-4 0 -4 10v9zM485 845q-66 55 -102.5 84.5t-54 44.5t-20.5 20.5t-3 12.5q0 8 7 17.5t21 9.5h1q5 0 10 -3t20 -20t45 -53.5t85 -103.5l2 -1l-9 -9l-2 1v0z" />
    </font>
</defs>
</svg>
